SplineFontDB: 3.0
FontName: Chathura-ExtraBold
FullName: Chathura ExtraBold
FamilyName: Chathura
Weight: ExtraBold
Copyright: Copyright (c) 2015 by Aditya Fonts. All rights reserved.
Version: 1.00 2015
ItalicAngle: 0
UnderlinePosition: -613
UnderlineWidth: 20
Ascent: 800
Descent: 200
InvalidEm: 0
sfntRevision: 0x00010000
LayerCount: 2
Layer: 0 1 "Back" 1
Layer: 1 1 "Fore" 0
XUID: [1021 73 2087734359 7214598]
FSType: 0
OS2Version: 3
OS2_WeightWidthSlopeOnly: 0
OS2_UseTypoMetrics: 1
CreationTime: 1374624000
ModificationTime: 1440418057
PfmFamily: 17
TTFWeight: 500
TTFWidth: 5
LineGap: 0
VLineGap: 0
Panose: 2 0 6 0 0 0 0 0 0 0
OS2TypoAscent: 895
OS2TypoAOffset: 0
OS2TypoDescent: -310
OS2TypoDOffset: 0
OS2TypoLinegap: 448
OS2WinAscent: 895
OS2WinAOffset: 0
OS2WinDescent: 653
OS2WinDOffset: 0
HheadAscent: 895
HheadAOffset: 0
HheadDescent: -653
HheadDOffset: 0
OS2SubXSize: 700
OS2SubYSize: 650
OS2SubXOff: 0
OS2SubYOff: 200
OS2SupXSize: 700
OS2SupYSize: 650
OS2SupXOff: 0
OS2SupYOff: 500
OS2StrikeYSize: 50
OS2StrikeYPos: 250
OS2CapHeight: 0
OS2XHeight: 0
OS2Vendor: 'AAD '
OS2CodePages: 00000003.00000000
OS2UnicodeRanges: 80200003.00000000.00000000.00000000
Lookup: 4 0 0 "'akhn' Akhand in Telugu lookup 0" { "'akhn' Akhand in Telugu lookup 0 subtable"  } ['akhn' ('telu' <'dflt' > ) ]
Lookup: 4 0 0 "'blwf' Below Base Forms in Telugu lookup 1" { "'blwf' Below Base Forms in Telugu lookup 1 subtable"  } ['blwf' ('telu' <'dflt' > ) ]
Lookup: 4 0 0 "'blwf' Below Base Forms in Telugu lookup 2" { "'blwf' Below Base Forms in Telugu lookup 2 subtable"  } ['blwf' ('telu' <'dflt' > ) ]
Lookup: 4 0 0 "'blwf' Below Base Forms in Telugu lookup 3" { "'blwf' Below Base Forms in Telugu lookup 3 subtable"  } ['blwf' ('telu' <'dflt' > ) ]
Lookup: 4 0 0 "'abvs' Above Base Substitutions in Telugu lookup 4" { "'abvs' Above Base Substitutions in Telugu lookup 4 subtable"  } ['abvs' ('telu' <'dflt' > ) ]

StartChar: .notdef
Encoding: 65536 -1 0
Width: 800
GlyphClass: 2
Flags: W
LayerCount: 2
Back
Fore
SplineSet
700 700 m 1,0,-1
 700 0 l 1,1,-1
 100 0 l 1,2,-1
 100 700 l 1,3,-1
 700 700 l 1,0,-1
650 650 m 1,4,-1
 150 650 l 1,5,-1
 150 50 l 1,6,-1
 650 50 l 1,7,-1
 650 650 l 1,4,-1
EndSplineSet
EndChar

StartChar: exclam
Encoding: 33 33 4
Width: 160
GlyphClass: 2
Flags: W
LayerCount: 2
Back
Fore
SplineSet
93 157 m 0,0,1
 91 136 91 136 79 136 c 2,2,-1
 60 135 l 2,3,4
 51 134 51 134 49 157 c 0,5,6
 48 177 48 177 47.5 225 c 128,-1,7
 47 273 47 273 47 358 c 2,8,-1
 47 411 l 2,9,10
 47 418 47 418 49.5 426 c 128,-1,11
 52 434 52 434 58 434 c 2,12,-1
 84 434 l 2,13,14
 90 434 90 434 92.5 426 c 128,-1,15
 95 418 95 418 95 411 c 2,16,-1
 95 358 l 1,17,-1
 95 257 l 2,18,19
 95 215 95 215 94.5 190 c 128,-1,20
 94 165 94 165 93 157 c 0,0,1
58 0 m 2,21,22
 53 0 53 0 50 7.5 c 128,-1,23
 47 15 47 15 47 22 c 2,24,-1
 47 88 l 2,25,26
 47 95 47 95 50 103 c 128,-1,27
 53 111 53 111 58 111 c 2,28,-1
 83 111 l 2,29,30
 89 111 89 111 91.5 103 c 128,-1,31
 94 95 94 95 94 88 c 2,32,-1
 94 22 l 2,33,34
 94 15 94 15 91.5 7.5 c 128,-1,35
 89 0 89 0 83 0 c 2,36,-1
 58 0 l 2,21,22
EndSplineSet
EndChar

StartChar: quotedbl
Encoding: 34 34 5
Width: 218
GlyphClass: 2
Flags: W
LayerCount: 2
Back
Fore
SplineSet
163 338 m 2,0,1
 163 330 163 330 158 324 c 128,-1,2
 153 318 153 318 143 318 c 2,3,-1
 141 318 l 2,4,5
 131 318 131 318 126.5 324 c 128,-1,6
 122 330 122 330 122 338 c 2,7,-1
 119 433 l 2,8,9
 119 454 119 454 139 454 c 2,10,-1
 148 454 l 2,11,12
 157 454 157 454 161.5 447.5 c 128,-1,13
 166 441 166 441 166 433 c 2,14,-1
 163 338 l 2,0,1
87 338 m 2,15,16
 87 331 87 331 82.5 324.5 c 128,-1,17
 78 318 78 318 68 318 c 2,18,-1
 66 318 l 2,19,20
 55 318 55 318 51 324.5 c 128,-1,21
 47 331 47 331 47 338 c 2,22,-1
 42 433 l 2,23,24
 41 443 41 443 47.5 448.5 c 128,-1,25
 54 454 54 454 62 454 c 2,26,-1
 71 454 l 2,27,28
 79 454 79 454 85.5 448.5 c 128,-1,29
 92 443 92 443 91 433 c 2,30,-1
 87 338 l 2,15,16
EndSplineSet
EndChar

StartChar: numbersign
Encoding: 35 35 6
Width: 458
GlyphClass: 2
Flags: W
LayerCount: 2
Back
Fore
SplineSet
346 274 m 1,0,-1
 312 159 l 1,1,-1
 352 159 l 2,2,3
 360 159 360 159 367 153.5 c 128,-1,4
 374 148 374 148 374 138 c 2,5,-1
 374 130 l 2,6,7
 374 119 374 119 367 113.5 c 128,-1,8
 360 108 360 108 352 108 c 2,9,-1
 298 108 l 1,10,-1
 273 19 l 2,11,12
 271 14 271 14 265.5 7 c 128,-1,13
 260 0 260 0 249 0 c 2,14,-1
 243 0 l 2,15,16
 234 0 234 0 229 4 c 128,-1,17
 224 8 224 8 222.5 13.5 c 128,-1,18
 221 19 221 19 221.5 24.5 c 128,-1,19
 222 30 222 30 223 32 c 2,20,-1
 245 108 l 1,21,-1
 151 108 l 1,22,-1
 126 18 l 2,23,24
 124 14 124 14 118.5 7 c 128,-1,25
 113 0 113 0 103 0 c 2,26,-1
 95 0 l 2,27,28
 79 0 79 0 76 11 c 128,-1,29
 73 22 73 22 76 32 c 2,30,-1
 98 108 l 1,31,-1
 63 108 l 2,32,33
 55 108 55 108 47.5 113.5 c 128,-1,34
 40 119 40 119 40 130 c 2,35,-1
 40 138 l 2,36,37
 40 148 40 148 47.5 153.5 c 128,-1,38
 55 159 55 159 63 159 c 2,39,-1
 112 159 l 1,40,-1
 146 274 l 1,41,-1
 106 274 l 2,42,43
 98 274 98 274 91 279.5 c 128,-1,44
 84 285 84 285 84 296 c 2,45,-1
 84 304 l 2,46,47
 84 315 84 315 91 320.5 c 128,-1,48
 98 326 98 326 106 326 c 2,49,-1
 160 326 l 1,50,-1
 185 415 l 2,51,52
 187 422 187 422 193.5 428 c 128,-1,53
 200 434 200 434 210 434 c 2,54,-1
 215 434 l 2,55,56
 224 434 224 434 228.5 430 c 128,-1,57
 233 426 233 426 235 420.5 c 128,-1,58
 237 415 237 415 236.5 410 c 128,-1,59
 236 405 236 405 235 403 c 2,60,-1
 213 326 l 1,61,-1
 307 326 l 1,62,-1
 332 416 l 2,63,64
 334 421 334 421 340 427.5 c 128,-1,65
 346 434 346 434 356 434 c 2,66,-1
 361 434 l 2,67,68
 370 434 370 434 374.5 430 c 128,-1,69
 379 426 379 426 380.5 420.5 c 128,-1,70
 382 415 382 415 382 410 c 128,-1,71
 382 405 382 405 382 403 c 2,72,-1
 360 326 l 1,73,-1
 395 326 l 2,74,75
 403 326 403 326 410.5 320.5 c 128,-1,76
 418 315 418 315 418 304 c 2,77,-1
 418 296 l 2,78,79
 418 285 418 285 410.5 279.5 c 128,-1,80
 403 274 403 274 395 274 c 2,81,-1
 346 274 l 1,0,-1
199 274 m 1,82,-1
 166 159 l 1,83,-1
 259 159 l 1,84,-1
 292 274 l 1,85,-1
 199 274 l 1,82,-1
EndSplineSet
EndChar

StartChar: dollar
Encoding: 36 36 7
Width: 335
GlyphClass: 2
Flags: W
LayerCount: 2
Back
Fore
SplineSet
201 -4 m 1,0,-1
 201 -43 l 2,1,2
 201 -51 201 -51 196 -59 c 128,-1,3
 191 -67 191 -67 180 -67 c 2,4,-1
 172 -67 l 2,5,6
 161 -67 161 -67 156 -59 c 128,-1,7
 151 -51 151 -51 151 -43 c 2,8,-1
 151 -4 l 1,9,-1
 145 -4 l 2,10,11
 102 -4 102 -4 76 23.5 c 128,-1,12
 50 51 50 51 50 100 c 2,13,-1
 50 121 l 2,14,15
 50 129 50 129 55 136.5 c 128,-1,16
 60 144 60 144 71 144 c 2,17,-1
 80 144 l 2,18,19
 91 144 91 144 96 136.5 c 128,-1,20
 101 129 101 129 101 121 c 2,21,-1
 101 100 l 2,22,23
 101 73 101 73 111.5 61 c 128,-1,24
 122 49 122 49 145 49 c 2,25,-1
 192 49 l 2,26,27
 213 49 213 49 224.5 61 c 128,-1,28
 236 73 236 73 236 100 c 2,29,-1
 236 145 l 2,30,31
 236 174 236 174 226 184 c 128,-1,32
 216 194 216 194 190 194 c 2,33,-1
 148 194 l 2,34,35
 103 194 103 194 76.5 216 c 128,-1,36
 50 238 50 238 50 292 c 2,37,-1
 50 336 l 2,38,39
 50 384 50 384 76 411.5 c 128,-1,40
 102 439 102 439 145 439 c 2,41,-1
 151 439 l 1,42,-1
 151 478 l 2,43,44
 151 486 151 486 156 493.5 c 128,-1,45
 161 501 161 501 172 501 c 2,46,-1
 180 501 l 2,47,48
 191 501 191 501 196 493.5 c 128,-1,49
 201 486 201 486 201 478 c 2,50,-1
 201 439 l 1,51,52
 239 436 239 436 262 408.5 c 128,-1,53
 285 381 285 381 285 336 c 2,54,-1
 285 317 l 2,55,56
 285 309 285 309 280 301 c 128,-1,57
 275 293 275 293 265 293 c 2,58,-1
 256 293 l 2,59,60
 245 293 245 293 240.5 301 c 128,-1,61
 236 309 236 309 236 317 c 2,62,-1
 236 336 l 2,63,64
 236 387 236 387 192 387 c 2,65,-1
 145 387 l 2,66,67
 101 387 101 387 101 336 c 2,68,-1
 101 292 l 2,69,70
 101 264 101 264 110.5 255 c 128,-1,71
 120 246 120 246 145 246 c 2,72,-1
 192 246 l 2,73,74
 238 246 238 246 261.5 220 c 128,-1,75
 285 194 285 194 285 146 c 2,76,-1
 285 100 l 2,77,78
 285 55 285 55 262.5 27 c 128,-1,79
 240 -1 240 -1 201 -4 c 1,0,-1
EndSplineSet
EndChar

StartChar: percent
Encoding: 37 37 8
Width: 479
GlyphClass: 2
Flags: W
LayerCount: 2
Back
Fore
SplineSet
347 0 m 2,0,1
 257 0 257 0 257 93 c 2,2,-1
 257 124 l 2,3,4
 257 217 257 217 347 217 c 2,5,-1
 357 217 l 2,6,7
 446 217 446 217 446 124 c 2,8,-1
 446 93 l 2,9,10
 446 0 446 0 357 0 c 2,11,-1
 347 0 l 2,0,1
179 16 m 2,12,13
 176 12 176 12 171 6 c 128,-1,14
 166 0 166 0 155 0 c 2,15,-1
 149 0 l 2,16,17
 140 0 140 0 135.5 3.5 c 128,-1,18
 131 7 131 7 129.5 12 c 128,-1,19
 128 17 128 17 128.5 22.5 c 128,-1,20
 129 28 129 28 130 32 c 2,21,-1
 301 418 l 2,22,23
 303 422 303 422 308.5 428 c 128,-1,24
 314 434 314 434 325 434 c 2,25,-1
 330 434 l 2,26,27
 349 434 349 434 350.5 421.5 c 128,-1,28
 352 409 352 409 348 401 c 2,29,-1
 179 16 l 2,12,13
123 220 m 2,30,31
 33 220 33 220 33 314 c 2,32,-1
 33 345 l 2,33,34
 33 437 33 437 123 437 c 2,35,-1
 133 437 l 2,36,37
 222 437 222 437 222 345 c 2,38,-1
 222 314 l 2,39,40
 222 220 222 220 133 220 c 2,41,-1
 123 220 l 2,30,31
393 123 m 2,42,43
 393 150 393 150 386 157.5 c 128,-1,44
 379 165 379 165 357 165 c 2,45,-1
 347 165 l 2,46,47
 325 165 325 165 317.5 157 c 128,-1,48
 310 149 310 149 310 123 c 2,49,-1
 310 94 l 2,50,51
 310 68 310 68 317.5 59.5 c 128,-1,52
 325 51 325 51 347 51 c 2,53,-1
 357 51 l 2,54,55
 379 51 379 51 386 59 c 128,-1,56
 393 67 393 67 393 94 c 2,57,-1
 393 123 l 2,42,43
169 344 m 2,58,59
 169 370 169 370 162 378 c 128,-1,60
 155 386 155 386 133 386 c 2,61,-1
 123 386 l 2,62,63
 101 386 101 386 93.5 378 c 128,-1,64
 86 370 86 370 86 344 c 2,65,-1
 86 314 l 2,66,67
 86 288 86 288 93.5 280.5 c 128,-1,68
 101 273 101 273 123 273 c 2,69,-1
 133 273 l 2,70,71
 155 273 155 273 162 280.5 c 128,-1,72
 169 288 169 288 169 314 c 2,73,-1
 169 344 l 2,58,59
EndSplineSet
EndChar

StartChar: ampersand
Encoding: 38 38 9
Width: 379
GlyphClass: 2
Flags: W
LayerCount: 2
Back
Fore
SplineSet
224 58 m 1,0,1
 153 143 153 143 80 226 c 1,2,3
 71 224 71 224 64 213.5 c 128,-1,4
 57 203 57 203 57 182 c 2,5,-1
 57 75 l 2,6,7
 57 71 57 71 60.5 61.5 c 128,-1,8
 64 52 64 52 81 52 c 2,9,-1
 207 52 l 2,10,11
 218 52 218 52 224 58 c 1,0,1
273 -1 m 1,12,-1
 259 16 l 1,13,14
 243 0 243 0 219 0 c 2,15,-1
 69 0 l 2,16,17
 44 0 44 0 23.5 20.5 c 128,-1,18
 3 41 3 41 3 75 c 2,19,-1
 3 188 l 2,20,21
 3 203 3 203 5.5 213.5 c 128,-1,22
 8 224 8 224 13.5 232 c 128,-1,23
 19 240 19 240 28 247.5 c 128,-1,24
 37 255 37 255 49 263 c 1,25,26
 35 265 35 265 26.5 278.5 c 128,-1,27
 18 292 18 292 18 301 c 2,28,-1
 18 363 l 2,29,30
 18 387 18 387 32 402.5 c 128,-1,31
 46 418 46 418 81 418 c 2,32,-1
 165 418 l 2,33,34
 193 418 193 418 205.5 408.5 c 128,-1,35
 218 399 218 399 219 369 c 2,36,-1
 221 286 l 2,37,38
 221 274 221 274 215 264 c 128,-1,39
 209 254 209 254 199 246.5 c 128,-1,40
 189 239 189 239 176.5 234.5 c 128,-1,41
 164 230 164 230 152 230 c 1,42,43
 164 216 164 216 185 191.5 c 128,-1,44
 206 167 206 167 230 138 c 1,45,-1
 230 178 l 1,46,-1
 284 178 l 1,47,-1
 284 75 l 1,48,-1
 284 73 l 1,49,50
 305 48 305 48 321 28 c 128,-1,51
 337 8 337 8 345 -1 c 1,52,-1
 273 -1 l 1,12,-1
165 352 m 2,53,54
 165 361 165 361 163 364 c 128,-1,55
 161 367 161 367 153 367 c 2,56,-1
 85 367 l 2,57,58
 72 367 72 367 72 350 c 2,59,-1
 72 300 l 2,60,61
 72 290 72 290 76.5 287.5 c 128,-1,62
 81 285 81 285 89 285 c 2,63,-1
 153 285 l 2,64,65
 161 285 161 285 163 290 c 128,-1,66
 165 295 165 295 165 302 c 2,67,-1
 165 352 l 2,53,54
EndSplineSet
EndChar

StartChar: quotesingle
Encoding: 39 39 10
Width: 125
GlyphClass: 2
Flags: W
LayerCount: 2
Back
Fore
SplineSet
83 338 m 2,0,1
 83 330 83 330 78 324 c 128,-1,2
 73 318 73 318 63 318 c 2,3,-1
 61 318 l 2,4,5
 51 318 51 318 46 324 c 128,-1,6
 41 330 41 330 41 338 c 2,7,-1
 39 433 l 2,8,9
 39 454 39 454 58 454 c 2,10,-1
 68 454 l 2,11,12
 76 454 76 454 81 447.5 c 128,-1,13
 86 441 86 441 86 433 c 2,14,-1
 83 338 l 2,0,1
EndSplineSet
EndChar

StartChar: parenleft
Encoding: 40 40 11
Width: 187
GlyphClass: 2
Flags: W
LayerCount: 2
Back
Fore
SplineSet
119 -69 m 2,0,1
 83 -69 83 -69 61.5 -41 c 128,-1,2
 40 -13 40 -13 40 33 c 2,3,-1
 40 331 l 2,4,5
 40 377 40 377 61.5 405.5 c 128,-1,6
 83 434 83 434 119 434 c 2,7,-1
 121 434 l 2,8,9
 129 434 129 434 134.5 427.5 c 128,-1,10
 140 421 140 421 140 411 c 2,11,-1
 140 404 l 2,12,13
 140 382 140 382 121 382 c 2,14,-1
 119 382 l 2,15,16
 102 382 102 382 93 370 c 128,-1,17
 84 358 84 358 84 330 c 2,18,-1
 84 34 l 2,19,20
 84 7 84 7 93 -5 c 128,-1,21
 102 -17 102 -17 119 -17 c 2,22,-1
 121 -17 l 2,23,24
 129 -17 129 -17 134.5 -23.5 c 128,-1,25
 140 -30 140 -30 140 -40 c 2,26,-1
 140 -47 l 2,27,28
 140 -69 140 -69 121 -69 c 2,29,-1
 119 -69 l 2,0,1
EndSplineSet
EndChar

StartChar: parenright
Encoding: 41 41 12
Width: 187
GlyphClass: 2
Flags: W
LayerCount: 2
Back
Fore
SplineSet
59 -69 m 2,0,1
 40 -69 40 -69 40 -47 c 2,2,-1
 40 -40 l 2,3,4
 40 -30 40 -30 45.5 -23.5 c 128,-1,5
 51 -17 51 -17 59 -17 c 2,6,-1
 61 -17 l 2,7,8
 78 -17 78 -17 87 -5 c 128,-1,9
 96 7 96 7 96 34 c 2,10,-1
 96 330 l 2,11,12
 96 358 96 358 87 370 c 128,-1,13
 78 382 78 382 61 382 c 2,14,-1
 59 382 l 2,15,16
 40 382 40 382 40 404 c 2,17,-1
 40 411 l 2,18,19
 40 421 40 421 45.5 427.5 c 128,-1,20
 51 434 51 434 59 434 c 2,21,-1
 61 434 l 2,22,23
 97 434 97 434 118.5 405.5 c 128,-1,24
 140 377 140 377 140 331 c 2,25,-1
 140 33 l 2,26,27
 140 -13 140 -13 118.5 -41 c 128,-1,28
 97 -69 97 -69 61 -69 c 2,29,-1
 59 -69 l 2,0,1
EndSplineSet
EndChar

StartChar: asterisk
Encoding: 42 42 13
Width: 275
GlyphClass: 2
Flags: W
LayerCount: 2
Back
Fore
SplineSet
209 343 m 0,0,1
 201 340 201 340 192.5 337.5 c 128,-1,2
 184 335 184 335 176 333 c 1,3,4
 183 326 183 326 191 313 c 2,5,-1
 198 305 l 2,6,7
 204 295 204 295 200.5 288 c 128,-1,8
 197 281 197 281 194 277 c 2,9,-1
 185 273 l 2,10,11
 178 268 178 268 170.5 269 c 128,-1,12
 163 270 163 270 158 277 c 0,13,14
 143 295 143 295 138 307 c 1,15,16
 133 300 133 300 128 292 c 128,-1,17
 123 284 123 284 117 276 c 0,18,19
 111 269 111 269 104 268.5 c 128,-1,20
 97 268 97 268 92 271 c 0,21,22
 90 273 90 273 87.5 274 c 128,-1,23
 85 275 85 275 83 277 c 0,24,25
 73 283 73 283 73.5 292.5 c 128,-1,26
 74 302 74 302 77 306 c 0,27,28
 84 314 84 314 89 321 c 128,-1,29
 94 328 94 328 100 334 c 1,30,-1
 65 344 l 2,31,32
 55 347 55 347 52.5 355 c 128,-1,33
 50 363 50 363 52 370 c 2,34,-1
 55 378 l 2,35,36
 59 388 59 388 66.5 390 c 128,-1,37
 74 392 74 392 80 391 c 0,38,39
 90 387 90 387 99 384.5 c 128,-1,40
 108 382 108 382 115 378 c 1,41,42
 114 384 114 384 113.5 390.5 c 128,-1,43
 113 397 113 397 113 404 c 2,44,-1
 113 413 l 2,45,46
 113 420 113 420 118.5 427 c 128,-1,47
 124 434 124 434 134 434 c 2,48,-1
 142 434 l 2,49,50
 152 434 152 434 157.5 427 c 128,-1,51
 163 420 163 420 163 413 c 2,52,-1
 163 404 l 2,53,54
 163 397 163 397 162.5 390.5 c 128,-1,55
 162 384 162 384 162 378 c 1,56,57
 169 381 169 381 177.5 384 c 128,-1,58
 186 387 186 387 196 390 c 0,59,60
 211 394 211 394 219 382 c 0,61,62
 221 379 221 379 221.5 376 c 128,-1,63
 222 373 222 373 223 371 c 0,64,65
 227 364 227 364 226 359 c 128,-1,66
 225 354 225 354 222 351 c 128,-1,67
 219 348 219 348 215 346 c 128,-1,68
 211 344 211 344 209 343 c 0,0,1
EndSplineSet
EndChar

StartChar: plus
Encoding: 43 43 14
Width: 365
GlyphClass: 2
Flags: W
LayerCount: 2
Back
Fore
SplineSet
208 192 m 1,0,-1
 208 92 l 2,1,2
 208 86 208 86 203 78 c 0,3,4
 197 71 197 71 186 71 c 2,5,-1
 179 71 l 2,6,7
 166 71 166 71 163 78 c 0,8,9
 161 81 161 81 160.5 83.5 c 128,-1,10
 160 86 160 86 159 88 c 256,11,12
 158 90 158 90 158 92 c 2,13,-1
 158 192 l 1,14,-1
 58 192 l 2,15,16
 52 192 52 192 44 197 c 0,17,18
 37 201 37 201 37 213 c 2,19,-1
 37 220 l 2,20,21
 37 230 37 230 44 236 c 0,22,23
 52 241 52 241 58 241 c 2,24,-1
 158 241 l 1,25,-1
 158 340 l 2,26,27
 158 347 158 347 163 355 c 0,28,29
 167 362 167 362 179 362 c 2,30,-1
 186 362 l 2,31,32
 197 362 197 362 203 355 c 0,33,34
 208 347 208 347 208 340 c 2,35,-1
 208 241 l 1,36,-1
 306 241 l 2,37,38
 328 241 328 241 328 220 c 2,39,-1
 328 213 l 2,40,41
 328 192 328 192 306 192 c 2,42,-1
 208 192 l 1,0,-1
EndSplineSet
EndChar

StartChar: comma
Encoding: 44 44 15
Width: 126
GlyphClass: 2
Flags: W
LayerCount: 2
Back
Fore
SplineSet
74 -52 m 0,0,1
 74 -59 74 -59 68 -65 c 0,2,3
 61 -69 61 -69 58 -69 c 0,4,5
 56 -68 56 -68 53 -67.5 c 128,-1,6
 50 -67 50 -67 47 -65 c 0,7,8
 41 -61 41 -61 41 -49 c 2,9,-1
 39 71 l 2,10,11
 39 77 39 77 41.5 84.5 c 128,-1,12
 44 92 44 92 50 92 c 2,13,-1
 70 92 l 2,14,15
 76 92 76 92 79 84 c 2,16,-1
 82 71 l 1,17,18
 85 38 85 38 81 9 c 256,19,20
 77 -20 77 -20 76 -35 c 128,-1,21
 75 -50 75 -50 74 -52 c 0,0,1
EndSplineSet
EndChar

StartChar: hyphen
Encoding: 45 45 16
Width: 231
GlyphClass: 2
Flags: W
LayerCount: 2
Back
Fore
SplineSet
48 168 m 2,0,1
 40 168 40 168 33 171 c 0,2,3
 27 174 27 174 27 178 c 2,4,-1
 27 198 l 2,5,6
 27 203 27 203 33 205 c 0,7,8
 40 208 40 208 48 208 c 2,9,-1
 183 208 l 2,10,11
 191 208 191 208 197 205 c 0,12,13
 204 204 204 204 204 198 c 2,14,-1
 204 178 l 2,15,16
 204 174 204 174 197 171 c 0,17,18
 191 168 191 168 183 168 c 2,19,-1
 48 168 l 2,0,1
EndSplineSet
EndChar

StartChar: period
Encoding: 46 46 17
Width: 126
GlyphClass: 2
Flags: W
LayerCount: 2
Back
Fore
SplineSet
44 0 m 2,0,1
 38 0 38 0 35 6.5 c 128,-1,2
 32 13 32 13 32 19 c 2,3,-1
 32 74 l 2,4,5
 32 80 32 80 35 86.5 c 128,-1,6
 38 93 38 93 44 93 c 2,7,-1
 64 93 l 2,8,9
 70 93 70 93 73 86.5 c 128,-1,10
 76 80 76 80 76 74 c 2,11,-1
 76 19 l 2,12,13
 76 13 76 13 73 6.5 c 128,-1,14
 70 0 70 0 64 0 c 2,15,-1
 44 0 l 2,0,1
EndSplineSet
EndChar

StartChar: slash
Encoding: 47 47 18
Width: 248
GlyphClass: 2
Flags: W
LayerCount: 2
Back
Fore
SplineSet
78 -10 m 2,0,1
 77 -14 77 -14 71 -21 c 0,2,3
 66 -27 66 -27 56 -27 c 2,4,-1
 49 -27 l 2,5,6
 37 -27 37 -27 31 -18 c 0,7,8
 25 -10 25 -10 30 4 c 2,9,-1
 158 416 l 1,10,-1
 164 428 l 2,11,12
 168 434 168 434 179 434 c 2,13,-1
 187 434 l 2,14,15
 199 434 199 434 202.5 427 c 128,-1,16
 206 420 206 420 206 412 c 0,17,18
 206 405 206 405 205 403 c 2,19,-1
 78 -10 l 2,0,1
EndSplineSet
EndChar

StartChar: zero
Encoding: 48 48 19
Width: 308
GlyphClass: 2
Flags: W
LayerCount: 2
Back
Fore
SplineSet
125 0 m 2,0,1
 85 0 85 0 60.5 26 c 128,-1,2
 36 52 36 52 36 95 c 2,3,-1
 36 310 l 2,4,5
 36 352 36 352 60.5 378 c 128,-1,6
 85 404 85 404 125 404 c 2,7,-1
 179 404 l 2,8,9
 221 404 221 404 244.5 378 c 128,-1,10
 268 352 268 352 268 310 c 2,11,-1
 268 95 l 2,12,13
 268 52 268 52 244.5 26 c 128,-1,14
 221 0 221 0 179 0 c 2,15,-1
 125 0 l 2,0,1
221 309 m 2,16,17
 221 356 221 356 179 356 c 2,18,-1
 125 356 l 2,19,20
 84 356 84 356 84 309 c 2,21,-1
 84 96 l 2,22,23
 84 48 84 48 125 48 c 2,24,-1
 179 48 l 2,25,26
 221 48 221 48 221 96 c 2,27,-1
 221 309 l 2,16,17
EndSplineSet
EndChar

StartChar: one
Encoding: 49 49 20
Width: 184
GlyphClass: 2
Flags: W
LayerCount: 2
Back
Fore
SplineSet
115 0 m 2,0,1
 105 0 105 0 101 7 c 128,-1,2
 97 14 97 14 97 21 c 2,3,-1
 97 341 l 1,4,-1
 55 311 l 2,5,6
 51 310 51 310 46 308.5 c 128,-1,7
 41 307 41 307 36.5 307 c 128,-1,8
 32 307 32 307 28.5 311.5 c 128,-1,9
 25 316 25 316 25 327 c 2,10,-1
 25 331 l 2,11,12
 25 348 25 348 37 356 c 2,13,-1
 101 399 l 2,14,15
 109 404 109 404 116 404 c 2,16,-1
 122 404 l 2,17,18
 131 404 131 404 135 397 c 128,-1,19
 139 390 139 390 139 383 c 2,20,-1
 139 21 l 2,21,22
 139 14 139 14 135 7 c 128,-1,23
 131 0 131 0 122 0 c 2,24,-1
 115 0 l 2,0,1
EndSplineSet
EndChar

StartChar: two
Encoding: 50 50 21
Width: 285
GlyphClass: 2
Flags: W
LayerCount: 2
Back
Fore
SplineSet
54 0 m 2,0,1
 46 0 46 0 40 5 c 128,-1,2
 34 10 34 10 34 21 c 2,3,-1
 34 70 l 2,4,5
 34 123 34 123 73 153 c 2,6,-1
 182 239 l 2,7,8
 205 257 205 257 205 287 c 2,9,-1
 205 311 l 2,10,11
 205 356 205 356 164 356 c 2,12,-1
 118 356 l 2,13,14
 78 356 78 356 78 311 c 2,15,-1
 78 284 l 2,16,17
 78 276 78 276 73 269 c 128,-1,18
 68 262 68 262 58 262 c 2,19,-1
 50 262 l 2,20,21
 40 262 40 262 35.5 269 c 128,-1,22
 31 276 31 276 31 284 c 2,23,-1
 31 311 l 2,24,25
 31 356 31 356 55.5 380 c 128,-1,26
 80 404 80 404 118 404 c 2,27,-1
 164 404 l 2,28,29
 204 404 204 404 227.5 380 c 128,-1,30
 251 356 251 356 251 311 c 2,31,-1
 251 286 l 2,32,33
 251 234 251 234 211 201 c 2,34,-1
 101 114 l 2,35,36
 80 97 80 97 80 72 c 2,37,-1
 80 48 l 1,38,-1
 234 48 l 2,39,40
 253 48 253 48 253 28 c 2,41,-1
 253 21 l 2,42,43
 253 0 253 0 234 0 c 2,44,-1
 54 0 l 2,0,1
EndSplineSet
EndChar

StartChar: three
Encoding: 51 51 22
Width: 297
GlyphClass: 2
Flags: W
LayerCount: 2
Back
Fore
SplineSet
124 0 m 2,0,1
 84 0 84 0 60 24 c 128,-1,2
 36 48 36 48 36 93 c 2,3,-1
 36 122 l 2,4,5
 36 129 36 129 40.5 136 c 128,-1,6
 45 143 45 143 55 143 c 2,7,-1
 64 143 l 2,8,9
 74 143 74 143 78.5 136 c 128,-1,10
 83 129 83 129 83 122 c 2,11,-1
 83 93 l 2,12,13
 83 48 83 48 124 48 c 2,14,-1
 171 48 l 2,15,16
 211 48 211 48 211 93 c 2,17,-1
 211 134 l 2,18,19
 211 179 211 179 171 179 c 2,20,-1
 137 179 l 2,21,22
 129 179 129 179 123 184.5 c 128,-1,23
 117 190 117 190 117 200 c 2,24,-1
 117 207 l 2,25,26
 117 217 117 217 123 222 c 128,-1,27
 129 227 129 227 137 227 c 2,28,-1
 171 227 l 2,29,30
 211 227 211 227 211 273 c 2,31,-1
 211 311 l 2,32,33
 211 356 211 356 171 356 c 2,34,-1
 124 356 l 2,35,36
 83 356 83 356 83 311 c 2,37,-1
 83 289 l 2,38,39
 83 281 83 281 78.5 274.5 c 128,-1,40
 74 268 74 268 64 268 c 2,41,-1
 55 268 l 2,42,43
 45 268 45 268 40.5 274.5 c 128,-1,44
 36 281 36 281 36 289 c 2,45,-1
 36 311 l 2,46,47
 36 356 36 356 60 380 c 128,-1,48
 84 404 84 404 124 404 c 2,49,-1
 171 404 l 2,50,51
 210 404 210 404 234 380 c 128,-1,52
 258 356 258 356 258 311 c 2,53,-1
 258 273 l 2,54,55
 258 226 258 226 231 204 c 1,56,57
 258 181 258 181 258 135 c 2,58,-1
 258 93 l 2,59,60
 258 48 258 48 234 24 c 128,-1,61
 210 0 210 0 171 0 c 2,62,-1
 124 0 l 2,0,1
EndSplineSet
EndChar

StartChar: four
Encoding: 52 52 23
Width: 313
GlyphClass: 2
Flags: W
LayerCount: 2
Back
Fore
SplineSet
244 78 m 1,0,-1
 244 21 l 2,1,2
 244 13 244 13 239.5 6.5 c 128,-1,3
 235 0 235 0 225 0 c 2,4,-1
 217 0 l 2,5,6
 206 0 206 0 201.5 6.5 c 128,-1,7
 197 13 197 13 197 21 c 2,8,-1
 197 78 l 1,9,-1
 45 78 l 2,10,11
 37 78 37 78 30.5 83 c 128,-1,12
 24 88 24 88 24 99 c 2,13,-1
 24 106 l 2,14,15
 24 111 24 111 26.5 115.5 c 128,-1,16
 29 120 29 120 30 123 c 2,17,-1
 185 390 l 2,18,19
 193 404 193 404 209 404 c 2,20,-1
 225 404 l 2,21,22
 235 404 235 404 239.5 397.5 c 128,-1,23
 244 391 244 391 244 383 c 2,24,-1
 244 126 l 1,25,-1
 271 126 l 2,26,27
 279 126 279 126 285.5 121 c 128,-1,28
 292 116 292 116 292 106 c 2,29,-1
 292 99 l 2,30,31
 292 88 292 88 285.5 83 c 128,-1,32
 279 78 279 78 271 78 c 2,33,-1
 244 78 l 1,0,-1
197 318 m 1,34,-1
 86 126 l 1,35,-1
 197 126 l 1,36,-1
 197 318 l 1,34,-1
EndSplineSet
EndChar

StartChar: five
Encoding: 53 53 24
Width: 284
GlyphClass: 2
Flags: W
LayerCount: 2
Back
Fore
SplineSet
122 0 m 2,0,1
 80 0 80 0 57 26 c 128,-1,2
 34 52 34 52 34 95 c 2,3,-1
 34 118 l 2,4,5
 34 126 34 126 38.5 132.5 c 128,-1,6
 43 139 43 139 53 139 c 2,7,-1
 61 139 l 2,8,9
 71 139 71 139 76 132.5 c 128,-1,10
 81 126 81 126 81 118 c 2,11,-1
 81 96 l 2,12,13
 81 48 81 48 122 48 c 2,14,-1
 164 48 l 2,15,16
 205 48 205 48 205 96 c 2,17,-1
 205 169 l 2,18,19
 205 194 205 194 195 204.5 c 128,-1,20
 185 215 185 215 164 215 c 2,21,-1
 112 215 l 2,22,23
 100 215 100 215 95 212 c 128,-1,24
 90 209 90 209 88 205 c 0,25,26
 83 200 83 200 81 193 c 0,27,28
 78 190 78 190 74 187 c 128,-1,29
 70 184 70 184 63 184 c 2,30,-1
 53 184 l 2,31,32
 43 184 43 184 38.5 191 c 128,-1,33
 34 198 34 198 34 205 c 2,34,-1
 34 383 l 2,35,36
 34 390 34 390 38.5 397 c 128,-1,37
 43 404 43 404 53 404 c 2,38,-1
 226 404 l 2,39,40
 246 404 246 404 246 383 c 2,41,-1
 246 377 l 2,42,43
 246 356 246 356 226 356 c 2,44,-1
 81 356 l 1,45,-1
 81 257 l 1,46,47
 91 263 91 263 112 263 c 2,48,-1
 164 263 l 2,49,50
 204 263 204 263 228 239 c 128,-1,51
 252 215 252 215 252 169 c 2,52,-1
 252 95 l 2,53,54
 252 52 252 52 228 26 c 128,-1,55
 204 0 204 0 164 0 c 2,56,-1
 122 0 l 2,0,1
EndSplineSet
EndChar

StartChar: six
Encoding: 54 54 25
Width: 291
GlyphClass: 2
Flags: W
LayerCount: 2
Back
Fore
SplineSet
120 0 m 2,0,1
 80 0 80 0 56 26 c 128,-1,2
 32 52 32 52 32 95 c 2,3,-1
 32 310 l 2,4,5
 32 352 32 352 56 378 c 128,-1,6
 80 404 80 404 120 404 c 2,7,-1
 221 404 l 2,8,9
 229 404 229 404 235.5 399 c 128,-1,10
 242 394 242 394 242 383 c 2,11,-1
 242 377 l 2,12,13
 242 367 242 367 235.5 361.5 c 128,-1,14
 229 356 229 356 221 356 c 2,15,-1
 120 356 l 2,16,17
 79 356 79 356 79 309 c 2,18,-1
 79 251 l 1,19,-1
 169 251 l 2,20,21
 211 251 211 251 234.5 225 c 128,-1,22
 258 199 258 199 258 156 c 2,23,-1
 258 95 l 2,24,25
 258 52 258 52 234.5 26 c 128,-1,26
 211 0 211 0 169 0 c 2,27,-1
 120 0 l 2,0,1
211 155 m 2,28,29
 211 202 211 202 169 202 c 2,30,-1
 79 202 l 1,31,-1
 79 96 l 2,32,33
 79 48 79 48 120 48 c 2,34,-1
 169 48 l 2,35,36
 211 48 211 48 211 96 c 2,37,-1
 211 155 l 2,28,29
EndSplineSet
EndChar

StartChar: seven
Encoding: 55 55 26
Width: 223
GlyphClass: 2
Flags: W
LayerCount: 2
Back
Fore
SplineSet
95 17 m 2,0,1
 92 7 92 7 85.5 3.5 c 128,-1,2
 79 0 79 0 73 0 c 2,3,-1
 67 0 l 2,4,5
 58 0 58 0 54.5 3.5 c 128,-1,6
 51 7 51 7 49.5 12 c 128,-1,7
 48 17 48 17 48.5 22 c 128,-1,8
 49 27 49 27 49 29 c 2,9,-1
 161 356 l 1,10,-1
 27 356 l 2,11,12
 19 356 19 356 13 361.5 c 128,-1,13
 7 367 7 367 7 377 c 2,14,-1
 7 383 l 2,15,16
 7 394 7 394 13 399 c 128,-1,17
 19 404 19 404 27 404 c 2,18,-1
 195 404 l 2,19,20
 203 404 203 404 209.5 399 c 128,-1,21
 216 394 216 394 216 383 c 2,22,-1
 216 378 l 2,23,24
 216 370 216 370 213 364 c 2,25,-1
 95 17 l 2,0,1
EndSplineSet
EndChar

StartChar: eight
Encoding: 56 56 27
Width: 297
GlyphClass: 2
Flags: W
LayerCount: 2
Back
Fore
SplineSet
118 0 m 2,0,1
 78 0 78 0 53.5 24 c 128,-1,2
 29 48 29 48 29 93 c 2,3,-1
 29 135 l 2,4,5
 29 178 29 178 56 204 c 1,6,7
 29 228 29 228 29 273 c 2,8,-1
 29 311 l 2,9,10
 29 356 29 356 53.5 380 c 128,-1,11
 78 404 78 404 118 404 c 2,12,-1
 176 404 l 2,13,14
 216 404 216 404 240 380 c 128,-1,15
 264 356 264 356 264 311 c 2,16,-1
 264 273 l 2,17,18
 264 227 264 227 238 204 c 1,19,20
 264 178 264 178 264 135 c 2,21,-1
 264 93 l 2,22,23
 264 48 264 48 240 24 c 128,-1,24
 216 0 216 0 176 0 c 2,25,-1
 118 0 l 2,0,1
217 311 m 2,26,27
 217 356 217 356 176 356 c 2,28,-1
 118 356 l 2,29,30
 77 356 77 356 77 311 c 2,31,-1
 77 273 l 2,32,33
 77 227 77 227 118 227 c 2,34,-1
 176 227 l 2,35,36
 217 227 217 227 217 273 c 2,37,-1
 217 311 l 2,26,27
217 134 m 2,38,39
 217 179 217 179 176 179 c 2,40,-1
 118 179 l 2,41,42
 77 179 77 179 77 134 c 2,43,-1
 77 93 l 2,44,45
 77 48 77 48 118 48 c 2,46,-1
 176 48 l 2,47,48
 217 48 217 48 217 93 c 2,49,-1
 217 134 l 2,38,39
EndSplineSet
EndChar

StartChar: nine
Encoding: 57 57 28
Width: 284
GlyphClass: 2
Flags: W
LayerCount: 2
Back
Fore
SplineSet
66 0 m 2,0,1
 59 0 59 0 52.5 5 c 128,-1,2
 46 10 46 10 46 21 c 2,3,-1
 46 28 l 2,4,5
 46 38 46 38 52.5 43 c 128,-1,6
 59 48 59 48 66 48 c 2,7,-1
 167 48 l 2,8,9
 208 48 208 48 208 96 c 2,10,-1
 208 153 l 1,11,-1
 117 153 l 2,12,13
 77 153 77 153 53 179 c 128,-1,14
 29 205 29 205 29 248 c 2,15,-1
 29 310 l 2,16,17
 29 352 29 352 53 378 c 128,-1,18
 77 404 77 404 117 404 c 2,19,-1
 167 404 l 2,20,21
 207 404 207 404 231.5 378 c 128,-1,22
 256 352 256 352 256 310 c 2,23,-1
 256 95 l 2,24,25
 256 52 256 52 231.5 26 c 128,-1,26
 207 0 207 0 167 0 c 2,27,-1
 66 0 l 2,0,1
117 356 m 2,28,29
 76 356 76 356 76 309 c 2,30,-1
 76 249 l 2,31,32
 76 202 76 202 117 202 c 2,33,-1
 208 202 l 1,34,-1
 208 309 l 2,35,36
 208 356 208 356 167 356 c 2,37,-1
 117 356 l 2,28,29
EndSplineSet
EndChar

StartChar: colon
Encoding: 58 58 29
Width: 110
GlyphClass: 2
Flags: W
LayerCount: 2
Back
Fore
SplineSet
44 245 m 2,0,1
 39 245 39 245 36 253 c 0,2,3
 32 257 32 257 32 268 c 2,4,-1
 32 321 l 2,5,6
 32 330 32 330 36 337 c 0,7,8
 39 344 39 344 44 344 c 2,9,-1
 64 344 l 2,10,11
 69 344 69 344 72 337 c 0,12,13
 76 332 76 332 76 321 c 2,14,-1
 76 268 l 2,15,16
 76 258 76 258 72 253 c 0,17,18
 69 245 69 245 64 245 c 2,19,-1
 44 245 l 2,0,1
44 0 m 2,20,21
 40 0 40 0 35 8 c 0,22,23
 32 11 32 11 32 22 c 2,24,-1
 32 80 l 2,25,26
 32 87 32 87 35 95 c 256,27,28
 38 103 38 103 44 103 c 2,29,-1
 64 103 l 2,30,31
 68 103 68 103 73 95 c 0,32,33
 76 92 76 92 76 80 c 2,34,-1
 76 22 l 2,35,36
 76 15 76 15 73 8 c 0,37,38
 70 0 70 0 64 0 c 2,39,-1
 44 0 l 2,20,21
EndSplineSet
EndChar

StartChar: semicolon
Encoding: 59 59 30
Width: 109
GlyphClass: 2
Flags: W
LayerCount: 2
Back
Fore
SplineSet
68 -52 m 0,0,1
 68 -59 68 -59 62 -65 c 0,2,3
 55 -69 55 -69 52 -69 c 0,4,5
 50 -68 50 -68 47 -67.5 c 128,-1,6
 44 -67 44 -67 41 -65 c 0,7,8
 35 -61 35 -61 35 -49 c 2,9,-1
 33 71 l 2,10,11
 33 77 33 77 35.5 84.5 c 128,-1,12
 38 92 38 92 44 92 c 2,13,-1
 64 92 l 2,14,15
 70 92 70 92 73 84 c 2,16,-1
 76 71 l 1,17,18
 79 38 79 38 75 9 c 256,19,20
 71 -20 71 -20 70 -35 c 128,-1,21
 69 -50 69 -50 68 -52 c 0,0,1
44 245 m 2,22,23
 39 245 39 245 36 253 c 0,24,25
 32 257 32 257 32 268 c 2,26,-1
 32 321 l 2,27,28
 32 330 32 330 36 337 c 0,29,30
 39 344 39 344 44 344 c 2,31,-1
 64 344 l 2,32,33
 69 344 69 344 72 337 c 0,34,35
 76 332 76 332 76 321 c 2,36,-1
 76 268 l 2,37,38
 76 258 76 258 72 253 c 0,39,40
 69 245 69 245 64 245 c 2,41,-1
 44 245 l 2,22,23
EndSplineSet
EndChar

StartChar: less
Encoding: 60 60 31
Width: 353
GlyphClass: 2
Flags: W
LayerCount: 2
Back
Fore
SplineSet
30 189 m 2,0,1
 25 190 25 190 18 197 c 0,2,3
 13 202 13 202 13 211 c 2,4,-1
 13 222 l 2,5,6
 13 231 13 231 18 236 c 0,7,8
 25 243 25 243 30 244 c 2,9,-1
 296 344 l 2,10,11
 305 348 305 348 315 343 c 0,12,13
 324 338 324 338 324 325 c 2,14,-1
 324 317 l 2,15,16
 324 300 324 300 310 295 c 2,17,-1
 92 217 l 1,18,-1
 310 148 l 2,19,20
 313 147 313 147 319 141 c 0,21,22
 324 136 324 136 324 127 c 2,23,-1
 324 118 l 2,24,25
 324 104 324 104 314 100 c 0,26,27
 309 96 309 96 295 101 c 2,28,-1
 30 189 l 2,0,1
EndSplineSet
EndChar

StartChar: equal
Encoding: 61 61 32
Width: 383
GlyphClass: 2
Flags: W
LayerCount: 2
Back
Fore
SplineSet
58 268 m 2,0,1
 52 268 52 268 44 273 c 0,2,3
 37 277 37 277 37 288 c 2,4,-1
 37 295 l 2,5,6
 37 307 37 307 44 310 c 0,7,8
 55 314 55 314 58 314 c 2,9,-1
 316 314 l 2,10,11
 324 314 324 314 331 310 c 256,12,13
 338 306 338 306 338 295 c 2,14,-1
 338 288 l 2,15,16
 338 280 338 280 331 273 c 0,17,18
 326 268 326 268 316 268 c 2,19,-1
 58 268 l 2,0,1
58 148 m 2,20,21
 49 148 49 148 44 153 c 0,22,23
 37 157 37 157 37 168 c 2,24,-1
 37 175 l 2,25,26
 37 186 37 186 44 189 c 0,27,28
 57 194 57 194 58 194 c 2,29,-1
 316 194 l 2,30,31
 323 194 323 194 331 189 c 0,32,33
 338 185 338 185 338 175 c 2,34,-1
 338 168 l 2,35,36
 338 160 338 160 331 153 c 0,37,38
 326 148 326 148 316 148 c 2,39,-1
 58 148 l 2,20,21
EndSplineSet
EndChar

StartChar: greater
Encoding: 62 62 33
Width: 398
GlyphClass: 2
Flags: W
LayerCount: 2
Back
Fore
SplineSet
65 101 m 2,0,1
 51 96 51 96 46 100 c 0,2,3
 36 104 36 104 36 118 c 2,4,-1
 36 127 l 2,5,6
 36 136 36 136 41 141 c 0,7,8
 47 147 47 147 50 148 c 2,9,-1
 268 217 l 1,10,-1
 50 295 l 2,11,12
 36 300 36 300 36 317 c 2,13,-1
 36 325 l 2,14,15
 36 338 36 338 45 343 c 0,16,17
 55 348 55 348 64 344 c 2,18,-1
 330 244 l 2,19,20
 335 243 335 243 342 236 c 0,21,22
 347 231 347 231 347 222 c 2,23,-1
 347 211 l 2,24,25
 347 202 347 202 342 197 c 0,26,27
 335 190 335 190 330 189 c 2,28,-1
 65 101 l 2,0,1
EndSplineSet
EndChar

StartChar: question
Encoding: 63 63 34
Width: 297
GlyphClass: 2
Flags: W
LayerCount: 2
Back
Fore
SplineSet
195 219 m 2,0,1
 187 212 187 212 183.5 206.5 c 128,-1,2
 180 201 180 201 178 198 c 0,3,4
 177 196 177 196 176.5 190 c 128,-1,5
 176 184 176 184 176 173 c 2,6,-1
 176 148 l 2,7,8
 176 141 176 141 171 133.5 c 128,-1,9
 166 126 166 126 155 126 c 2,10,-1
 148 126 l 2,11,12
 136 126 136 126 131 133.5 c 128,-1,13
 126 141 126 141 126 148 c 2,14,-1
 126 170 l 2,15,16
 126 198 126 198 134 219 c 0,17,18
 139 229 139 229 147.5 238.5 c 128,-1,19
 156 248 156 248 166 258 c 2,20,-1
 184 275 l 2,21,22
 202 293 202 293 202 312 c 2,23,-1
 202 333 l 2,24,25
 202 382 202 382 158 382 c 2,26,-1
 131 382 l 2,27,28
 88 382 88 382 88 333 c 2,29,-1
 88 304 l 2,30,31
 88 296 88 296 83 288.5 c 128,-1,32
 78 281 78 281 68 281 c 2,33,-1
 59 281 l 2,34,35
 49 281 49 281 44 288.5 c 128,-1,36
 39 296 39 296 39 304 c 2,37,-1
 39 334 l 2,38,39
 39 380 39 380 64 406.5 c 128,-1,40
 89 433 89 433 131 433 c 2,41,-1
 158 433 l 2,42,43
 200 433 200 433 225.5 406.5 c 128,-1,44
 251 380 251 380 251 334 c 2,45,-1
 251 311 l 2,46,47
 251 268 251 268 218 239 c 2,48,-1
 195 219 l 2,0,1
145 0 m 2,49,50
 134 0 134 0 129 7.5 c 128,-1,51
 124 15 124 15 124 22 c 2,52,-1
 124 80 l 2,53,54
 124 88 124 88 129 96 c 128,-1,55
 134 104 134 104 145 104 c 2,56,-1
 157 104 l 2,57,58
 167 104 167 104 172 96 c 128,-1,59
 177 88 177 88 177 80 c 2,60,-1
 177 22 l 2,61,62
 177 15 177 15 172 7.5 c 128,-1,63
 167 0 167 0 157 0 c 2,64,-1
 145 0 l 2,49,50
EndSplineSet
EndChar

StartChar: at
Encoding: 64 64 35
Width: 479
GlyphClass: 2
Flags: W
LayerCount: 2
Back
Fore
SplineSet
433 150 m 2,0,1
 433 104 433 104 406 76.5 c 128,-1,2
 379 49 379 49 333 49 c 2,3,-1
 319 49 l 2,4,5
 299 49 299 49 290 65 c 1,6,7
 267 50 267 50 233 50 c 0,8,9
 187 50 187 50 160 77 c 128,-1,10
 133 104 133 104 133 152 c 2,11,-1
 133 216 l 2,12,13
 133 264 133 264 160 291 c 128,-1,14
 187 318 187 318 233 318 c 2,15,-1
 315 318 l 2,16,17
 326 318 326 318 331.5 310.5 c 128,-1,18
 337 303 337 303 337 295 c 2,19,-1
 337 100 l 1,20,21
 380 103 380 103 380 151 c 2,22,-1
 380 304 l 2,23,24
 380 355 380 355 333 355 c 2,25,-1
 214 355 l 2,26,27
 167 355 167 355 132 320 c 256,28,29
 97 285 97 285 97 232 c 2,30,-1
 97 136 l 2,31,32
 97 82 97 82 132 47 c 0,33,34
 166 13 166 13 214 13 c 2,35,-1
 328 13 l 2,36,37
 349 13 349 13 349 -10 c 2,38,-1
 349 -17 l 2,39,40
 349 -40 349 -40 328 -40 c 2,41,-1
 215 -40 l 2,42,43
 147 -40 147 -40 96 7 c 0,44,45
 69 31 69 31 56.5 63.5 c 128,-1,46
 44 96 44 96 44 137 c 2,47,-1
 44 231 l 2,48,49
 44 271 44 271 56.5 303.5 c 128,-1,50
 69 336 69 336 96 360 c 0,51,52
 147 407 147 407 215 407 c 2,53,-1
 333 407 l 2,54,55
 379 407 379 407 406 379 c 128,-1,56
 433 351 433 351 433 305 c 2,57,-1
 433 150 l 2,0,1
292 258 m 2,58,59
 292 274 292 274 275 273 c 2,60,-1
 238 270 l 2,61,62
 211 268 211 268 195 256 c 128,-1,63
 179 244 179 244 179 215 c 2,64,-1
 179 152 l 2,65,66
 179 94 179 94 233 94 c 2,67,-1
 234 94 l 2,68,69
 292 94 292 94 292 149 c 2,70,-1
 292 258 l 2,58,59
EndSplineSet
EndChar

StartChar: A
Encoding: 65 65 36
Width: 320
GlyphClass: 2
Flags: W
LayerCount: 2
Back
Fore
SplineSet
275 0 m 2,0,1
 265 0 265 0 260 7 c 128,-1,2
 255 14 255 14 253 19 c 2,3,-1
 225 104 l 1,4,-1
 93 104 l 1,5,-1
 63 17 l 2,6,7
 61 10 61 10 55 5 c 128,-1,8
 49 0 49 0 41 0 c 2,9,-1
 34 0 l 2,10,11
 21 0 21 0 16 10 c 128,-1,12
 11 20 11 20 14 28 c 2,13,-1
 130 386 l 2,14,15
 132 390 132 390 136.5 397 c 128,-1,16
 141 404 141 404 152 404 c 2,17,-1
 165 404 l 2,18,19
 182 404 182 404 188 387 c 2,20,-1
 304 28 l 2,21,22
 307 20 307 20 302 10 c 128,-1,23
 297 0 297 0 284 0 c 2,24,-1
 275 0 l 2,0,1
158 313 m 1,25,26
 153 295 153 295 146.5 273 c 128,-1,27
 140 251 140 251 133.5 230 c 128,-1,28
 127 209 127 209 121 190 c 128,-1,29
 115 171 115 171 111 158 c 1,30,-1
 207 158 l 1,31,-1
 158 313 l 1,25,26
EndSplineSet
EndChar

StartChar: B
Encoding: 66 66 37
Width: 316
GlyphClass: 2
Flags: W
LayerCount: 2
Back
Fore
SplineSet
61 0 m 2,0,1
 50 0 50 0 44.5 6.5 c 128,-1,2
 39 13 39 13 39 22 c 2,3,-1
 39 381 l 2,4,5
 39 390 39 390 44 397 c 128,-1,6
 49 404 49 404 61 404 c 2,7,-1
 185 404 l 2,8,9
 227 404 227 404 251 379.5 c 128,-1,10
 275 355 275 355 275 310 c 2,11,-1
 275 273 l 2,12,13
 275 229 275 229 249 206 c 1,14,15
 262 194 262 194 270.5 176 c 128,-1,16
 279 158 279 158 279 136 c 2,17,-1
 279 94 l 2,18,19
 279 49 279 49 254 24.5 c 128,-1,20
 229 0 229 0 189 0 c 2,21,-1
 61 0 l 2,0,1
225 310 m 2,22,23
 225 353 225 353 185 353 c 2,24,-1
 90 353 l 1,25,-1
 90 230 l 1,26,-1
 185 230 l 2,27,28
 204 230 204 230 214.5 240 c 128,-1,29
 225 250 225 250 225 274 c 2,30,-1
 225 310 l 2,22,23
227 136 m 2,31,32
 227 158 227 158 218 168.5 c 128,-1,33
 209 179 209 179 185 179 c 2,34,-1
 90 179 l 1,35,-1
 90 51 l 1,36,-1
 189 51 l 2,37,38
 227 51 227 51 227 94 c 2,39,-1
 227 136 l 2,31,32
EndSplineSet
EndChar

StartChar: C
Encoding: 67 67 38
Width: 317
GlyphClass: 2
Flags: W
LayerCount: 2
Back
Fore
SplineSet
124 0 m 2,0,1
 82 0 82 0 58 25.5 c 128,-1,2
 34 51 34 51 34 96 c 2,3,-1
 34 308 l 2,4,5
 34 351 34 351 58 377.5 c 128,-1,6
 82 404 82 404 124 404 c 2,7,-1
 195 404 l 2,8,9
 237 404 237 404 260.5 377.5 c 128,-1,10
 284 351 284 351 284 308 c 2,11,-1
 284 281 l 2,12,13
 284 274 284 274 280 265.5 c 128,-1,14
 276 257 276 257 263 257 c 2,15,-1
 256 257 l 2,16,17
 244 257 244 257 239 264.5 c 128,-1,18
 234 272 234 272 234 281 c 2,19,-1
 234 308 l 2,20,21
 234 353 234 353 195 353 c 2,22,-1
 124 353 l 2,23,24
 85 353 85 353 85 308 c 2,25,-1
 85 97 l 2,26,27
 85 51 85 51 124 51 c 2,28,-1
 195 51 l 2,29,30
 234 51 234 51 234 97 c 2,31,-1
 234 124 l 2,32,33
 234 146 234 146 256 146 c 2,34,-1
 263 146 l 2,35,36
 274 146 274 146 279 138.5 c 128,-1,37
 284 131 284 131 284 124 c 2,38,-1
 284 96 l 2,39,40
 284 51 284 51 260.5 25.5 c 128,-1,41
 237 0 237 0 195 0 c 2,42,-1
 124 0 l 2,0,1
EndSplineSet
EndChar

StartChar: D
Encoding: 68 68 39
Width: 330
GlyphClass: 2
Flags: W
LayerCount: 2
Back
Fore
SplineSet
63 0 m 2,0,1
 53 0 53 0 47.5 6.5 c 128,-1,2
 42 13 42 13 42 22 c 2,3,-1
 42 381 l 2,4,5
 42 390 42 390 47 397 c 128,-1,6
 52 404 52 404 63 404 c 2,7,-1
 197 404 l 2,8,9
 239 404 239 404 262.5 377.5 c 128,-1,10
 286 351 286 351 286 308 c 2,11,-1
 286 96 l 2,12,13
 286 51 286 51 262.5 25.5 c 128,-1,14
 239 0 239 0 197 0 c 2,15,-1
 63 0 l 2,0,1
236 308 m 2,16,17
 236 353 236 353 197 353 c 2,18,-1
 93 353 l 1,19,-1
 93 51 l 1,20,-1
 197 51 l 2,21,22
 236 51 236 51 236 97 c 2,23,-1
 236 308 l 2,16,17
EndSplineSet
EndChar

StartChar: E
Encoding: 69 69 40
Width: 278
GlyphClass: 2
Flags: W
LayerCount: 2
Back
Fore
SplineSet
62 0 m 2,0,1
 52 0 52 0 46.5 6.5 c 128,-1,2
 41 13 41 13 41 22 c 2,3,-1
 41 381 l 2,4,5
 41 389 41 389 46 396.5 c 128,-1,6
 51 404 51 404 62 404 c 2,7,-1
 222 404 l 2,8,9
 232 404 232 404 237.5 397.5 c 128,-1,10
 243 391 243 391 243 382 c 2,11,-1
 243 375 l 2,12,13
 243 364 243 364 236 358.5 c 128,-1,14
 229 353 229 353 222 353 c 2,15,-1
 90 353 l 1,16,-1
 90 231 l 1,17,-1
 209 231 l 2,18,19
 216 231 216 231 223 225.5 c 128,-1,20
 230 220 230 220 230 209 c 2,21,-1
 230 202 l 2,22,23
 230 193 230 193 224.5 186.5 c 128,-1,24
 219 180 219 180 209 180 c 2,25,-1
 90 180 l 1,26,-1
 90 51 l 1,27,-1
 222 51 l 2,28,29
 232 51 232 51 237.5 44.5 c 128,-1,30
 243 38 243 38 243 29 c 2,31,-1
 243 22 l 2,32,33
 243 11 243 11 236 5.5 c 128,-1,34
 229 0 229 0 222 0 c 2,35,-1
 62 0 l 2,0,1
EndSplineSet
EndChar

StartChar: F
Encoding: 70 70 41
Width: 266
GlyphClass: 2
Flags: W
LayerCount: 2
Back
Fore
SplineSet
87 353 m 1,0,-1
 87 226 l 1,1,-1
 205 226 l 2,2,3
 212 226 212 226 219 220.5 c 128,-1,4
 226 215 226 215 226 205 c 2,5,-1
 226 198 l 2,6,7
 226 186 226 186 219 180.5 c 128,-1,8
 212 175 212 175 205 175 c 2,9,-1
 87 175 l 1,10,-1
 87 22 l 2,11,12
 87 15 87 15 82 7.5 c 128,-1,13
 77 0 77 0 66 0 c 2,14,-1
 59 0 l 2,15,16
 48 0 48 0 42.5 6.5 c 128,-1,17
 37 13 37 13 37 22 c 2,18,-1
 37 381 l 2,19,20
 37 389 37 389 42.5 396.5 c 128,-1,21
 48 404 48 404 59 404 c 2,22,-1
 219 404 l 2,23,24
 229 404 229 404 234.5 397.5 c 128,-1,25
 240 391 240 391 240 382 c 2,26,-1
 240 375 l 2,27,28
 240 364 240 364 233 358.5 c 128,-1,29
 226 353 226 353 219 353 c 2,30,-1
 87 353 l 1,0,-1
EndSplineSet
EndChar

StartChar: G
Encoding: 71 71 42
Width: 306
GlyphClass: 2
Flags: W
LayerCount: 2
Back
Fore
SplineSet
120 0 m 2,0,1
 78 0 78 0 55 25.5 c 128,-1,2
 32 51 32 51 32 96 c 2,3,-1
 32 308 l 2,4,5
 32 351 32 351 55 377.5 c 128,-1,6
 78 404 78 404 120 404 c 2,7,-1
 181 404 l 2,8,9
 223 404 223 404 246 377.5 c 128,-1,10
 269 351 269 351 269 308 c 2,11,-1
 269 281 l 2,12,13
 269 272 269 272 264 264.5 c 128,-1,14
 259 257 259 257 248 257 c 2,15,-1
 240 257 l 2,16,17
 227 257 227 257 223 265.5 c 128,-1,18
 219 274 219 274 219 281 c 2,19,-1
 219 308 l 2,20,21
 219 353 219 353 181 353 c 2,22,-1
 120 353 l 2,23,24
 82 353 82 353 82 308 c 2,25,-1
 82 97 l 2,26,27
 82 51 82 51 120 51 c 2,28,-1
 181 51 l 2,29,30
 219 51 219 51 219 97 c 2,31,-1
 219 171 l 1,32,-1
 161 171 l 2,33,34
 152 171 152 171 146.5 177 c 128,-1,35
 141 183 141 183 141 192 c 2,36,-1
 141 199 l 2,37,38
 141 206 141 206 145.5 214 c 128,-1,39
 150 222 150 222 161 222 c 2,40,-1
 242 222 l 2,41,42
 255 222 255 222 262 213.5 c 128,-1,43
 269 205 269 205 269 193 c 2,44,-1
 269 96 l 2,45,46
 269 51 269 51 246 25.5 c 128,-1,47
 223 0 223 0 181 0 c 2,48,-1
 120 0 l 2,0,1
EndSplineSet
EndChar

StartChar: H
Encoding: 72 72 43
Width: 326
GlyphClass: 2
Flags: W
LayerCount: 2
Back
Fore
SplineSet
253 0 m 2,0,1
 243 0 243 0 237 6.5 c 128,-1,2
 231 13 231 13 231 22 c 2,3,-1
 231 180 l 1,4,-1
 89 180 l 1,5,-1
 89 22 l 2,6,7
 89 15 89 15 83.5 7.5 c 128,-1,8
 78 0 78 0 67 0 c 2,9,-1
 59 0 l 2,10,11
 48 0 48 0 42.5 6.5 c 128,-1,12
 37 13 37 13 37 22 c 2,13,-1
 37 381 l 2,14,15
 37 390 37 390 42.5 397 c 128,-1,16
 48 404 48 404 59 404 c 2,17,-1
 67 404 l 2,18,19
 80 404 80 404 84.5 396 c 128,-1,20
 89 388 89 388 89 381 c 2,21,-1
 89 231 l 1,22,-1
 231 231 l 1,23,-1
 231 381 l 2,24,25
 231 390 231 390 236 397 c 128,-1,26
 241 404 241 404 253 404 c 2,27,-1
 260 404 l 2,28,29
 273 404 273 404 277 396 c 128,-1,30
 281 388 281 388 281 381 c 2,31,-1
 281 22 l 2,32,33
 281 15 281 15 276 7.5 c 128,-1,34
 271 0 271 0 260 0 c 2,35,-1
 253 0 l 2,0,1
EndSplineSet
EndChar

StartChar: I
Encoding: 73 73 44
Width: 113
GlyphClass: 2
Flags: W
LayerCount: 2
Back
Fore
SplineSet
50 0 m 2,0,1
 39 0 39 0 34.5 8 c 128,-1,2
 30 16 30 16 30 23 c 2,3,-1
 30 381 l 2,4,5
 30 389 30 389 34.5 396.5 c 128,-1,6
 39 404 39 404 50 404 c 2,7,-1
 58 404 l 2,8,9
 79 404 79 404 79 381 c 2,10,-1
 79 23 l 2,11,12
 79 0 79 0 58 0 c 2,13,-1
 50 0 l 2,0,1
EndSplineSet
EndChar

StartChar: J
Encoding: 74 74 45
Width: 284
GlyphClass: 2
Flags: W
LayerCount: 2
Back
Fore
SplineSet
106 0 m 2,0,1
 64 0 64 0 41 25.5 c 128,-1,2
 18 51 18 51 18 96 c 2,3,-1
 18 142 l 2,4,5
 18 149 18 149 23 157 c 128,-1,6
 28 165 28 165 38 165 c 2,7,-1
 46 165 l 2,8,9
 67 165 67 165 67 142 c 2,10,-1
 67 97 l 2,11,12
 67 51 67 51 106 51 c 2,13,-1
 159 51 l 2,14,15
 199 51 199 51 199 97 c 2,16,-1
 199 381 l 2,17,18
 199 387 199 387 203 395.5 c 128,-1,19
 207 404 207 404 220 404 c 2,20,-1
 228 404 l 2,21,22
 239 404 239 404 244 397 c 128,-1,23
 249 390 249 390 249 382 c 2,24,-1
 249 96 l 2,25,26
 249 51 249 51 225 25.5 c 128,-1,27
 201 0 201 0 159 0 c 2,28,-1
 106 0 l 2,0,1
EndSplineSet
EndChar

StartChar: K
Encoding: 75 75 46
Width: 310
GlyphClass: 2
Flags: W
LayerCount: 2
Back
Fore
SplineSet
260 0 m 2,0,1
 243 0 243 0 237 14 c 2,2,-1
 129 183 l 1,3,-1
 86 127 l 1,4,-1
 86 22 l 2,5,6
 86 15 86 15 80.5 7.5 c 128,-1,7
 75 0 75 0 64 0 c 2,8,-1
 57 0 l 2,9,10
 47 0 47 0 40.5 6.5 c 128,-1,11
 34 13 34 13 34 22 c 2,12,-1
 34 381 l 2,13,14
 34 390 34 390 39.5 397 c 128,-1,15
 45 404 45 404 57 404 c 2,16,-1
 64 404 l 2,17,18
 77 404 77 404 81.5 396 c 128,-1,19
 86 388 86 388 86 381 c 2,20,-1
 86 210 l 1,21,-1
 218 391 l 2,22,23
 222 396 222 396 227.5 400 c 128,-1,24
 233 404 233 404 240 404 c 2,25,-1
 251 404 l 2,26,27
 261 404 261 404 265 400.5 c 128,-1,28
 269 397 269 397 270 391.5 c 128,-1,29
 271 386 271 386 269.5 380.5 c 128,-1,30
 268 375 268 375 267 371 c 2,31,-1
 162 226 l 1,32,-1
 284 33 l 2,33,34
 290 24 290 24 287 12 c 128,-1,35
 284 0 284 0 267 0 c 2,36,-1
 260 0 l 2,0,1
EndSplineSet
EndChar

StartChar: L
Encoding: 76 76 47
Width: 265
GlyphClass: 2
Flags: W
LayerCount: 2
Back
Fore
SplineSet
56 0 m 2,0,1
 46 0 46 0 40 6.5 c 128,-1,2
 34 13 34 13 34 22 c 2,3,-1
 34 381 l 2,4,5
 34 389 34 389 39.5 396.5 c 128,-1,6
 45 404 45 404 56 404 c 2,7,-1
 63 404 l 2,8,9
 76 404 76 404 80.5 395.5 c 128,-1,10
 85 387 85 387 85 381 c 2,11,-1
 85 52 l 1,12,-1
 223 52 l 2,13,14
 233 52 233 52 238 44.5 c 128,-1,15
 243 37 243 37 243 30 c 2,16,-1
 243 22 l 2,17,18
 243 13 243 13 237.5 6.5 c 128,-1,19
 232 0 232 0 223 0 c 2,20,-1
 56 0 l 2,0,1
EndSplineSet
EndChar

StartChar: M
Encoding: 77 77 48
Width: 397
GlyphClass: 2
Flags: W
LayerCount: 2
Back
Fore
SplineSet
328 0 m 2,0,1
 306 0 306 0 306 22 c 2,2,-1
 306 275 l 1,3,-1
 226 95 l 2,4,5
 218 80 218 80 202 80 c 2,6,-1
 193 80 l 2,7,8
 176 80 176 80 170 95 c 2,9,-1
 89 277 l 1,10,-1
 89 22 l 2,11,12
 89 15 89 15 84 7.5 c 128,-1,13
 79 0 79 0 68 0 c 2,14,-1
 60 0 l 2,15,16
 37 0 37 0 37 22 c 2,17,-1
 37 381 l 2,18,19
 37 390 37 390 42.5 397 c 128,-1,20
 48 404 48 404 60 404 c 2,21,-1
 75 404 l 2,22,23
 91 404 91 404 95 391 c 2,24,-1
 198 160 l 1,25,-1
 299 391 l 2,26,27
 305 404 305 404 320 404 c 2,28,-1
 336 404 l 2,29,30
 349 404 349 404 353 396 c 128,-1,31
 357 388 357 388 357 381 c 2,32,-1
 357 22 l 2,33,34
 357 15 357 15 352 7.5 c 128,-1,35
 347 0 347 0 336 0 c 2,36,-1
 328 0 l 2,0,1
EndSplineSet
EndChar

StartChar: N
Encoding: 78 78 49
Width: 327
GlyphClass: 2
Flags: W
LayerCount: 2
Back
Fore
SplineSet
261 0 m 2,0,1
 247 0 247 0 240 13 c 2,2,-1
 89 285 l 1,3,-1
 89 22 l 2,4,5
 89 15 89 15 83.5 7.5 c 128,-1,6
 78 0 78 0 67 0 c 2,7,-1
 60 0 l 2,8,9
 49 0 49 0 43 6.5 c 128,-1,10
 37 13 37 13 37 22 c 2,11,-1
 37 381 l 2,12,13
 37 390 37 390 42.5 397 c 128,-1,14
 48 404 48 404 60 404 c 2,15,-1
 67 404 l 2,16,17
 75 404 75 404 79.5 399.5 c 128,-1,18
 84 395 84 395 85 393 c 2,19,-1
 238 121 l 1,20,-1
 238 381 l 2,21,22
 238 388 238 388 242 396 c 128,-1,23
 246 404 246 404 259 404 c 2,24,-1
 267 404 l 2,25,26
 280 404 280 404 284 396 c 128,-1,27
 288 388 288 388 288 381 c 2,28,-1
 288 22 l 2,29,30
 288 15 288 15 283 7.5 c 128,-1,31
 278 0 278 0 267 0 c 2,32,-1
 261 0 l 2,0,1
EndSplineSet
EndChar

StartChar: O
Encoding: 79 79 50
Width: 313
GlyphClass: 2
Flags: W
LayerCount: 2
Back
Fore
SplineSet
121 0 m 2,0,1
 79 0 79 0 55.5 25.5 c 128,-1,2
 32 51 32 51 32 96 c 2,3,-1
 32 308 l 2,4,5
 32 351 32 351 55.5 377.5 c 128,-1,6
 79 404 79 404 121 404 c 2,7,-1
 189 404 l 2,8,9
 231 404 231 404 255 377.5 c 128,-1,10
 279 351 279 351 279 308 c 2,11,-1
 279 96 l 2,12,13
 279 51 279 51 255 25.5 c 128,-1,14
 231 0 231 0 189 0 c 2,15,-1
 121 0 l 2,0,1
228 308 m 2,16,17
 228 353 228 353 189 353 c 2,18,-1
 121 353 l 2,19,20
 82 353 82 353 82 308 c 2,21,-1
 82 97 l 2,22,23
 82 51 82 51 121 51 c 2,24,-1
 189 51 l 2,25,26
 228 51 228 51 228 97 c 2,27,-1
 228 308 l 2,16,17
EndSplineSet
EndChar

StartChar: P
Encoding: 80 80 51
Width: 303
GlyphClass: 2
Flags: W
LayerCount: 2
Back
Fore
SplineSet
88 142 m 1,0,-1
 88 22 l 2,1,2
 88 15 88 15 83 7.5 c 128,-1,3
 78 0 78 0 67 0 c 2,4,-1
 59 0 l 2,5,6
 48 0 48 0 42.5 6.5 c 128,-1,7
 37 13 37 13 37 22 c 2,8,-1
 37 381 l 2,9,10
 37 390 37 390 42.5 397 c 128,-1,11
 48 404 48 404 59 404 c 2,12,-1
 181 404 l 2,13,14
 223 404 223 404 246 377.5 c 128,-1,15
 269 351 269 351 269 308 c 2,16,-1
 269 238 l 2,17,18
 269 196 269 196 246 169 c 128,-1,19
 223 142 223 142 181 142 c 2,20,-1
 88 142 l 1,0,-1
220 308 m 2,21,22
 220 353 220 353 181 353 c 2,23,-1
 88 353 l 1,24,-1
 88 194 l 1,25,-1
 181 194 l 2,26,27
 199 194 199 194 209.5 204 c 128,-1,28
 220 214 220 214 220 239 c 2,29,-1
 220 308 l 2,21,22
EndSplineSet
EndChar

StartChar: Q
Encoding: 81 81 52
Width: 326
GlyphClass: 2
Flags: W
LayerCount: 2
Back
Fore
SplineSet
254 -52 m 2,0,1
 255 -55 255 -55 255.5 -60 c 128,-1,2
 256 -65 256 -65 255 -70.5 c 128,-1,3
 254 -76 254 -76 250 -80 c 128,-1,4
 246 -84 246 -84 237 -84 c 2,5,-1
 228 -84 l 2,6,7
 220 -84 220 -84 214.5 -79.5 c 128,-1,8
 209 -75 209 -75 206 -71 c 2,9,-1
 169 -7 l 1,10,-1
 130 -7 l 2,11,12
 88 -7 88 -7 64 19.5 c 128,-1,13
 40 46 40 46 40 91 c 2,14,-1
 40 308 l 2,15,16
 40 350 40 350 64 377 c 128,-1,17
 88 404 88 404 130 404 c 2,18,-1
 198 404 l 2,19,20
 240 404 240 404 263.5 377 c 128,-1,21
 287 350 287 350 287 308 c 2,22,-1
 287 91 l 2,23,24
 287 56 287 56 270.5 31.5 c 128,-1,25
 254 7 254 7 226 -2 c 1,26,-1
 254 -52 l 2,0,1
237 307 m 2,27,28
 237 352 237 352 198 352 c 2,29,-1
 130 352 l 2,30,31
 90 352 90 352 90 307 c 2,32,-1
 90 92 l 2,33,34
 90 46 90 46 130 46 c 2,35,-1
 198 46 l 2,36,37
 237 46 237 46 237 92 c 2,38,-1
 237 307 l 2,27,28
EndSplineSet
EndChar

StartChar: R
Encoding: 82 82 53
Width: 302
GlyphClass: 2
Flags: W
LayerCount: 2
Back
Fore
SplineSet
244 0 m 2,0,1
 230 0 230 0 223 13 c 2,2,-1
 161 155 l 1,3,-1
 86 155 l 1,4,-1
 86 22 l 2,5,6
 86 11 86 11 78.5 5.5 c 128,-1,7
 71 0 71 0 63 0 c 2,8,-1
 57 0 l 2,9,10
 50 0 50 0 42 4.5 c 128,-1,11
 34 9 34 9 34 22 c 2,12,-1
 34 382 l 2,13,14
 34 393 34 393 41 398.5 c 128,-1,15
 48 404 48 404 57 404 c 2,16,-1
 177 404 l 2,17,18
 219 404 219 404 243 378.5 c 128,-1,19
 267 353 267 353 267 308 c 2,20,-1
 267 252 l 2,21,22
 267 184 267 184 212 162 c 1,23,-1
 272 30 l 2,24,25
 275 24 275 24 274 12 c 128,-1,26
 273 0 273 0 255 0 c 2,27,-1
 244 0 l 2,0,1
217 308 m 2,28,29
 217 354 217 354 177 354 c 2,30,-1
 86 354 l 1,31,-1
 86 207 l 1,32,-1
 177 207 l 2,33,34
 217 207 217 207 217 252 c 2,35,-1
 217 308 l 2,28,29
EndSplineSet
EndChar

StartChar: S
Encoding: 83 83 54
Width: 303
GlyphClass: 2
Flags: W
LayerCount: 2
Back
Fore
SplineSet
118 0 m 2,0,1
 76 0 76 0 52 25.5 c 128,-1,2
 28 51 28 51 28 96 c 2,3,-1
 28 119 l 2,4,5
 28 129 28 129 33.5 135.5 c 128,-1,6
 39 142 39 142 49 142 c 2,7,-1
 58 142 l 2,8,9
 69 142 69 142 74 134.5 c 128,-1,10
 79 127 79 127 79 119 c 2,11,-1
 79 97 l 2,12,13
 79 51 79 51 118 51 c 2,14,-1
 183 51 l 2,15,16
 222 51 222 51 222 97 c 2,17,-1
 222 125 l 2,18,19
 222 159 222 159 167 173 c 0,20,21
 147 177 147 177 123 183 c 128,-1,22
 99 189 99 189 78 200 c 128,-1,23
 57 211 57 211 42.5 228.5 c 128,-1,24
 28 246 28 246 28 274 c 2,25,-1
 28 308 l 2,26,27
 28 351 28 351 52 377.5 c 128,-1,28
 76 404 76 404 118 404 c 2,29,-1
 183 404 l 2,30,31
 225 404 225 404 248.5 377.5 c 128,-1,32
 272 351 272 351 272 308 c 2,33,-1
 272 292 l 2,34,35
 272 284 272 284 267 276 c 128,-1,36
 262 268 262 268 251 268 c 2,37,-1
 244 268 l 2,38,39
 222 268 222 268 222 292 c 2,40,-1
 222 308 l 2,41,42
 222 353 222 353 183 353 c 2,43,-1
 118 353 l 2,44,45
 79 353 79 353 79 308 c 2,46,-1
 79 275 l 2,47,48
 79 264 79 264 90 252 c 128,-1,49
 101 240 101 240 133 233 c 0,50,51
 156 228 156 228 178 222.5 c 128,-1,52
 200 217 200 217 222 206 c 0,53,54
 243 195 243 195 257.5 176 c 128,-1,55
 272 157 272 157 272 127 c 2,56,-1
 272 96 l 2,57,58
 272 51 272 51 248.5 25.5 c 128,-1,59
 225 0 225 0 183 0 c 2,60,-1
 118 0 l 2,0,1
EndSplineSet
EndChar

StartChar: T
Encoding: 84 84 55
Width: 259
GlyphClass: 2
Flags: W
LayerCount: 2
Back
Fore
SplineSet
155 353 m 1,0,-1
 155 22 l 2,1,2
 155 15 155 15 149.5 7.5 c 128,-1,3
 144 0 144 0 133 0 c 2,4,-1
 127 0 l 2,5,6
 116 0 116 0 110.5 7.5 c 128,-1,7
 105 15 105 15 105 22 c 2,8,-1
 105 353 l 1,9,-1
 34 353 l 2,10,11
 28 353 28 353 20 358 c 128,-1,12
 12 363 12 363 12 375 c 2,13,-1
 12 382 l 2,14,15
 12 393 12 393 19 398.5 c 128,-1,16
 26 404 26 404 34 404 c 2,17,-1
 226 404 l 2,18,19
 237 404 237 404 242 397 c 128,-1,20
 247 390 247 390 247 382 c 2,21,-1
 247 375 l 2,22,23
 247 366 247 366 241.5 359.5 c 128,-1,24
 236 353 236 353 226 353 c 2,25,-1
 155 353 l 1,0,-1
EndSplineSet
EndChar

StartChar: U
Encoding: 85 85 56
Width: 310
GlyphClass: 2
Flags: W
LayerCount: 2
Back
Fore
SplineSet
124 0 m 2,0,1
 82 0 82 0 58.5 25.5 c 128,-1,2
 35 51 35 51 35 96 c 2,3,-1
 35 381 l 2,4,5
 35 387 35 387 39.5 395.5 c 128,-1,6
 44 404 44 404 57 404 c 2,7,-1
 63 404 l 2,8,9
 76 404 76 404 80.5 395.5 c 128,-1,10
 85 387 85 387 85 381 c 2,11,-1
 85 97 l 2,12,13
 85 51 85 51 124 51 c 2,14,-1
 185 51 l 2,15,16
 223 51 223 51 223 97 c 2,17,-1
 223 381 l 2,18,19
 223 390 223 390 228.5 397 c 128,-1,20
 234 404 234 404 245 404 c 2,21,-1
 253 404 l 2,22,23
 264 404 264 404 269 397 c 128,-1,24
 274 390 274 390 274 382 c 2,25,-1
 274 96 l 2,26,27
 274 51 274 51 250.5 25.5 c 128,-1,28
 227 0 227 0 185 0 c 2,29,-1
 124 0 l 2,0,1
EndSplineSet
EndChar

StartChar: V
Encoding: 86 86 57
Width: 302
GlyphClass: 2
Flags: W
LayerCount: 2
Back
Fore
SplineSet
179 16 m 2,0,1
 177 12 177 12 172.5 6 c 128,-1,2
 168 0 168 0 158 0 c 2,3,-1
 144 0 l 2,4,5
 132 0 132 0 128 7 c 128,-1,6
 124 14 124 14 122 18 c 2,7,-1
 16 377 l 2,8,9
 14 382 14 382 17 393 c 128,-1,10
 20 404 20 404 35 404 c 2,11,-1
 44 404 l 2,12,13
 55 404 55 404 59 397 c 128,-1,14
 63 390 63 390 65 386 c 2,15,-1
 151 101 l 1,16,-1
 236 386 l 2,17,18
 238 390 238 390 242 397 c 128,-1,19
 246 404 246 404 257 404 c 2,20,-1
 267 404 l 2,21,22
 281 404 281 404 284 393 c 128,-1,23
 287 382 287 382 285 377 c 2,24,-1
 179 16 l 2,0,1
EndSplineSet
EndChar

StartChar: W
Encoding: 87 87 58
Width: 486
GlyphClass: 2
Flags: W
LayerCount: 2
Back
Fore
SplineSet
386 19 m 2,0,1
 382 0 382 0 363 0 c 2,2,-1
 348 0 l 2,3,4
 328 0 328 0 324 18 c 2,5,-1
 245 300 l 1,6,-1
 166 17 l 2,7,8
 164 12 164 12 158.5 6 c 128,-1,9
 153 0 153 0 143 0 c 2,10,-1
 128 0 l 2,11,12
 120 0 120 0 113 4 c 128,-1,13
 106 8 106 8 103 19 c 2,14,-1
 19 377 l 2,15,16
 16 390 16 390 24 397 c 128,-1,17
 32 404 32 404 42 404 c 2,18,-1
 49 404 l 2,19,20
 60 404 60 404 65.5 398 c 128,-1,21
 71 392 71 392 73 385 c 2,22,-1
 136 107 l 1,23,-1
 215 387 l 2,24,25
 218 393 218 393 223.5 398.5 c 128,-1,26
 229 404 229 404 239 404 c 2,27,-1
 250 404 l 2,28,29
 260 404 260 404 265.5 398 c 128,-1,30
 271 392 271 392 273 386 c 2,31,-1
 353 105 l 1,32,-1
 417 385 l 2,33,34
 418 392 418 392 424 398 c 128,-1,35
 430 404 430 404 441 404 c 2,36,-1
 449 404 l 2,37,38
 458 404 458 404 462.5 401 c 128,-1,39
 467 398 467 398 469 393.5 c 128,-1,40
 471 389 471 389 470.5 384.5 c 128,-1,41
 470 380 470 380 469 377 c 2,42,-1
 386 19 l 2,0,1
EndSplineSet
EndChar

StartChar: X
Encoding: 88 88 59
Width: 297
GlyphClass: 2
Flags: W
LayerCount: 2
Back
Fore
SplineSet
253 0 m 2,0,1
 249 0 249 0 242.5 2.5 c 128,-1,2
 236 5 236 5 231 12 c 2,3,-1
 149 165 l 1,4,-1
 67 12 l 2,5,6
 62 5 62 5 55.5 2.5 c 128,-1,7
 49 0 49 0 45 0 c 2,8,-1
 36 0 l 2,9,10
 21 0 21 0 17.5 11.5 c 128,-1,11
 14 23 14 23 19 32 c 2,12,-1
 118 213 l 1,13,-1
 25 372 l 2,14,15
 21 380 21 380 22.5 392 c 128,-1,16
 24 404 24 404 43 404 c 2,17,-1
 51 404 l 2,18,19
 65 404 65 404 74 389 c 2,20,-1
 149 260 l 1,21,-1
 225 389 l 2,22,23
 228 394 228 394 233 399 c 128,-1,24
 238 404 238 404 246 404 c 2,25,-1
 255 404 l 2,26,27
 274 404 274 404 275 392 c 128,-1,28
 276 380 276 380 272 372 c 2,29,-1
 180 213 l 1,30,-1
 281 29 l 2,31,32
 281 26 281 26 281.5 21.5 c 128,-1,33
 282 17 282 17 280.5 12 c 128,-1,34
 279 7 279 7 275 3.5 c 128,-1,35
 271 0 271 0 262 0 c 2,36,-1
 253 0 l 2,0,1
EndSplineSet
EndChar

StartChar: Y
Encoding: 89 89 60
Width: 296
GlyphClass: 2
Flags: W
LayerCount: 2
Back
Fore
SplineSet
173 155 m 1,0,-1
 173 22 l 2,1,2
 173 13 173 13 167 6.5 c 128,-1,3
 161 0 161 0 151 0 c 2,4,-1
 144 0 l 2,5,6
 133 0 133 0 128 7.5 c 128,-1,7
 123 15 123 15 123 22 c 2,8,-1
 123 155 l 1,9,-1
 17 373 l 2,10,11
 15 376 15 376 14 381 c 128,-1,12
 13 386 13 386 14.5 391.5 c 128,-1,13
 16 397 16 397 20.5 400.5 c 128,-1,14
 25 404 25 404 34 404 c 2,15,-1
 44 404 l 2,16,17
 54 404 54 404 59 398.5 c 128,-1,18
 64 393 64 393 66 389 c 2,19,-1
 148 218 l 1,20,-1
 230 389 l 2,21,22
 232 393 232 393 237 398.5 c 128,-1,23
 242 404 242 404 253 404 c 2,24,-1
 261 404 l 2,25,26
 278 404 278 404 280 392.5 c 128,-1,27
 282 381 282 381 280 374 c 2,28,-1
 173 155 l 1,0,-1
EndSplineSet
EndChar

StartChar: Z
Encoding: 90 90 61
Width: 279
GlyphClass: 2
Flags: W
LayerCount: 2
Back
Fore
SplineSet
36 0 m 2,0,1
 29 0 29 0 22 5.5 c 128,-1,2
 15 11 15 11 15 22 c 2,3,-1
 15 32 l 2,4,5
 15 38 15 38 18 46 c 2,6,-1
 191 353 l 1,7,-1
 42 353 l 2,8,9
 35 353 35 353 27.5 358 c 128,-1,10
 20 363 20 363 20 375 c 2,11,-1
 20 382 l 2,12,13
 20 393 20 393 27 398.5 c 128,-1,14
 34 404 34 404 42 404 c 2,15,-1
 233 404 l 2,16,17
 243 404 243 404 249 397.5 c 128,-1,18
 255 391 255 391 255 382 c 2,19,-1
 255 372 l 2,20,21
 255 368 255 368 254.5 365 c 128,-1,22
 254 362 254 362 253 358 c 2,23,-1
 79 51 l 1,24,-1
 239 51 l 2,25,26
 247 51 247 51 254 45.5 c 128,-1,27
 261 40 261 40 261 29 c 2,28,-1
 261 22 l 2,29,30
 261 9 261 9 253 4.5 c 128,-1,31
 245 0 245 0 239 0 c 2,32,-1
 36 0 l 2,0,1
EndSplineSet
EndChar

StartChar: bracketleft
Encoding: 91 91 62
Width: 153
GlyphClass: 2
Flags: W
LayerCount: 2
Back
Fore
SplineSet
49 -69 m 2,0,1
 36 -69 36 -69 35 -62 c 0,2,3
 31 -50 31 -50 31 -47 c 2,4,-1
 31 411 l 2,5,6
 31 419 31 419 35 426 c 0,7,8
 39 435 39 435 49 435 c 2,9,-1
 102 435 l 2,10,11
 111 435 111 435 116 427 c 0,12,13
 120 422 120 422 120 412 c 2,14,-1
 120 406 l 2,15,16
 120 396 120 396 114 390 c 0,17,18
 109 384 109 384 102 384 c 2,19,-1
 71 384 l 1,20,-1
 71 -19 l 1,21,-1
 102 -19 l 2,22,23
 112 -19 112 -19 116 -26 c 256,24,25
 120 -33 120 -33 120 -41 c 2,26,-1
 120 -48 l 2,27,28
 120 -57 120 -57 114 -63 c 0,29,30
 109 -69 109 -69 102 -69 c 2,31,-1
 49 -69 l 2,0,1
EndSplineSet
EndChar

StartChar: backslash
Encoding: 92 92 63
Width: 220
GlyphClass: 2
Flags: W
LayerCount: 2
Back
Fore
SplineSet
171 -28 m 2,0,1
 161 -28 161 -28 157 -22 c 0,2,3
 151 -16 151 -16 149 -12 c 2,4,-1
 23 411 l 2,5,6
 21 418 21 418 23 429 c 0,7,8
 24 441 24 441 40 441 c 2,9,-1
 48 441 l 2,10,11
 63 441 63 441 68 424 c 2,12,-1
 195 1 l 2,13,14
 198 -11 198 -11 194 -18 c 0,15,16
 190 -28 190 -28 176 -28 c 2,17,-1
 171 -28 l 2,0,1
EndSplineSet
EndChar

StartChar: bracketright
Encoding: 93 93 64
Width: 154
GlyphClass: 2
Flags: W
LayerCount: 2
Back
Fore
SplineSet
48 -69 m 2,0,1
 40 -69 40 -69 35 -64 c 0,2,3
 29 -58 29 -58 29 -48 c 2,4,-1
 29 -41 l 2,5,6
 29 -32 29 -32 34 -25 c 0,7,8
 40 -19 40 -19 48 -19 c 2,9,-1
 77 -19 l 1,10,-1
 77 384 l 1,11,-1
 48 384 l 2,12,13
 39 384 39 384 35 390 c 0,14,15
 29 394 29 394 29 406 c 2,16,-1
 29 412 l 2,17,18
 29 421 29 421 34 428 c 0,19,20
 40 435 40 435 48 435 c 2,21,-1
 101 435 l 2,22,23
 112 435 112 435 115 425 c 0,24,25
 118 416 118 416 118 411 c 2,26,-1
 118 -47 l 2,27,28
 118 -54 118 -54 114 -61 c 0,29,30
 111 -69 111 -69 101 -69 c 2,31,-1
 48 -69 l 2,0,1
EndSplineSet
EndChar

StartChar: asciicircum
Encoding: 94 94 65
Width: 290
GlyphClass: 2
Flags: W
LayerCount: 2
Back
Fore
SplineSet
223 222 m 2,0,1
 216 222 216 222 212 226 c 256,2,3
 208 230 208 230 204 232 c 2,4,-1
 138 362 l 1,5,-1
 74 232 l 1,6,7
 64 222 64 222 53 222 c 2,8,-1
 49 222 l 2,9,10
 37 222 37 222 31 231 c 0,11,12
 26 241 26 241 30 251 c 2,13,-1
 108 407 l 2,14,15
 109 408 109 408 111.5 410.5 c 128,-1,16
 114 413 114 413 119 418 c 0,17,18
 123 421 123 421 132 421 c 2,19,-1
 144 421 l 2,20,21
 149 421 149 421 157 418 c 0,22,23
 164 417 164 417 169 407 c 2,24,-1
 247 251 l 2,25,26
 253 239 253 239 247 231 c 0,27,28
 239 222 239 222 229 222 c 2,29,-1
 223 222 l 2,0,1
EndSplineSet
EndChar

StartChar: underscore
Encoding: 95 95 66
Width: 225
GlyphClass: 2
Flags: W
LayerCount: 2
Back
Fore
SplineSet
39 -68 m 2,0,1
 27 -68 27 -68 24 -64 c 0,2,3
 18 -61 18 -61 18 -58 c 2,4,-1
 18 -38 l 2,5,6
 18 -35 18 -35 25 -32 c 0,7,8
 28 -29 28 -29 39 -29 c 2,9,-1
 187 -29 l 2,10,11
 196 -29 196 -29 201 -32 c 0,12,13
 208 -35 208 -35 208 -38 c 2,14,-1
 208 -58 l 2,15,16
 208 -61 208 -61 202 -64 c 0,17,18
 199 -68 199 -68 187 -68 c 2,19,-1
 39 -68 l 2,0,1
EndSplineSet
EndChar

StartChar: grave
Encoding: 96 96 67
Width: 139
GlyphClass: 2
Flags: W
LayerCount: 2
Back
Fore
SplineSet
88 348 m 2,0,1
 83 348 83 348 78.5 351 c 128,-1,2
 74 354 74 354 72 357 c 2,3,-1
 38 400 l 2,4,5
 30 410 30 410 35.5 418.5 c 128,-1,6
 41 427 41 427 50 427 c 2,7,-1
 60 427 l 2,8,9
 74 427 74 427 78 417 c 2,10,-1
 104 373 l 2,11,12
 109 365 109 365 106 356.5 c 128,-1,13
 103 348 103 348 91 348 c 2,14,-1
 88 348 l 2,0,1
EndSplineSet
EndChar

StartChar: a
Encoding: 97 97 68
Width: 255
GlyphClass: 2
Flags: W
LayerCount: 2
Back
Fore
SplineSet
198 0 m 2,0,1
 185 0 185 0 181 9 c 1,2,3
 161 0 161 0 140 0 c 2,4,-1
 104 0 l 2,5,6
 66 0 66 0 44.5 23.5 c 128,-1,7
 23 47 23 47 23 86 c 2,8,-1
 23 208 l 2,9,10
 23 247 23 247 44.5 270.5 c 128,-1,11
 66 294 66 294 104 294 c 2,12,-1
 204 294 l 2,13,14
 214 294 214 294 219 288 c 128,-1,15
 224 282 224 282 224 274 c 2,16,-1
 224 21 l 2,17,18
 224 12 224 12 219 6 c 128,-1,19
 214 0 214 0 204 0 c 2,20,-1
 198 0 l 2,0,1
180 217 m 0,21,22
 180 226 180 226 179 227 c 2,23,-1
 179 233 l 2,24,25
 180 237 180 237 177.5 242 c 128,-1,26
 175 247 175 247 163 248 c 0,27,28
 162 249 162 249 158 249 c 0,29,30
 155 249 155 249 154 248 c 0,31,32
 150 248 150 248 139.5 247.5 c 128,-1,33
 129 247 129 247 104 248 c 0,34,35
 68 248 68 248 68 208 c 2,36,-1
 68 87 l 2,37,38
 68 46 68 46 104 46 c 2,39,-1
 139 46 l 2,40,41
 179 46 179 46 179 84 c 0,42,43
 179 148 179 148 179.5 177 c 128,-1,44
 180 206 180 206 180 217 c 0,21,22
EndSplineSet
EndChar

StartChar: b
Encoding: 98 98 69
Width: 262
GlyphClass: 2
Flags: W
LayerCount: 2
Back
Fore
SplineSet
48 0 m 2,0,1
 38 0 38 0 33.5 7.5 c 128,-1,2
 29 15 29 15 29 21 c 2,3,-1
 29 384 l 2,4,5
 29 391 29 391 33.5 398 c 128,-1,6
 38 405 38 405 48 405 c 2,7,-1
 55 405 l 2,8,9
 74 405 74 405 74 384 c 2,10,-1
 74 300 l 1,11,12
 90 309 90 309 113 309 c 2,13,-1
 149 309 l 2,14,15
 186 309 186 309 208 284 c 128,-1,16
 230 259 230 259 230 220 c 2,17,-1
 230 89 l 2,18,19
 230 47 230 47 208 23.5 c 128,-1,20
 186 0 186 0 149 0 c 2,21,-1
 48 0 l 2,0,1
184 219 m 2,22,23
 184 261 184 261 149 261 c 2,24,-1
 113 261 l 2,25,26
 74 261 74 261 74 222 c 2,27,-1
 74 48 l 1,28,-1
 149 48 l 2,29,30
 184 48 184 48 184 90 c 2,31,-1
 184 219 l 2,22,23
EndSplineSet
EndChar

StartChar: c
Encoding: 99 99 70
Width: 208
GlyphClass: 2
Flags: W
LayerCount: 2
Back
Fore
SplineSet
102 0 m 2,0,1
 66 0 66 0 44.5 23.5 c 128,-1,2
 23 47 23 47 23 86 c 2,3,-1
 23 208 l 2,4,5
 23 247 23 247 44.5 270.5 c 128,-1,6
 66 294 66 294 102 294 c 2,7,-1
 168 294 l 2,8,9
 177 294 177 294 182 288 c 128,-1,10
 187 282 187 282 187 274 c 2,11,-1
 187 268 l 2,12,13
 187 258 187 258 180.5 253 c 128,-1,14
 174 248 174 248 168 248 c 2,15,-1
 102 248 l 2,16,17
 68 248 68 248 68 208 c 2,18,-1
 68 87 l 2,19,20
 68 46 68 46 102 46 c 2,21,-1
 168 46 l 2,22,23
 177 46 177 46 182 40 c 128,-1,24
 187 34 187 34 187 26 c 2,25,-1
 187 20 l 2,26,27
 187 10 187 10 180.5 5 c 128,-1,28
 174 0 174 0 168 0 c 2,29,-1
 102 0 l 2,0,1
EndSplineSet
EndChar

StartChar: d
Encoding: 100 100 71
Width: 261
GlyphClass: 2
Flags: W
LayerCount: 2
Back
Fore
SplineSet
198 0 m 2,0,1
 185 0 185 0 181 10 c 1,2,3
 164 0 164 0 140 0 c 2,4,-1
 104 0 l 2,5,6
 66 0 66 0 44.5 23.5 c 128,-1,7
 23 47 23 47 23 89 c 2,8,-1
 23 215 l 2,9,10
 23 257 23 257 44.5 280 c 128,-1,11
 66 303 66 303 104 303 c 2,12,-1
 140 303 l 2,13,14
 162 303 162 303 179 294 c 1,15,-1
 179 384 l 2,16,17
 179 391 179 391 183 398 c 128,-1,18
 187 405 187 405 198 405 c 2,19,-1
 204 405 l 2,20,21
 224 405 224 405 224 384 c 2,22,-1
 224 21 l 2,23,24
 224 0 224 0 204 0 c 2,25,-1
 198 0 l 2,0,1
179 217 m 2,26,27
 179 256 179 256 139 256 c 2,28,-1
 104 256 l 2,29,30
 68 256 68 256 68 215 c 2,31,-1
 68 90 l 2,32,33
 68 48 68 48 104 48 c 2,34,-1
 139 48 l 2,35,36
 179 48 179 48 179 86 c 2,37,-1
 179 217 l 2,26,27
EndSplineSet
EndChar

StartChar: e
Encoding: 101 101 72
Width: 256
GlyphClass: 2
Flags: W
LayerCount: 2
Back
Fore
SplineSet
68 122 m 1,0,-1
 68 87 l 2,1,2
 68 46 68 46 104 46 c 2,3,-1
 205 46 l 2,4,5
 225 46 225 46 225 26 c 2,6,-1
 225 20 l 2,7,8
 225 10 225 10 218.5 5 c 128,-1,9
 212 0 212 0 205 0 c 2,10,-1
 104 0 l 2,11,12
 66 0 66 0 44.5 23.5 c 128,-1,13
 23 47 23 47 23 86 c 2,14,-1
 23 208 l 2,15,16
 23 247 23 247 44.5 270.5 c 128,-1,17
 66 294 66 294 104 294 c 2,18,-1
 147 294 l 2,19,20
 186 294 186 294 207 270.5 c 128,-1,21
 228 247 228 247 228 208 c 2,22,-1
 228 143 l 2,23,24
 228 136 228 136 223.5 129 c 128,-1,25
 219 122 219 122 209 122 c 2,26,-1
 68 122 l 1,0,-1
104 248 m 2,27,28
 68 248 68 248 68 208 c 2,29,-1
 68 168 l 1,30,-1
 183 168 l 1,31,-1
 183 208 l 2,32,33
 183 248 183 248 147 248 c 2,34,-1
 104 248 l 2,27,28
EndSplineSet
EndChar

StartChar: f
Encoding: 102 102 73
Width: 172
GlyphClass: 2
Flags: W
LayerCount: 2
Back
Fore
SplineSet
101 256 m 1,0,-1
 101 21 l 2,1,2
 101 15 101 15 96.5 7.5 c 128,-1,3
 92 0 92 0 83 0 c 2,4,-1
 77 0 l 2,5,6
 66 0 66 0 62.5 7.5 c 128,-1,7
 59 15 59 15 59 21 c 2,8,-1
 59 256 l 1,9,-1
 38 256 l 2,10,11
 31 256 31 256 25 261.5 c 128,-1,12
 19 267 19 267 19 276 c 2,13,-1
 19 282 l 2,14,15
 19 291 19 291 24 297 c 128,-1,16
 29 303 29 303 38 303 c 2,17,-1
 59 303 l 1,18,-1
 59 318 l 2,19,20
 59 360 59 360 75 382.5 c 128,-1,21
 91 405 91 405 125 405 c 2,22,-1
 132 405 l 2,23,24
 139 405 139 405 145 399.5 c 128,-1,25
 151 394 151 394 151 385 c 2,26,-1
 151 379 l 2,27,28
 151 370 151 370 146.5 363.5 c 128,-1,29
 142 357 142 357 132 357 c 2,30,-1
 125 357 l 2,31,32
 113 357 113 357 107 349.5 c 128,-1,33
 101 342 101 342 101 317 c 2,34,-1
 101 303 l 1,35,-1
 132 303 l 2,36,37
 142 303 142 303 146.5 297 c 128,-1,38
 151 291 151 291 151 282 c 2,39,-1
 151 276 l 2,40,41
 151 267 151 267 145 261.5 c 128,-1,42
 139 256 139 256 132 256 c 2,43,-1
 101 256 l 1,0,-1
EndSplineSet
EndChar

StartChar: g
Encoding: 103 103 74
Width: 257
GlyphClass: 2
Flags: W
LayerCount: 2
Back
Fore
SplineSet
58 -77 m 2,0,1
 51 -77 51 -77 44.5 -72 c 128,-1,2
 38 -67 38 -67 38 -56 c 2,3,-1
 38 -50 l 2,4,5
 38 -42 38 -42 43.5 -36 c 128,-1,6
 49 -30 49 -30 58 -30 c 2,7,-1
 146 -30 l 2,8,9
 181 -30 181 -30 181 12 c 2,10,-1
 181 17 l 1,11,12
 163 9 163 9 143 9 c 2,13,-1
 107 9 l 2,14,15
 70 9 70 9 48 32 c 128,-1,16
 26 55 26 55 26 97 c 2,17,-1
 26 206 l 2,18,19
 26 248 26 248 48 271 c 128,-1,20
 70 294 70 294 107 294 c 2,21,-1
 208 294 l 2,22,23
 217 294 217 294 222 287 c 128,-1,24
 227 280 227 280 227 274 c 2,25,-1
 227 11 l 2,26,27
 227 -31 227 -31 205 -54 c 128,-1,28
 183 -77 183 -77 146 -77 c 2,29,-1
 58 -77 l 2,0,1
105 246 m 2,30,31
 87 246 87 246 79.5 236.5 c 128,-1,32
 72 227 72 227 72 206 c 2,33,-1
 72 97 l 2,34,35
 72 56 72 56 107 56 c 2,36,-1
 143 56 l 2,37,38
 181 56 181 56 181 95 c 2,39,-1
 183 247 l 1,40,-1
 105 246 l 2,30,31
EndSplineSet
EndChar

StartChar: h
Encoding: 104 104 75
Width: 261
GlyphClass: 2
Flags: W
LayerCount: 2
Back
Fore
SplineSet
203 0 m 2,0,1
 184 0 184 0 184 21 c 2,2,-1
 184 215 l 2,3,4
 184 256 184 256 149 256 c 2,5,-1
 113 256 l 2,6,7
 74 256 74 256 74 217 c 2,8,-1
 74 21 l 2,9,10
 74 0 74 0 55 0 c 2,11,-1
 48 0 l 2,12,13
 38 0 38 0 33.5 7.5 c 128,-1,14
 29 15 29 15 29 21 c 2,15,-1
 29 384 l 2,16,17
 29 391 29 391 33.5 398 c 128,-1,18
 38 405 38 405 48 405 c 2,19,-1
 55 405 l 2,20,21
 74 405 74 405 74 384 c 2,22,-1
 74 295 l 1,23,24
 92 303 92 303 113 303 c 2,25,-1
 149 303 l 2,26,27
 186 303 186 303 208 280 c 128,-1,28
 230 257 230 257 230 215 c 2,29,-1
 230 21 l 2,30,31
 230 0 230 0 210 0 c 2,32,-1
 203 0 l 2,0,1
EndSplineSet
EndChar

StartChar: i
Encoding: 105 105 76
Width: 106
GlyphClass: 2
Flags: W
LayerCount: 2
Back
Fore
SplineSet
36 319 m 2,0,1
 33 319 33 319 30.5 326 c 128,-1,2
 28 333 28 333 28 340 c 2,3,-1
 28 383 l 2,4,5
 28 391 28 391 30.5 397.5 c 128,-1,6
 33 404 33 404 36 404 c 2,7,-1
 64 404 l 2,8,9
 68 404 68 404 70.5 397.5 c 128,-1,10
 73 391 73 391 73 383 c 2,11,-1
 73 340 l 2,12,13
 73 333 73 333 70.5 326 c 128,-1,14
 68 319 68 319 64 319 c 2,15,-1
 36 319 l 2,0,1
36 0 m 2,16,17
 33 0 33 0 30.5 7 c 128,-1,18
 28 14 28 14 28 21 c 2,19,-1
 28 282 l 2,20,21
 28 290 28 290 30.5 296.5 c 128,-1,22
 33 303 33 303 36 303 c 2,23,-1
 64 303 l 2,24,25
 68 303 68 303 70.5 296.5 c 128,-1,26
 73 290 73 290 73 282 c 2,27,-1
 73 21 l 2,28,29
 73 14 73 14 70.5 7 c 128,-1,30
 68 0 68 0 64 0 c 2,31,-1
 36 0 l 2,16,17
EndSplineSet
EndChar

StartChar: j
Encoding: 106 106 77
Width: 101
GlyphClass: 2
Flags: W
LayerCount: 2
Back
Fore
SplineSet
45 320 m 2,0,1
 35 320 35 320 31.5 327.5 c 128,-1,2
 28 335 28 335 28 341 c 2,3,-1
 28 383 l 2,4,5
 28 389 28 389 31.5 396.5 c 128,-1,6
 35 404 35 404 45 404 c 2,7,-1
 56 404 l 2,8,9
 65 404 65 404 69 396.5 c 128,-1,10
 73 389 73 389 73 383 c 2,11,-1
 73 341 l 2,12,13
 73 335 73 335 69 327.5 c 128,-1,14
 65 320 65 320 56 320 c 2,15,-1
 45 320 l 2,0,1
-9 -77 m 2,16,17
 -16 -77 -16 -77 -21 -71.5 c 128,-1,18
 -26 -66 -26 -66 -26 -56 c 2,19,-1
 -26 -50 l 2,20,21
 -26 -43 -26 -43 -22 -36 c 128,-1,22
 -18 -29 -18 -29 -9 -29 c 2,23,-1
 -1 -29 l 2,24,25
 13 -29 13 -29 20.5 -19.5 c 128,-1,26
 28 -10 28 -10 28 14 c 2,27,-1
 28 280 l 2,28,29
 28 286 28 286 31.5 294 c 128,-1,30
 35 302 35 302 45 302 c 2,31,-1
 56 302 l 2,32,33
 65 302 65 302 69 294 c 128,-1,34
 73 286 73 286 73 280 c 2,35,-1
 73 13 l 2,36,37
 73 -27 73 -27 55 -52 c 128,-1,38
 37 -77 37 -77 -1 -77 c 2,39,-1
 -9 -77 l 2,16,17
EndSplineSet
EndChar

StartChar: k
Encoding: 107 107 78
Width: 230
GlyphClass: 2
Flags: W
LayerCount: 2
Back
Fore
SplineSet
192 0 m 2,0,1
 178 0 178 0 170 12 c 2,2,-1
 86 144 l 2,3,4
 76 156 76 156 86 169 c 2,5,-1
 161 291 l 2,6,7
 165 298 165 298 172 300.5 c 128,-1,8
 179 303 179 303 183 303 c 2,9,-1
 189 303 l 2,10,11
 203 303 203 303 206 291.5 c 128,-1,12
 209 280 209 280 204 274 c 2,13,-1
 133 156 l 1,14,-1
 215 30 l 2,15,16
 221 21 221 21 217.5 10.5 c 128,-1,17
 214 0 214 0 200 0 c 2,18,-1
 192 0 l 2,0,1
48 0 m 2,19,20
 38 0 38 0 33.5 7.5 c 128,-1,21
 29 15 29 15 29 21 c 2,22,-1
 29 384 l 2,23,24
 29 391 29 391 33.5 398 c 128,-1,25
 38 405 38 405 48 405 c 2,26,-1
 55 405 l 2,27,28
 74 405 74 405 74 384 c 2,29,-1
 74 21 l 2,30,31
 74 0 74 0 55 0 c 2,32,-1
 48 0 l 2,19,20
EndSplineSet
EndChar

StartChar: l
Encoding: 108 108 79
Width: 113
GlyphClass: 2
Flags: W
LayerCount: 2
Back
Fore
SplineSet
48 0 m 2,0,1
 38 0 38 0 33.5 7.5 c 128,-1,2
 29 15 29 15 29 21 c 2,3,-1
 29 384 l 2,4,5
 29 391 29 391 33.5 398 c 128,-1,6
 38 405 38 405 48 405 c 2,7,-1
 55 405 l 2,8,9
 75 405 75 405 75 384 c 2,10,-1
 75 21 l 2,11,12
 75 0 75 0 55 0 c 2,13,-1
 48 0 l 2,0,1
EndSplineSet
EndChar

StartChar: m
Encoding: 109 109 80
Width: 410
GlyphClass: 2
Flags: W
LayerCount: 2
Back
Fore
SplineSet
351 0 m 2,0,1
 341 0 341 0 336 7 c 128,-1,2
 331 14 331 14 331 21 c 2,3,-1
 331 208 l 2,4,5
 331 248 331 248 292 248 c 2,6,-1
 272 248 l 2,7,8
 227 248 227 248 227 208 c 2,9,-1
 227 21 l 2,10,11
 227 14 227 14 222 7 c 128,-1,12
 217 0 217 0 208 0 c 2,13,-1
 200 0 l 2,14,15
 192 0 192 0 186 5.5 c 128,-1,16
 180 11 180 11 180 21 c 2,17,-1
 180 208 l 2,18,19
 180 248 180 248 141 248 c 2,20,-1
 119 248 l 2,21,22
 77 248 77 248 77 210 c 2,23,-1
 77 21 l 2,24,25
 77 0 77 0 56 0 c 2,26,-1
 49 0 l 2,27,28
 39 0 39 0 34 7 c 128,-1,29
 29 14 29 14 29 21 c 2,30,-1
 29 274 l 2,31,32
 29 280 29 280 34 287 c 128,-1,33
 39 294 39 294 49 294 c 2,34,-1
 56 294 l 2,35,36
 68 294 68 294 74 285 c 1,37,38
 95 294 95 294 118 294 c 2,39,-1
 141 294 l 2,40,41
 182 294 182 294 205 270 c 1,42,43
 219 283 219 283 237 288.5 c 128,-1,44
 255 294 255 294 272 294 c 2,45,-1
 292 294 l 2,46,47
 332 294 332 294 355.5 270.5 c 128,-1,48
 379 247 379 247 379 208 c 2,49,-1
 379 21 l 2,50,51
 379 0 379 0 358 0 c 2,52,-1
 351 0 l 2,0,1
EndSplineSet
EndChar

StartChar: n
Encoding: 110 110 81
Width: 259
GlyphClass: 2
Flags: W
LayerCount: 2
Back
Fore
SplineSet
203 0 m 2,0,1
 194 0 194 0 189 6 c 128,-1,2
 184 12 184 12 184 21 c 2,3,-1
 184 208 l 2,4,5
 184 248 184 248 149 248 c 2,6,-1
 113 248 l 2,7,8
 74 248 74 248 74 210 c 2,9,-1
 74 21 l 2,10,11
 74 12 74 12 69 6 c 128,-1,12
 64 0 64 0 55 0 c 2,13,-1
 48 0 l 2,14,15
 38 0 38 0 33.5 7 c 128,-1,16
 29 14 29 14 29 21 c 2,17,-1
 29 274 l 2,18,19
 29 280 29 280 33.5 287 c 128,-1,20
 38 294 38 294 48 294 c 2,21,-1
 55 294 l 2,22,23
 67 294 67 294 72 285 c 1,24,25
 87 294 87 294 113 294 c 2,26,-1
 149 294 l 2,27,28
 186 294 186 294 208 270.5 c 128,-1,29
 230 247 230 247 230 208 c 2,30,-1
 230 21 l 2,31,32
 230 12 230 12 225 6 c 128,-1,33
 220 0 220 0 210 0 c 2,34,-1
 203 0 l 2,0,1
EndSplineSet
EndChar

StartChar: o
Encoding: 111 111 82
Width: 257
GlyphClass: 2
Flags: W
LayerCount: 2
Back
Fore
SplineSet
104 0 m 2,0,1
 66 0 66 0 44.5 23.5 c 128,-1,2
 23 47 23 47 23 86 c 2,3,-1
 23 208 l 2,4,5
 23 247 23 247 44.5 270.5 c 128,-1,6
 66 294 66 294 104 294 c 2,7,-1
 146 294 l 2,8,9
 183 294 183 294 205 270.5 c 128,-1,10
 227 247 227 247 227 208 c 2,11,-1
 227 86 l 2,12,13
 227 47 227 47 205 23.5 c 128,-1,14
 183 0 183 0 146 0 c 2,15,-1
 104 0 l 2,0,1
181 208 m 2,16,17
 181 248 181 248 146 248 c 2,18,-1
 104 248 l 2,19,20
 68 248 68 248 68 208 c 2,21,-1
 68 87 l 2,22,23
 68 46 68 46 104 46 c 2,24,-1
 146 46 l 2,25,26
 181 46 181 46 181 87 c 2,27,-1
 181 208 l 2,16,17
EndSplineSet
EndChar

StartChar: p
Encoding: 112 112 83
Width: 267
GlyphClass: 2
Flags: W
LayerCount: 2
Back
Fore
SplineSet
120 -8 m 2,0,1
 97 -8 97 -8 81 1 c 1,2,-1
 81 -68 l 2,3,4
 81 -74 81 -74 76.5 -81.5 c 128,-1,5
 72 -89 72 -89 62 -89 c 2,6,-1
 55 -89 l 2,7,8
 44 -89 44 -89 40 -81 c 128,-1,9
 36 -73 36 -73 36 -68 c 2,10,-1
 36 274 l 2,11,12
 36 280 36 280 40.5 287 c 128,-1,13
 45 294 45 294 55 294 c 2,14,-1
 62 294 l 2,15,16
 74 294 74 294 79 285 c 1,17,18
 95 294 95 294 120 294 c 2,19,-1
 156 294 l 2,20,21
 192 294 192 294 214.5 271 c 128,-1,22
 237 248 237 248 237 206 c 2,23,-1
 237 80 l 2,24,25
 237 38 237 38 214.5 15 c 128,-1,26
 192 -8 192 -8 156 -8 c 2,27,-1
 120 -8 l 2,0,1
191 206 m 2,28,29
 191 247 191 247 156 247 c 2,30,-1
 120 247 l 2,31,32
 81 247 81 247 81 209 c 2,33,-1
 81 79 l 2,34,35
 81 40 81 40 120 40 c 2,36,-1
 156 40 l 2,37,38
 191 40 191 40 191 81 c 2,39,-1
 191 206 l 2,28,29
EndSplineSet
EndChar

StartChar: q
Encoding: 113 113 84
Width: 261
GlyphClass: 2
Flags: W
LayerCount: 2
Back
Fore
SplineSet
203 -89 m 2,0,1
 192 -89 192 -89 188.5 -81 c 128,-1,2
 185 -73 185 -73 185 -68 c 2,3,-1
 185 1 l 1,4,5
 180 -1 180 -1 175 -3 c 128,-1,6
 170 -5 170 -5 165 -7 c 0,7,8
 160 -8 160 -8 154.5 -8 c 128,-1,9
 149 -8 149 -8 144 -8 c 2,10,-1
 110 -8 l 2,11,12
 72 -8 72 -8 50.5 15 c 128,-1,13
 29 38 29 38 29 80 c 2,14,-1
 29 206 l 2,15,16
 29 248 29 248 50.5 271 c 128,-1,17
 72 294 72 294 110 294 c 2,18,-1
 210 294 l 2,19,20
 220 294 220 294 225 288 c 128,-1,21
 230 282 230 282 230 274 c 2,22,-1
 230 -68 l 2,23,24
 230 -74 230 -74 225.5 -81.5 c 128,-1,25
 221 -89 221 -89 210 -89 c 2,26,-1
 203 -89 l 2,0,1
110 245 m 2,27,28
 74 245 74 245 74 206 c 2,29,-1
 74 81 l 2,30,31
 74 40 74 40 110 40 c 2,32,-1
 144 40 l 2,33,34
 185 40 185 40 185 81 c 2,35,-1
 186 217 l 1,36,-1
 186 231 l 1,37,-1
 186 238 l 1,38,39
 182 247 182 247 171 245 c 2,40,-1
 110 245 l 2,27,28
EndSplineSet
EndChar

StartChar: r
Encoding: 114 114 85
Width: 150
GlyphClass: 2
Flags: W
LayerCount: 2
Back
Fore
SplineSet
95 248 m 2,0,1
 80 248 80 248 70.5 236.5 c 128,-1,2
 61 225 61 225 61 203 c 2,3,-1
 61 21 l 2,4,5
 61 13 61 13 56.5 6.5 c 128,-1,6
 52 0 52 0 43 0 c 2,7,-1
 37 0 l 2,8,9
 27 0 27 0 23.5 7.5 c 128,-1,10
 20 15 20 15 20 21 c 2,11,-1
 20 274 l 2,12,13
 20 280 20 280 23.5 287 c 128,-1,14
 27 294 27 294 37 294 c 2,15,-1
 43 294 l 2,16,17
 55 294 55 294 59 284 c 1,18,19
 66 288 66 288 75 291 c 128,-1,20
 84 294 84 294 96 294 c 2,21,-1
 113 294 l 2,22,23
 121 294 121 294 126 287.5 c 128,-1,24
 131 281 131 281 131 274 c 2,25,-1
 131 268 l 2,26,27
 131 258 131 258 125.5 253 c 128,-1,28
 120 248 120 248 113 248 c 2,29,-1
 95 248 l 2,0,1
EndSplineSet
EndChar

StartChar: s
Encoding: 115 115 86
Width: 224
GlyphClass: 2
Flags: W
LayerCount: 2
Back
Fore
SplineSet
44 0 m 2,0,1
 38 0 38 0 31.5 5 c 128,-1,2
 25 10 25 10 25 20 c 2,3,-1
 25 26 l 2,4,5
 25 46 25 46 44 46 c 2,6,-1
 126 46 l 2,7,8
 146 46 146 46 153 53 c 128,-1,9
 160 60 160 60 160 72 c 2,10,-1
 160 87 l 2,11,12
 160 103 160 103 156 109.5 c 128,-1,13
 152 116 152 116 140 121 c 2,14,-1
 77 144 l 2,15,16
 47 155 47 155 34.5 172.5 c 128,-1,17
 22 190 22 190 22 221 c 0,18,19
 22 257 22 257 41.5 275.5 c 128,-1,20
 61 294 61 294 97 294 c 2,21,-1
 174 294 l 2,22,23
 184 294 184 294 188.5 287 c 128,-1,24
 193 280 193 280 193 274 c 2,25,-1
 193 268 l 2,26,27
 193 248 193 248 174 248 c 2,28,-1
 97 248 l 2,29,30
 79 248 79 248 73.5 241.5 c 128,-1,31
 68 235 68 235 68 228 c 2,32,-1
 68 214 l 2,33,34
 68 204 68 204 72 199.5 c 128,-1,35
 76 195 76 195 91 189 c 2,36,-1
 154 164 l 2,37,38
 184 152 184 152 194 130.5 c 128,-1,39
 204 109 204 109 204 75 c 0,40,41
 204 36 204 36 184 18 c 128,-1,42
 164 0 164 0 126 0 c 2,43,-1
 44 0 l 2,0,1
EndSplineSet
EndChar

StartChar: t
Encoding: 116 116 87
Width: 185
GlyphClass: 2
Flags: W
LayerCount: 2
Back
Fore
SplineSet
133 0 m 2,0,1
 97 0 97 0 74 23.5 c 128,-1,2
 51 47 51 47 51 86 c 2,3,-1
 51 252 l 1,4,-1
 32 252 l 2,5,6
 25 252 25 252 19 257 c 128,-1,7
 13 262 13 262 13 272 c 2,8,-1
 13 279 l 2,9,10
 13 287 13 287 18 293 c 128,-1,11
 23 299 23 299 32 299 c 2,12,-1
 51 299 l 1,13,-1
 51 328 l 2,14,15
 51 335 51 335 56 342.5 c 128,-1,16
 61 350 61 350 71 350 c 2,17,-1
 78 350 l 2,18,19
 89 350 89 350 92.5 341.5 c 128,-1,20
 96 333 96 333 96 328 c 2,21,-1
 96 299 l 1,22,-1
 145 299 l 2,23,24
 155 299 155 299 159.5 293 c 128,-1,25
 164 287 164 287 164 279 c 2,26,-1
 164 272 l 2,27,28
 164 262 164 262 158 257 c 128,-1,29
 152 252 152 252 145 252 c 2,30,-1
 96 252 l 1,31,-1
 96 86 l 2,32,33
 96 47 96 47 133 47 c 2,34,-1
 150 47 l 2,35,36
 159 47 159 47 164 41 c 128,-1,37
 169 35 169 35 169 27 c 2,38,-1
 169 20 l 2,39,40
 169 10 169 10 163 5 c 128,-1,41
 157 0 157 0 150 0 c 2,42,-1
 133 0 l 2,0,1
EndSplineSet
EndChar

StartChar: u
Encoding: 117 117 88
Width: 254
GlyphClass: 2
Flags: W
LayerCount: 2
Back
Fore
SplineSet
203 0 m 2,0,1
 190 0 190 0 186 9 c 1,2,3
 169 0 169 0 144 0 c 2,4,-1
 109 0 l 2,5,6
 72 0 72 0 49.5 23.5 c 128,-1,7
 27 47 27 47 27 86 c 2,8,-1
 27 274 l 2,9,10
 27 282 27 282 32.5 288 c 128,-1,11
 38 294 38 294 47 294 c 2,12,-1
 55 294 l 2,13,14
 64 294 64 294 69 287 c 128,-1,15
 74 280 74 280 74 274 c 2,16,-1
 74 87 l 2,17,18
 74 46 74 46 109 46 c 2,19,-1
 144 46 l 2,20,21
 183 46 183 46 183 84 c 2,22,-1
 183 274 l 2,23,24
 183 282 183 282 188 288 c 128,-1,25
 193 294 193 294 203 294 c 2,26,-1
 209 294 l 2,27,28
 219 294 219 294 223.5 287 c 128,-1,29
 228 280 228 280 228 274 c 2,30,-1
 228 21 l 2,31,32
 228 14 228 14 223.5 7 c 128,-1,33
 219 0 219 0 209 0 c 2,34,-1
 203 0 l 2,0,1
EndSplineSet
EndChar

StartChar: v
Encoding: 118 118 89
Width: 241
GlyphClass: 2
Flags: W
LayerCount: 2
Back
Fore
SplineSet
144 15 m 2,0,1
 142 9 142 9 137.5 4.5 c 128,-1,2
 133 0 133 0 125 0 c 2,3,-1
 113 0 l 2,4,5
 104 0 104 0 99.5 5.5 c 128,-1,6
 95 11 95 11 94 15 c 2,7,-1
 16 268 l 2,8,9
 14 276 14 276 17.5 285 c 128,-1,10
 21 294 21 294 34 294 c 2,11,-1
 42 294 l 2,12,13
 51 294 51 294 55.5 288.5 c 128,-1,14
 60 283 60 283 61 280 c 2,15,-1
 119 86 l 1,16,17
 126 111 126 111 136.5 144.5 c 128,-1,18
 147 178 147 178 156 208 c 2,19,-1
 178 279 l 2,20,21
 178 282 178 282 182.5 288 c 128,-1,22
 187 294 187 294 196 294 c 2,23,-1
 204 294 l 2,24,25
 217 294 217 294 220.5 285 c 128,-1,26
 224 276 224 276 222 268 c 2,27,-1
 144 15 l 2,0,1
EndSplineSet
EndChar

StartChar: w
Encoding: 119 119 90
Width: 388
GlyphClass: 2
Flags: W
LayerCount: 2
Back
Fore
SplineSet
297 16 m 2,0,1
 293 0 293 0 276 0 c 2,2,-1
 264 0 l 2,3,4
 247 0 247 0 243 16 c 2,5,-1
 192 193 l 1,6,-1
 141 15 l 2,7,8
 139 9 139 9 133.5 4.5 c 128,-1,9
 128 0 128 0 120 0 c 2,10,-1
 109 0 l 2,11,12
 92 0 92 0 88 16 c 2,13,-1
 9 269 l 2,14,15
 8 276 8 276 11.5 285 c 128,-1,16
 15 294 15 294 28 294 c 2,17,-1
 36 294 l 2,18,19
 52 294 52 294 56 278 c 2,20,-1
 114 91 l 1,21,-1
 168 278 l 2,22,23
 172 294 172 294 189 294 c 2,24,-1
 197 294 l 2,25,26
 206 294 206 294 210.5 289 c 128,-1,27
 215 284 215 284 217 278 c 2,28,-1
 270 91 l 1,29,-1
 327 280 l 2,30,31
 329 284 329 284 334 289 c 128,-1,32
 339 294 339 294 348 294 c 2,33,-1
 357 294 l 2,34,35
 369 294 369 294 373 285 c 128,-1,36
 377 276 377 276 375 269 c 2,37,-1
 297 16 l 2,0,1
EndSplineSet
EndChar

StartChar: x
Encoding: 120 120 91
Width: 225
GlyphClass: 2
Flags: W
LayerCount: 2
Back
Fore
SplineSet
183 0 m 2,0,1
 176 0 176 0 171.5 4.5 c 128,-1,2
 167 9 167 9 165 13 c 2,3,-1
 112 109 l 1,4,-1
 58 12 l 2,5,6
 56 9 56 9 51 4.5 c 128,-1,7
 46 0 46 0 38 0 c 2,8,-1
 29 0 l 2,9,10
 19 0 19 0 15.5 3.5 c 128,-1,11
 12 7 12 7 11.5 12 c 128,-1,12
 11 17 11 17 12.5 22 c 128,-1,13
 14 27 14 27 15 30 c 2,14,-1
 83 150 l 1,15,-1
 19 266 l 2,16,17
 17 268 17 268 16 273 c 128,-1,18
 15 278 15 278 16.5 282.5 c 128,-1,19
 18 287 18 287 22 290.5 c 128,-1,20
 26 294 26 294 34 294 c 2,21,-1
 44 294 l 2,22,23
 50 294 50 294 55 290 c 128,-1,24
 60 286 60 286 62 282 c 2,25,-1
 112 192 l 1,26,-1
 160 281 l 2,27,28
 162 286 162 286 166.5 290 c 128,-1,29
 171 294 171 294 180 294 c 2,30,-1
 189 294 l 2,31,32
 198 294 198 294 201.5 290.5 c 128,-1,33
 205 287 205 287 205.5 282.5 c 128,-1,34
 206 278 206 278 205 273 c 128,-1,35
 204 268 204 268 203 266 c 2,36,-1
 140 150 l 1,37,-1
 209 29 l 2,38,39
 210 27 210 27 211 22 c 128,-1,40
 212 17 212 17 211 12 c 128,-1,41
 210 7 210 7 206.5 3.5 c 128,-1,42
 203 0 203 0 194 0 c 2,43,-1
 183 0 l 2,0,1
EndSplineSet
EndChar

StartChar: y
Encoding: 121 121 92
Width: 256
GlyphClass: 2
Flags: W
LayerCount: 2
Back
Fore
SplineSet
156 22 m 2,0,1
 148 -1 148 -1 141.5 -17 c 128,-1,2
 135 -33 135 -33 130 -41 c 0,3,4
 104 -85 104 -85 57 -85 c 2,5,-1
 44 -85 l 2,6,7
 37 -85 37 -85 29.5 -80.5 c 128,-1,8
 22 -76 22 -76 22 -64 c 2,9,-1
 22 -58 l 2,10,11
 22 -48 22 -48 28.5 -43 c 128,-1,12
 35 -38 35 -38 44 -38 c 2,13,-1
 57 -38 l 2,14,15
 78 -38 78 -38 88 -22 c 128,-1,16
 98 -6 98 -6 105 14 c 1,17,18
 85 68 85 68 61 136 c 128,-1,19
 37 204 37 204 15 268 c 0,20,21
 13 274 13 274 16 284 c 128,-1,22
 19 294 19 294 32 294 c 2,23,-1
 40 294 l 2,24,25
 50 294 50 294 54 288 c 128,-1,26
 58 282 58 282 60 279 c 2,27,-1
 127 82 l 1,28,-1
 169 205 l 1,29,-1
 194 279 l 2,30,31
 197 285 197 285 202 289.5 c 128,-1,32
 207 294 207 294 215 294 c 2,33,-1
 222 294 l 2,34,35
 236 294 236 294 238.5 284 c 128,-1,36
 241 274 241 274 240 268 c 2,37,-1
 156 22 l 2,0,1
EndSplineSet
EndChar

StartChar: z
Encoding: 122 122 93
Width: 217
GlyphClass: 2
Flags: W
LayerCount: 2
Back
Fore
SplineSet
36 0 m 2,0,1
 30 0 30 0 22.5 4.5 c 128,-1,2
 15 9 15 9 15 20 c 2,3,-1
 15 25 l 2,4,5
 15 29 15 29 16.5 32 c 128,-1,6
 18 35 18 35 19 37 c 2,7,-1
 139 248 l 1,8,-1
 38 248 l 2,9,10
 19 248 19 248 19 268 c 2,11,-1
 19 274 l 2,12,13
 19 280 19 280 23.5 287 c 128,-1,14
 28 294 28 294 38 294 c 2,15,-1
 180 294 l 2,16,17
 187 294 187 294 193 289 c 128,-1,18
 199 284 199 284 199 274 c 2,19,-1
 199 268 l 2,20,21
 199 259 199 259 196 256 c 2,22,-1
 76 46 l 1,23,-1
 183 46 l 2,24,25
 192 46 192 46 197 39 c 128,-1,26
 202 32 202 32 202 26 c 2,27,-1
 202 20 l 2,28,29
 202 12 202 12 197 6 c 128,-1,30
 192 0 192 0 183 0 c 2,31,-1
 36 0 l 2,0,1
EndSplineSet
EndChar

StartChar: braceleft
Encoding: 123 123 94
Width: 165
GlyphClass: 2
Flags: W
LayerCount: 2
Back
Fore
SplineSet
117 -69 m 2,0,1
 82 -69 82 -69 69 -42 c 0,2,3
 55 -12 55 -12 55 24 c 2,4,-1
 55 129 l 2,5,6
 55 150 55 150 51 154 c 0,7,8
 46 159 46 159 40 158 c 0,9,10
 31 160 31 160 27 164 c 0,11,12
 21 168 21 168 21 179 c 2,13,-1
 21 186 l 2,14,15
 21 196 21 196 25 201 c 0,16,17
 29 208 29 208 40 208 c 0,18,19
 47 208 47 208 51 212 c 256,20,21
 55 216 55 216 55 237 c 2,22,-1
 55 341 l 2,23,24
 55 354 55 354 58 377 c 0,25,26
 60 391 60 391 69 406 c 0,27,28
 73 413 73 413 88 427 c 0,29,30
 99 435 99 435 117 435 c 2,31,-1
 119 435 l 2,32,33
 129 435 129 435 133 428 c 0,34,35
 138 420 138 420 138 412 c 2,36,-1
 138 406 l 2,37,38
 138 396 138 396 132 390 c 256,39,40
 126 384 126 384 119 384 c 2,41,-1
 117 384 l 2,42,43
 108 384 108 384 104 377 c 0,44,45
 98 371 98 371 98 340 c 2,46,-1
 98 237 l 2,47,48
 98 226 98 226 95 207 c 0,49,50
 93 193 93 193 86 183 c 1,51,52
 93 171 93 171 95 159 c 0,53,54
 96 151 96 151 96 146 c 128,-1,55
 96 141 96 141 97 137 c 0,56,57
 97 133 97 133 98 130 c 2,58,-1
 98 24 l 2,59,60
 98 -5 98 -5 104 -12 c 0,61,62
 108 -19 108 -19 117 -19 c 2,63,-1
 119 -19 l 2,64,65
 128 -19 128 -19 133 -25 c 0,66,67
 138 -33 138 -33 138 -41 c 2,68,-1
 138 -48 l 2,69,70
 138 -57 138 -57 132 -63 c 256,71,72
 126 -69 126 -69 119 -69 c 2,73,-1
 117 -69 l 2,0,1
EndSplineSet
EndChar

StartChar: bar
Encoding: 124 124 95
Width: 110
GlyphClass: 2
Flags: W
LayerCount: 2
Back
Fore
SplineSet
50 0 m 2,0,1
 39 0 39 0 34 8 c 0,2,3
 30 17 30 17 30 22 c 2,4,-1
 30 398 l 2,5,6
 30 406 30 406 34 413 c 0,7,8
 39 421 39 421 50 421 c 2,9,-1
 57 421 l 2,10,11
 77 421 77 421 77 398 c 2,12,-1
 77 22 l 2,13,14
 77 0 77 0 57 0 c 2,15,-1
 50 0 l 2,0,1
EndSplineSet
EndChar

StartChar: braceright
Encoding: 125 125 96
Width: 165
GlyphClass: 2
Flags: W
LayerCount: 2
Back
Fore
SplineSet
38 -69 m 2,0,1
 31 -69 31 -69 25 -63 c 256,2,3
 19 -57 19 -57 19 -48 c 2,4,-1
 19 -41 l 2,5,6
 19 -33 19 -33 24 -25 c 0,7,8
 28 -19 28 -19 38 -19 c 2,9,-1
 40 -19 l 2,10,11
 48 -19 48 -19 54 -12 c 0,12,13
 59 -4 59 -4 59 24 c 2,14,-1
 59 130 l 2,15,16
 59 133 59 133 60 137 c 0,17,18
 60 141 60 141 60.5 146 c 128,-1,19
 61 151 61 151 62 159 c 0,20,21
 64 172 64 172 72 183 c 1,22,23
 63 195 63 195 62 207 c 0,24,25
 59 226 59 226 59 237 c 2,26,-1
 59 340 l 2,27,28
 59 370 59 370 54 377 c 0,29,30
 48 384 48 384 40 384 c 2,31,-1
 38 384 l 2,32,33
 31 384 31 384 25 390 c 256,34,35
 19 396 19 396 19 406 c 2,36,-1
 19 412 l 2,37,38
 19 420 19 420 24 428 c 0,39,40
 28 435 28 435 38 435 c 2,41,-1
 40 435 l 2,42,43
 58 435 58 435 69 427 c 0,44,45
 84 413 84 413 88 406 c 0,46,47
 97 391 97 391 99 377 c 0,48,49
 102 354 102 354 102 341 c 2,50,-1
 102 237 l 2,51,52
 102 216 102 216 106 212 c 256,53,54
 110 208 110 208 117 208 c 0,55,56
 128 208 128 208 132 201 c 0,57,58
 136 196 136 196 136 186 c 2,59,-1
 136 179 l 2,60,61
 136 168 136 168 130 164 c 0,62,63
 126 160 126 160 117 158 c 0,64,65
 111 159 111 159 106 154 c 0,66,67
 102 150 102 150 102 129 c 2,68,-1
 102 24 l 2,69,70
 102 -12 102 -12 88 -42 c 0,71,72
 74 -69 74 -69 40 -69 c 2,73,-1
 38 -69 l 2,0,1
EndSplineSet
EndChar

StartChar: asciitilde
Encoding: 126 126 97
Width: 311
GlyphClass: 2
Flags: W
LayerCount: 2
Back
Fore
SplineSet
207 171 m 0,0,1
 197 171 197 171 183 172 c 128,-1,2
 169 173 169 173 151 175 c 0,3,4
 119 178 119 178 108 178 c 0,5,6
 104 178 104 178 93.5 176.5 c 128,-1,7
 83 175 83 175 65 173 c 0,8,9
 58 173 58 173 50 176 c 128,-1,10
 42 179 42 179 42 186 c 2,11,-1
 42 196 l 2,12,13
 42 200 42 200 61 207 c 128,-1,14
 80 214 80 214 104 214 c 0,15,16
 114 214 114 214 128 213 c 128,-1,17
 142 212 142 212 160 211 c 0,18,19
 176 209 176 209 186.5 208 c 128,-1,20
 197 207 197 207 203 207 c 0,21,22
 207 207 207 207 218 208.5 c 128,-1,23
 229 210 229 210 246 212 c 0,24,25
 253 212 253 212 260.5 209.5 c 128,-1,26
 268 207 268 207 268 199 c 2,27,-1
 268 189 l 2,28,29
 268 184 268 184 249.5 177.5 c 128,-1,30
 231 171 231 171 207 171 c 0,0,1
EndSplineSet
EndChar

StartChar: cent
Encoding: 162 162 98
Width: 248
GlyphClass: 2
Flags: W
LayerCount: 2
Back
Fore
SplineSet
177 -4 m 1,0,-1
 177 -32 l 2,1,2
 177 -39 177 -39 172 -46.5 c 128,-1,3
 167 -54 167 -54 158 -54 c 2,4,-1
 150 -54 l 2,5,6
 140 -54 140 -54 135 -46.5 c 128,-1,7
 130 -39 130 -39 130 -32 c 2,8,-1
 130 -4 l 1,9,-1
 126 -4 l 2,10,11
 87 -4 87 -4 64.5 21 c 128,-1,12
 42 46 42 46 42 89 c 2,13,-1
 42 221 l 2,14,15
 42 266 42 266 64.5 290.5 c 128,-1,16
 87 315 87 315 126 315 c 2,17,-1
 130 315 l 1,18,-1
 130 351 l 2,19,20
 130 360 130 360 135.5 366.5 c 128,-1,21
 141 373 141 373 150 373 c 2,22,-1
 158 373 l 2,23,24
 166 373 166 373 171.5 366.5 c 128,-1,25
 177 360 177 360 177 351 c 2,26,-1
 177 315 l 1,27,-1
 207 315 l 2,28,29
 217 315 217 315 222.5 308.5 c 128,-1,30
 228 302 228 302 228 292 c 2,31,-1
 228 286 l 2,32,33
 228 275 228 275 221 270 c 128,-1,34
 214 265 214 265 207 265 c 2,35,-1
 126 265 l 2,36,37
 89 265 89 265 89 221 c 2,38,-1
 89 90 l 2,39,40
 89 46 89 46 126 46 c 2,41,-1
 207 46 l 2,42,43
 217 46 217 46 222.5 39 c 128,-1,44
 228 32 228 32 228 23 c 2,45,-1
 228 17 l 2,46,47
 228 7 228 7 221 1.5 c 128,-1,48
 214 -4 214 -4 207 -4 c 2,49,-1
 177 -4 l 1,0,-1
EndSplineSet
EndChar

StartChar: copyright
Encoding: 169 169 99
Width: 441
GlyphClass: 2
Flags: W
LayerCount: 2
Back
Fore
SplineSet
136 0 m 2,0,1
 94 0 94 0 69.5 25 c 128,-1,2
 45 50 45 50 45 93 c 2,3,-1
 45 298 l 2,4,5
 45 340 45 340 69.5 365.5 c 128,-1,6
 94 391 94 391 136 391 c 2,7,-1
 306 391 l 2,8,9
 346 391 346 391 371.5 365.5 c 128,-1,10
 397 340 397 340 397 298 c 2,11,-1
 397 93 l 2,12,13
 397 50 397 50 371.5 25 c 128,-1,14
 346 0 346 0 306 0 c 2,15,-1
 136 0 l 2,0,1
346 297 m 2,16,17
 346 341 346 341 306 341 c 2,18,-1
 136 341 l 2,19,20
 96 341 96 341 96 297 c 2,21,-1
 96 94 l 2,22,23
 96 50 96 50 136 50 c 2,24,-1
 306 50 l 2,25,26
 346 50 346 50 346 94 c 2,27,-1
 346 297 l 2,16,17
213 65 m 2,28,29
 173 65 173 65 150 85 c 0,30,31
 128 104 128 104 128 146 c 2,32,-1
 128 239 l 2,33,34
 128 283 128 283 150 302 c 0,35,36
 172 320 172 320 213 320 c 2,37,-1
 225 320 l 2,38,39
 265 320 265 320 288 302 c 0,40,41
 310 283 310 283 310 239 c 2,42,-1
 310 236 l 2,43,44
 310 214 310 214 288 214 c 2,45,-1
 281 214 l 2,46,47
 269 214 269 214 265 221 c 0,48,49
 260 229 260 229 260 236 c 2,50,-1
 260 239 l 2,51,52
 260 259 260 259 253 265 c 0,53,54
 247 271 247 271 225 271 c 2,55,-1
 213 271 l 2,56,57
 192 271 192 271 185 265 c 0,58,59
 179 259 179 259 179 239 c 2,60,-1
 179 147 l 2,61,62
 179 127 179 127 185.5 120.5 c 128,-1,63
 192 114 192 114 213 114 c 2,64,-1
 225 114 l 2,65,66
 247 114 247 114 253 121 c 0,67,68
 260 127 260 127 260 147 c 2,69,-1
 260 148 l 2,70,71
 260 155 260 155 265 163 c 0,72,73
 269 170 269 170 281 170 c 2,74,-1
 288 170 l 2,75,76
 310 170 310 170 310 148 c 2,77,-1
 310 146 l 2,78,79
 310 104 310 104 288 85 c 0,80,81
 265 65 265 65 225 65 c 2,82,-1
 213 65 l 2,28,29
EndSplineSet
EndChar

StartChar: registered
Encoding: 174 174 100
Width: 447
GlyphClass: 2
Flags: W
LayerCount: 2
Back
Fore
SplineSet
290 72 m 2,0,1
 282 72 282 72 278 75 c 0,2,3
 276 77 276 77 274 78.5 c 128,-1,4
 272 80 272 80 271 82 c 2,5,-1
 216 161 l 1,6,-1
 174 161 l 1,7,-1
 174 90 l 2,8,9
 174 81 174 81 167 77 c 0,10,11
 160 72 160 72 154 72 c 2,12,-1
 145 72 l 2,13,14
 138 72 138 72 133 76 c 0,15,16
 126 79 126 79 126 90 c 2,17,-1
 126 299 l 2,18,19
 126 310 126 310 132 312 c 0,20,21
 145 316 145 316 145 317 c 2,22,-1
 234 317 l 2,23,24
 278 317 278 317 293 297 c 0,25,26
 314 268 314 268 314 242 c 2,27,-1
 314 237 l 2,28,29
 314 183 314 183 266 167 c 1,30,-1
 318 95 l 1,31,32
 318 95 318 95 320 89 c 0,33,34
 321 85 321 85 320 82 c 0,35,36
 318 78 318 78 314.5 75 c 128,-1,37
 311 72 311 72 304 72 c 2,38,-1
 290 72 l 2,0,1
266 241 m 2,39,40
 266 275 266 275 233 275 c 2,41,-1
 174 275 l 1,42,-1
 174 204 l 1,43,-1
 233 204 l 2,44,45
 266 204 266 204 266 237 c 2,46,-1
 266 241 l 2,39,40
136 0 m 2,47,48
 94 0 94 0 69.5 25 c 128,-1,49
 45 50 45 50 45 93 c 2,50,-1
 45 298 l 2,51,52
 45 340 45 340 69.5 365.5 c 128,-1,53
 94 391 94 391 136 391 c 2,54,-1
 306 391 l 2,55,56
 346 391 346 391 371.5 365.5 c 128,-1,57
 397 340 397 340 397 298 c 2,58,-1
 397 93 l 2,59,60
 397 50 397 50 371.5 25 c 128,-1,61
 346 0 346 0 306 0 c 2,62,-1
 136 0 l 2,47,48
346 297 m 2,63,64
 346 341 346 341 306 341 c 2,65,-1
 136 341 l 2,66,67
 96 341 96 341 96 297 c 2,68,-1
 96 94 l 2,69,70
 96 50 96 50 136 50 c 2,71,-1
 306 50 l 2,72,73
 346 50 346 50 346 94 c 2,74,-1
 346 297 l 2,63,64
136 0 m 2,75,76
 94 0 94 0 69.5 25 c 128,-1,77
 45 50 45 50 45 93 c 2,78,-1
 45 298 l 2,79,80
 45 340 45 340 69.5 365.5 c 128,-1,81
 94 391 94 391 136 391 c 2,82,-1
 306 391 l 2,83,84
 346 391 346 391 371.5 365.5 c 128,-1,85
 397 340 397 340 397 298 c 2,86,-1
 397 93 l 2,87,88
 397 50 397 50 371.5 25 c 128,-1,89
 346 0 346 0 306 0 c 2,90,-1
 136 0 l 2,75,76
346 297 m 2,91,92
 346 341 346 341 306 341 c 2,93,-1
 136 341 l 2,94,95
 96 341 96 341 96 297 c 2,96,-1
 96 94 l 2,97,98
 96 50 96 50 136 50 c 2,99,-1
 306 50 l 2,100,101
 346 50 346 50 346 94 c 2,102,-1
 346 297 l 2,91,92
EndSplineSet
EndChar

StartChar: onequarter
Encoding: 188 188 101
Width: 518
GlyphClass: 2
Flags: W
LayerCount: 2
Back
Fore
SplineSet
444 88 m 1,0,-1
 444 182 l 1,1,-1
 374 88 l 1,2,-1
 444 88 l 1,0,-1
444 -8 m 1,3,-1
 444 52 l 1,4,-1
 325 52 l 1,5,-1
 325 83 l 1,6,-1
 446 244 l 1,7,-1
 485 244 l 1,8,-1
 485 88 l 1,9,-1
 521 88 l 1,10,-1
 521 52 l 1,11,-1
 485 52 l 1,12,-1
 485 -8 l 1,13,-1
 444 -8 l 1,3,-1
96 -21 m 1,14,-1
 386 442 l 1,15,-1
 437 442 l 1,16,-1
 148 -21 l 1,17,-1
 96 -21 l 1,14,-1
104 177 m 1,18,-1
 104 367 l 1,19,20
 114 367 114 367 112 365.5 c 128,-1,21
 110 364 110 364 98 362 c 0,22,23
 85 359 85 359 73 358.5 c 128,-1,24
 61 358 61 358 48 358 c 2,25,-1
 36 358 l 1,26,-1
 36 389 l 1,27,-1
 45 389 l 2,28,29
 76 389 76 389 90 398.5 c 128,-1,30
 104 408 104 408 107 436 c 1,31,-1
 146 436 l 1,32,-1
 146 177 l 1,33,-1
 104 177 l 1,18,-1
EndSplineSet
EndChar

StartChar: onehalf
Encoding: 189 189 102
Width: 518
GlyphClass: 2
Flags: W
LayerCount: 2
Back
Fore
SplineSet
324 -8 m 1,0,-1
 324 7 l 2,1,2
 324 37 324 37 341 59 c 128,-1,3
 358 81 358 81 395 102 c 0,4,5
 400 104 400 104 406.5 107.5 c 128,-1,6
 413 111 413 111 420 115 c 0,7,8
 437 123 437 123 447 129.5 c 128,-1,9
 457 136 457 136 462 140 c 0,10,11
 469 148 469 148 472.5 155 c 128,-1,12
 476 162 476 162 476 172 c 0,13,14
 476 215 476 215 427 215 c 0,15,16
 400 215 400 215 386.5 201.5 c 128,-1,17
 373 188 373 188 372 155 c 1,18,-1
 330 155 l 1,19,20
 332 206 332 206 357 228.5 c 128,-1,21
 382 251 382 251 428 251 c 0,22,23
 470 251 470 251 494 230 c 128,-1,24
 518 209 518 209 518 172 c 0,25,26
 518 139 518 139 494 117 c 0,27,28
 488 110 488 110 474.5 102.5 c 128,-1,29
 461 95 461 95 441 84 c 2,30,-1
 420 73 l 2,31,32
 390 57 390 57 379 44.5 c 128,-1,33
 368 32 368 32 367 27 c 1,34,-1
 518 27 l 1,35,-1
 518 -8 l 1,36,-1
 324 -8 l 1,0,-1
96 -21 m 1,37,-1
 386 442 l 1,38,-1
 437 442 l 1,39,-1
 148 -21 l 1,40,-1
 96 -21 l 1,37,-1
104 177 m 1,41,-1
 104 367 l 1,42,43
 114 367 114 367 112 365.5 c 128,-1,44
 110 364 110 364 98 362 c 0,45,46
 85 359 85 359 73 358.5 c 128,-1,47
 61 358 61 358 48 358 c 2,48,-1
 36 358 l 1,49,-1
 36 389 l 1,50,-1
 45 389 l 2,51,52
 76 389 76 389 90 398.5 c 128,-1,53
 104 408 104 408 107 436 c 1,54,-1
 146 436 l 1,55,-1
 146 177 l 1,56,-1
 104 177 l 1,41,-1
EndSplineSet
EndChar

StartChar: threequarters
Encoding: 190 190 103
Width: 518
GlyphClass: 2
Flags: W
LayerCount: 2
Back
Fore
SplineSet
444 88 m 1,0,-1
 444 182 l 1,1,-1
 374 88 l 1,2,-1
 444 88 l 1,0,-1
444 -8 m 1,3,-1
 444 52 l 1,4,-1
 325 52 l 1,5,-1
 325 83 l 1,6,-1
 445 244 l 1,7,-1
 485 244 l 1,8,-1
 485 88 l 1,9,-1
 521 88 l 1,10,-1
 521 52 l 1,11,-1
 485 52 l 1,12,-1
 485 -8 l 1,13,-1
 444 -8 l 1,3,-1
96 -21 m 1,14,-1
 386 442 l 1,15,-1
 438 442 l 1,16,-1
 148 -21 l 1,17,-1
 96 -21 l 1,14,-1
13 264 m 1,18,-1
 56 264 l 1,19,20
 57 231 57 231 70.5 218.5 c 128,-1,21
 84 206 84 206 109 206 c 0,22,23
 163 206 163 206 163 251 c 0,24,25
 163 273 163 273 149 283.5 c 128,-1,26
 135 294 135 294 102 294 c 0,27,28
 98 294 98 294 95.5 294 c 128,-1,29
 93 294 93 294 83 292 c 1,30,-1
 83 328 l 1,31,-1
 101 328 l 2,32,33
 156 328 156 328 156 366 c 0,34,35
 156 382 156 382 144 391.5 c 128,-1,36
 132 401 132 401 112 401 c 0,37,38
 89 401 89 401 76 390 c 128,-1,39
 63 379 63 379 63 348 c 1,40,-1
 21 348 l 1,41,42
 24 394 24 394 47 415 c 128,-1,43
 70 436 70 436 112 436 c 0,44,45
 151 436 151 436 174 417 c 128,-1,46
 197 398 197 398 197 366 c 0,47,48
 197 343 197 343 186 329 c 256,49,50
 175 315 175 315 176 315 c 0,51,52
 179 315 179 315 192 296 c 0,53,54
 207 276 207 276 207 251 c 0,55,56
 207 214 207 214 181 192.5 c 128,-1,57
 155 171 155 171 109 171 c 0,58,59
 64 171 64 171 38.5 193 c 128,-1,60
 13 215 13 215 13 255 c 2,61,-1
 13 264 l 1,18,-1
EndSplineSet
EndChar

StartChar: multiply
Encoding: 215 215 104
Width: 356
GlyphClass: 2
Flags: W
LayerCount: 2
Back
Fore
SplineSet
328 311 m 0,0,1
 327 308 327 308 321 300 c 2,2,-1
 213 193 l 1,3,-1
 322 85 l 2,4,5
 326 80 326 80 328 70 c 0,6,7
 329 62 329 62 322 55 c 2,8,-1
 314 47 l 2,9,10
 309 42 309 42 303.5 40.5 c 128,-1,11
 298 39 298 39 293 39 c 2,12,-1
 284 48 l 1,13,-1
 176 156 l 1,14,-1
 68 47 l 2,15,16
 63 42 63 42 54 41 c 2,17,-1
 53 41 l 2,18,19
 45 39 45 39 38 47 c 2,20,-1
 32 54 l 2,21,22
 25 61 25 61 26 70 c 0,23,24
 28 80 28 80 32 84 c 2,25,-1
 140 192 l 1,26,-1
 32 300 l 2,27,28
 28 304 28 304 25 315 c 0,29,30
 25 317 25 317 25.5 319 c 128,-1,31
 26 321 26 321 27 324 c 0,32,33
 28 326 28 326 32 330 c 2,34,-1
 39 337 l 2,35,36
 46 344 46 344 54 343 c 2,37,-1
 55 343 l 2,38,39
 63 343 63 343 69 337 c 2,40,-1
 177 229 l 1,41,-1
 284 336 l 2,42,43
 292 344 292 344 299 343.5 c 128,-1,44
 306 343 306 343 314 336 c 2,45,-1
 321 330 l 2,46,47
 328 323 328 323 328 319 c 0,48,49
 329 315 329 315 328 311 c 0,0,1
EndSplineSet
EndChar

StartChar: divide
Encoding: 247 247 105
Width: 353
GlyphClass: 2
Flags: W
LayerCount: 2
Back
Fore
SplineSet
143 272 m 1,0,-1
 143 312 l 1,1,-1
 187 312 l 1,2,-1
 187 272 l 1,3,-1
 143 272 l 1,0,-1
-1 155 m 1,4,-1
 -1 199 l 1,5,-1
 322 199 l 1,6,-1
 322 155 l 1,7,-1
 -1 155 l 1,4,-1
145 28 m 1,8,-1
 145 69 l 1,9,-1
 190 69 l 1,10,-1
 190 28 l 1,11,-1
 145 28 l 1,8,-1
EndSplineSet
EndChar

StartChar: uni0950
Encoding: 2384 2384 106
Width: 568
GlyphClass: 2
Flags: W
LayerCount: 2
Back
Fore
SplineSet
380 402 m 2,0,1
 369 402 369 402 364.5 408.5 c 128,-1,2
 360 415 360 415 360 422 c 2,3,-1
 360 439 l 2,4,5
 360 446 360 446 364 453.5 c 128,-1,6
 368 461 368 461 380 461 c 2,7,-1
 392 461 l 2,8,9
 403 461 403 461 408 454 c 128,-1,10
 413 447 413 447 413 439 c 2,11,-1
 413 422 l 2,12,13
 413 413 413 413 407 407.5 c 128,-1,14
 401 402 401 402 392 402 c 2,15,-1
 380 402 l 2,0,1
366 328 m 2,16,17
 275 328 275 328 275 420 c 2,18,-1
 275 424 l 2,19,20
 275 435 275 435 281.5 439.5 c 128,-1,21
 288 444 288 444 296 444 c 2,22,-1
 305 444 l 2,23,24
 313 444 313 444 319 438.5 c 128,-1,25
 325 433 325 433 325 424 c 2,26,-1
 325 420 l 2,27,28
 325 394 325 394 332.5 385.5 c 128,-1,29
 340 377 340 377 366 377 c 2,30,-1
 405 377 l 2,31,32
 431 377 431 377 438.5 385.5 c 128,-1,33
 446 394 446 394 446 420 c 2,34,-1
 446 424 l 2,35,36
 446 435 446 435 453 439.5 c 128,-1,37
 460 444 460 444 467 444 c 2,38,-1
 476 444 l 2,39,40
 484 444 484 444 490 438.5 c 128,-1,41
 496 433 496 433 496 424 c 2,42,-1
 496 420 l 2,43,44
 496 328 496 328 405 328 c 2,45,-1
 366 328 l 2,16,17
405 27 m 2,46,47
 360 27 360 27 335.5 50 c 128,-1,48
 311 73 311 73 311 118 c 2,49,-1
 311 166 l 1,50,-1
 259 166 l 1,51,-1
 259 158 l 1,52,-1
 259 128 l 2,53,54
 259 82 259 82 232 54.5 c 128,-1,55
 205 27 205 27 160 27 c 2,56,-1
 137 27 l 2,57,58
 92 27 92 27 64.5 53.5 c 128,-1,59
 37 80 37 80 37 128 c 2,60,-1
 37 153 l 2,61,62
 37 161 37 161 42 167.5 c 128,-1,63
 47 174 47 174 57 174 c 2,64,-1
 66 174 l 2,65,66
 76 174 76 174 81.5 168 c 128,-1,67
 87 162 87 162 87 153 c 2,68,-1
 87 129 l 2,69,70
 87 75 87 75 137 75 c 2,71,-1
 160 75 l 2,72,73
 210 75 210 75 210 129 c 2,74,-1
 210 158 l 2,75,76
 210 208 210 208 160 208 c 2,77,-1
 117 208 l 2,78,79
 106 208 106 208 101.5 214.5 c 128,-1,80
 97 221 97 221 97 229 c 2,81,-1
 97 237 l 2,82,83
 97 245 97 245 103 251 c 128,-1,84
 109 257 109 257 117 257 c 2,85,-1
 160 257 l 2,86,87
 210 257 210 257 210 308 c 2,88,-1
 210 324 l 2,89,90
 210 375 210 375 160 375 c 2,91,-1
 100 375 l 2,92,93
 91 375 91 375 85 380.5 c 128,-1,94
 79 386 79 386 79 396 c 2,95,-1
 79 403 l 2,96,97
 79 413 79 413 85.5 418 c 128,-1,98
 92 423 92 423 100 423 c 2,99,-1
 160 423 l 2,100,101
 205 423 205 423 232 397.5 c 128,-1,102
 259 372 259 372 259 324 c 2,103,-1
 259 307 l 2,104,105
 259 257 259 257 228 233 c 1,106,107
 239 224 239 224 245 214 c 1,108,-1
 321 214 l 2,109,110
 339 214 339 214 349.5 203.5 c 128,-1,111
 360 193 360 193 360 174 c 2,112,-1
 360 119 l 2,113,114
 360 93 360 93 369 84 c 128,-1,115
 378 75 378 75 405 75 c 2,116,-1
 414 75 l 2,117,118
 440 75 440 75 449 84 c 128,-1,119
 458 93 458 93 458 119 c 2,120,-1
 458 217 l 2,121,122
 458 244 458 244 447.5 255 c 128,-1,123
 437 266 437 266 415 266 c 2,124,-1
 341 266 l 2,125,126
 332 266 332 266 326 272 c 128,-1,127
 320 278 320 278 320 287 c 2,128,-1
 320 294 l 2,129,130
 320 305 320 305 326.5 309.5 c 128,-1,131
 333 314 333 314 341 314 c 2,132,-1
 414 314 l 2,133,134
 457 314 457 314 482.5 289.5 c 128,-1,135
 508 265 508 265 508 217 c 2,136,-1
 508 118 l 2,137,138
 508 73 508 73 483.5 50 c 128,-1,139
 459 27 459 27 414 27 c 2,140,-1
 405 27 l 2,46,47
EndSplineSet
EndChar

StartChar: uni0951
Encoding: 2385 2385 107
Width: 0
GlyphClass: 2
Flags: W
LayerCount: 2
Back
Fore
SplineSet
-174 667 m 1,0,-1
 -223 667 l 1,1,-1
 -223 1020 l 1,2,-1
 -174 1020 l 1,3,-1
 -174 667 l 1,0,-1
EndSplineSet
EndChar

StartChar: uni0952
Encoding: 2386 2386 108
Width: 0
GlyphClass: 2
Flags: W
LayerCount: 2
Back
Fore
SplineSet
-47 -362 m 1,0,-1
 -506 -362 l 1,1,-1
 -507 -316 l 1,2,-1
 -48 -316 l 1,3,-1
 -47 -362 l 1,0,-1
EndSplineSet
EndChar

StartChar: uni0964
Encoding: 2404 2404 109
Width: 109
GlyphClass: 2
Flags: W
LayerCount: 2
Back
Fore
SplineSet
0 0 m 1,0,-1
 0 301 l 1,1,-1
 51 301 l 1,2,-1
 51 0 l 1,3,-1
 0 0 l 1,0,-1
EndSplineSet
EndChar

StartChar: uni0965
Encoding: 2405 2405 110
Width: 262
GlyphClass: 2
Flags: W
LayerCount: 2
Back
Fore
SplineSet
30 0 m 1,0,-1
 30 301 l 1,1,-1
 81 301 l 1,2,-1
 81 0 l 1,3,-1
 30 0 l 1,0,-1
140 0 m 1,4,-1
 140 301 l 1,5,-1
 191 301 l 1,6,-1
 191 0 l 1,7,-1
 140 0 l 1,4,-1
EndSplineSet
EndChar

StartChar: uni0C01
Encoding: 3073 3073 111
Width: 214
GlyphClass: 2
Flags: W
LayerCount: 2
Back
Fore
SplineSet
61 0 m 2,0,1
 38 0 38 0 19 18.5 c 128,-1,2
 0 37 0 37 0 66 c 2,3,-1
 0 263 l 2,4,5
 0 291 0 291 19 309.5 c 128,-1,6
 38 328 38 328 61 328 c 2,7,-1
 162 328 l 1,8,-1
 162 280 l 1,9,-1
 64 280 l 2,10,11
 47 280 47 280 47 263 c 2,12,-1
 47 66 l 2,13,14
 47 48 47 48 64 48 c 2,15,-1
 162 48 l 1,16,-1
 162 0 l 1,17,-1
 61 0 l 2,0,1
EndSplineSet
EndChar

StartChar: uni0C02
Encoding: 3074 3074 112
Width: 313
GlyphClass: 2
Flags: W
LayerCount: 2
Back
Fore
SplineSet
67 0 m 2,0,1
 44 0 44 0 24.5 18.5 c 128,-1,2
 5 37 5 37 5 66 c 2,3,-1
 5 263 l 2,4,5
 5 291 5 291 24.5 309.5 c 128,-1,6
 44 328 44 328 67 328 c 2,7,-1
 202 328 l 2,8,9
 225 328 225 328 244.5 309.5 c 128,-1,10
 264 291 264 291 264 263 c 2,11,-1
 264 66 l 2,12,13
 264 46 264 46 256.5 33.5 c 128,-1,14
 249 21 249 21 239.5 13.5 c 128,-1,15
 230 6 230 6 220 3 c 128,-1,16
 210 0 210 0 204 0 c 2,17,-1
 67 0 l 2,0,1
216 263 m 2,18,19
 216 272 216 272 211 276 c 128,-1,20
 206 280 206 280 200 280 c 2,21,-1
 70 280 l 2,22,23
 53 280 53 280 53 263 c 2,24,-1
 53 66 l 2,25,26
 53 48 53 48 70 48 c 2,27,-1
 200 48 l 2,28,29
 206 48 206 48 211 52.5 c 128,-1,30
 216 57 216 57 216 66 c 2,31,-1
 216 263 l 2,18,19
EndSplineSet
EndChar

StartChar: uni0C03
Encoding: 3075 3075 113
Width: 221
GlyphClass: 2
Flags: W
LayerCount: 2
Back
Fore
SplineSet
61 180 m 2,0,1
 38 180 38 180 19 198.5 c 128,-1,2
 0 217 0 217 0 245 c 2,3,-1
 0 263 l 2,4,5
 0 291 0 291 19 309.5 c 128,-1,6
 38 328 38 328 61 328 c 2,7,-1
 100 328 l 2,8,9
 124 328 124 328 143 309.5 c 128,-1,10
 162 291 162 291 162 263 c 2,11,-1
 162 245 l 2,12,13
 162 217 162 217 143 198.5 c 128,-1,14
 124 180 124 180 100 180 c 2,15,-1
 61 180 l 2,0,1
61 0 m 2,16,17
 38 0 38 0 19 18.5 c 128,-1,18
 0 37 0 37 0 66 c 2,19,-1
 0 82 l 2,20,21
 0 110 0 110 19 128.5 c 128,-1,22
 38 147 38 147 61 147 c 2,23,-1
 100 147 l 2,24,25
 124 147 124 147 143 128.5 c 128,-1,26
 162 110 162 110 162 82 c 2,27,-1
 162 66 l 2,28,29
 162 37 162 37 143 18.5 c 128,-1,30
 124 0 124 0 100 0 c 2,31,-1
 61 0 l 2,16,17
115 263 m 2,32,33
 115 280 115 280 98 280 c 2,34,-1
 64 280 l 2,35,36
 47 280 47 280 47 263 c 2,37,-1
 47 245 l 2,38,39
 47 228 47 228 64 228 c 2,40,-1
 98 228 l 2,41,42
 115 228 115 228 115 245 c 2,43,-1
 115 263 l 2,32,33
115 82 m 2,44,45
 115 100 115 100 98 100 c 2,46,-1
 64 100 l 2,47,48
 47 100 47 100 47 82 c 2,49,-1
 47 66 l 2,50,51
 47 48 47 48 64 48 c 2,52,-1
 98 48 l 2,53,54
 115 48 115 48 115 66 c 2,55,-1
 115 82 l 2,44,45
EndSplineSet
EndChar

StartChar: uni0C05
Encoding: 3077 3077 114
Width: 384
GlyphClass: 2
Flags: W
LayerCount: 2
Back
Fore
SplineSet
158 148 m 2,0,1
 174 148 174 148 178 155.5 c 128,-1,2
 182 163 182 163 182 173 c 2,3,-1
 182 262 l 2,4,5
 182 291 182 291 202 309.5 c 128,-1,6
 222 328 222 328 245 328 c 2,7,-1
 276 328 l 2,8,9
 300 328 300 328 319.5 309.5 c 128,-1,10
 339 291 339 291 339 262 c 2,11,-1
 339 66 l 2,12,13
 339 37 339 37 319.5 18.5 c 128,-1,14
 300 0 300 0 276 0 c 2,15,-1
 63 0 l 2,16,17
 39 0 39 0 19.5 18.5 c 128,-1,18
 0 37 0 37 0 66 c 2,19,-1
 0 262 l 2,20,21
 0 291 0 291 19.5 309.5 c 128,-1,22
 39 328 39 328 63 328 c 2,23,-1
 94 328 l 2,24,25
 117 328 117 328 137 309.5 c 128,-1,26
 157 291 157 291 157 262 c 2,27,-1
 157 232 l 2,28,29
 157 203 157 203 137 184.5 c 128,-1,30
 117 166 117 166 94 166 c 2,31,-1
 48 166 l 1,32,-1
 48 66 l 2,33,34
 48 57 48 57 53 52.5 c 128,-1,35
 58 48 58 48 65 48 c 2,36,-1
 274 48 l 2,37,38
 281 48 281 48 286 52.5 c 128,-1,39
 291 57 291 57 291 66 c 2,40,-1
 291 263 l 2,41,42
 291 280 291 280 274 280 c 2,43,-1
 247 280 l 2,44,45
 240 280 240 280 235 276 c 128,-1,46
 230 272 230 272 230 263 c 2,47,-1
 230 156 l 2,48,49
 230 148 230 148 227.5 138.5 c 128,-1,50
 225 129 225 129 220 120.5 c 128,-1,51
 215 112 215 112 206 106 c 128,-1,52
 197 100 197 100 184 100 c 2,53,-1
 70 100 l 1,54,-1
 70 148 l 1,55,-1
 158 148 l 2,0,1
108 263 m 2,56,57
 108 280 108 280 92 280 c 2,58,-1
 65 280 l 2,59,60
 48 280 48 280 48 263 c 2,61,-1
 48 214 l 1,62,-1
 92 214 l 2,63,64
 108 214 108 214 108 231 c 2,65,-1
 108 263 l 2,56,57
EndSplineSet
EndChar

StartChar: uni0C06
Encoding: 3078 3078 115
Width: 375
GlyphClass: 2
Flags: W
LayerCount: 2
Back
Fore
SplineSet
63 0 m 2,0,1
 39 0 39 0 19.5 18.5 c 128,-1,2
 0 37 0 37 0 66 c 2,3,-1
 0 262 l 2,4,5
 0 291 0 291 19.5 309.5 c 128,-1,6
 39 328 39 328 63 328 c 2,7,-1
 94 328 l 2,8,9
 117 328 117 328 137 309.5 c 128,-1,10
 157 291 157 291 157 262 c 2,11,-1
 157 232 l 2,12,13
 157 203 157 203 137 184.5 c 128,-1,14
 117 166 117 166 94 166 c 2,15,-1
 48 166 l 1,16,-1
 48 66 l 2,17,18
 48 57 48 57 52.5 52.5 c 128,-1,19
 57 48 57 48 63 48 c 2,20,-1
 262 48 l 2,21,22
 269 48 269 48 274 52.5 c 128,-1,23
 279 57 279 57 279 66 c 2,24,-1
 279 82 l 2,25,26
 279 100 279 100 262 100 c 2,27,-1
 73 100 l 1,28,-1
 73 148 l 1,29,-1
 194 148 l 2,30,31
 190 148 190 148 185 156 c 128,-1,32
 180 164 180 164 180 172 c 2,33,-1
 180 262 l 2,34,35
 180 291 180 291 200 309.5 c 128,-1,36
 220 328 220 328 243 328 c 2,37,-1
 264 328 l 2,38,39
 287 328 287 328 307 309.5 c 128,-1,40
 327 291 327 291 327 262 c 2,41,-1
 327 164 l 2,42,43
 327 151 327 151 316.5 138.5 c 128,-1,44
 306 126 306 126 296 126 c 1,45,46
 310 124 310 124 318.5 113.5 c 128,-1,47
 327 103 327 103 327 93 c 2,48,-1
 327 66 l 2,49,50
 327 37 327 37 307 18.5 c 128,-1,51
 287 0 287 0 264 0 c 2,52,-1
 63 0 l 2,0,1
279 263 m 2,53,54
 279 280 279 280 262 280 c 2,55,-1
 245 280 l 2,56,57
 238 280 238 280 233 276 c 128,-1,58
 228 272 228 272 228 263 c 2,59,-1
 228 169 l 2,60,61
 228 160 228 160 233 155.5 c 128,-1,62
 238 151 238 151 245 151 c 2,63,-1
 262 151 l 2,64,65
 269 151 269 151 274 156 c 128,-1,66
 279 161 279 161 279 169 c 2,67,-1
 279 263 l 2,53,54
108 263 m 2,68,69
 108 280 108 280 92 280 c 2,70,-1
 65 280 l 2,71,72
 48 280 48 280 48 263 c 2,73,-1
 48 214 l 1,74,-1
 92 214 l 2,75,76
 108 214 108 214 108 231 c 2,77,-1
 108 263 l 2,68,69
EndSplineSet
EndChar

StartChar: uni0C07
Encoding: 3079 3079 116
Width: 411
GlyphClass: 2
Flags: W
LayerCount: 2
Back
Fore
SplineSet
238 141 m 1,0,-1
 65 141 l 2,1,2
 58 141 58 141 53 136.5 c 128,-1,3
 48 132 48 132 48 122 c 2,4,-1
 48 65 l 2,5,6
 48 56 48 56 53 51.5 c 128,-1,7
 58 47 58 47 65 47 c 2,8,-1
 223 47 l 2,9,10
 229 47 229 47 233.5 51.5 c 128,-1,11
 238 56 238 56 238 65 c 2,12,-1
 238 141 l 1,0,-1
363 -1 m 1,13,-1
 316 -1 l 1,14,-1
 316 122 l 2,15,16
 316 132 316 132 311 136.5 c 128,-1,17
 306 141 306 141 299 141 c 2,18,-1
 286 141 l 1,19,-1
 286 65 l 2,20,21
 286 36 286 36 266.5 17.5 c 128,-1,22
 247 -1 247 -1 224 -1 c 2,23,-1
 62 -1 l 2,24,25
 39 -1 39 -1 19.5 17.5 c 128,-1,26
 0 36 0 36 0 65 c 2,27,-1
 0 122 l 2,28,29
 0 151 0 151 19.5 170 c 128,-1,30
 39 189 39 189 62 189 c 2,31,-1
 238 189 l 1,32,-1
 238 262 l 2,33,34
 238 272 238 272 233 276 c 128,-1,35
 228 280 228 280 222 280 c 2,36,-1
 183 280 l 2,37,38
 166 280 166 280 166 262 c 2,39,-1
 166 240 l 1,40,-1
 119 240 l 1,41,-1
 119 262 l 2,42,43
 119 271 119 271 113.5 275.5 c 128,-1,44
 108 280 108 280 101 280 c 2,45,-1
 65 280 l 2,46,47
 48 280 48 280 48 262 c 2,48,-1
 48 220 l 1,49,-1
 0 220 l 1,50,-1
 0 262 l 2,51,52
 0 291 0 291 19.5 309.5 c 128,-1,53
 39 328 39 328 62 328 c 2,54,-1
 103 328 l 2,55,56
 115 328 115 328 125.5 322.5 c 128,-1,57
 136 317 136 317 142 309 c 1,58,59
 149 328 149 328 171 328 c 2,60,-1
 224 328 l 2,61,62
 247 328 247 328 266.5 309.5 c 128,-1,63
 286 291 286 291 286 262 c 2,64,-1
 286 189 l 1,65,-1
 305 189 l 2,66,67
 328 189 328 189 345.5 172.5 c 128,-1,68
 363 156 363 156 363 126 c 2,69,-1
 363 -1 l 1,13,-1
EndSplineSet
EndChar

StartChar: uni0C08
Encoding: 3080 3080 117
Width: 521
GlyphClass: 2
Flags: W
LayerCount: 2
Back
Fore
SplineSet
376 0 m 2,0,1
 354 0 354 0 336.5 16.5 c 128,-1,2
 319 33 319 33 319 59 c 2,3,-1
 319 151 l 2,4,5
 319 156 319 156 319 157 c 128,-1,6
 319 158 319 158 319.5 158 c 128,-1,7
 320 158 320 158 320.5 158 c 128,-1,8
 321 158 321 158 322 160 c 2,9,-1
 285 160 l 1,10,-1
 285 59 l 2,11,12
 285 33 285 33 268 16.5 c 128,-1,13
 251 0 251 0 229 0 c 2,14,-1
 96 0 l 2,15,16
 75 0 75 0 58.5 16.5 c 128,-1,17
 42 33 42 33 42 59 c 2,18,-1
 42 160 l 1,19,-1
 0 160 l 1,20,-1
 0 208 l 1,21,-1
 42 208 l 1,22,-1
 42 271 l 2,23,24
 42 283 42 283 47.5 293.5 c 128,-1,25
 53 304 53 304 61 312 c 1,26,27
 50 326 50 326 50 343 c 2,28,-1
 50 394 l 1,29,-1
 98 394 l 1,30,-1
 98 348 l 2,31,32
 98 338 98 338 102.5 335 c 128,-1,33
 107 332 107 332 116 330 c 2,34,-1
 152 330 l 1,35,-1
 152 372 l 2,36,37
 152 398 152 398 170 415 c 128,-1,38
 188 432 188 432 209 432 c 2,39,-1
 283 432 l 1,40,-1
 283 384 l 1,41,-1
 215 384 l 2,42,43
 202 384 202 384 202 367 c 2,44,-1
 202 330 l 1,45,-1
 229 330 l 2,46,47
 251 330 251 330 268 313.5 c 128,-1,48
 285 297 285 297 285 271 c 2,49,-1
 285 208 l 1,50,-1
 406 208 l 2,51,52
 419 208 419 208 419 223 c 2,53,-1
 419 267 l 2,54,55
 419 282 419 282 406 282 c 2,56,-1
 383 282 l 2,57,58
 367 282 367 282 367 267 c 2,59,-1
 367 246 l 1,60,-1
 319 246 l 1,61,-1
 319 271 l 2,62,63
 319 303 319 303 331.5 316.5 c 128,-1,64
 344 330 344 330 373 330 c 2,65,-1
 415 330 l 2,66,67
 468 330 468 330 468 271 c 2,68,-1
 468 219 l 2,69,70
 468 211 468 211 465.5 200.5 c 128,-1,71
 463 190 463 190 453 182 c 1,72,73
 459 177 459 177 461.5 170.5 c 128,-1,74
 464 164 464 164 466 158 c 0,75,76
 467 153 467 153 467.5 149 c 128,-1,77
 468 145 468 145 468 143 c 2,78,-1
 468 59 l 2,79,80
 468 33 468 33 451.5 16.5 c 128,-1,81
 435 0 435 0 415 0 c 2,82,-1
 376 0 l 2,0,1
419 145 m 2,83,84
 419 159 419 159 406 159 c 2,85,-1
 381 159 l 2,86,87
 367 159 367 159 367 145 c 2,88,-1
 367 62 l 2,89,90
 367 48 367 48 381 48 c 2,91,-1
 406 48 l 2,92,93
 419 48 419 48 419 62 c 2,94,-1
 419 145 l 2,83,84
237 267 m 2,95,96
 237 274 237 274 232.5 278 c 128,-1,97
 228 282 228 282 222 282 c 2,98,-1
 107 282 l 2,99,100
 90 282 90 282 90 267 c 2,101,-1
 90 208 l 1,102,-1
 237 208 l 1,103,-1
 237 267 l 2,95,96
237 160 m 1,104,-1
 90 160 l 1,105,-1
 90 62 l 2,106,107
 90 48 90 48 107 48 c 2,108,-1
 222 48 l 2,109,110
 228 48 228 48 232.5 51.5 c 128,-1,111
 237 55 237 55 237 62 c 2,112,-1
 237 160 l 1,104,-1
EndSplineSet
EndChar

StartChar: uni0C09
Encoding: 3081 3081 118
Width: 359
GlyphClass: 2
Flags: W
LayerCount: 2
Back
Fore
SplineSet
184 329 m 1,0,-1
 248 329 l 2,1,2
 270 329 270 329 287.5 313 c 128,-1,3
 305 297 305 297 305 271 c 2,4,-1
 305 242 l 1,5,-1
 257 242 l 1,6,-1
 257 267 l 2,7,8
 257 281 257 281 245 281 c 2,9,-1
 80 281 l 2,10,11
 66 281 66 281 66 267 c 2,12,-1
 66 208 l 1,13,-1
 175 208 l 1,14,-1
 175 160 l 1,15,-1
 66 160 l 1,16,-1
 66 64 l 2,17,18
 66 48 66 48 80 48 c 2,19,-1
 123 48 l 2,20,21
 131 48 131 48 134.5 52.5 c 128,-1,22
 138 57 138 57 138 63 c 2,23,-1
 138 97 l 1,24,-1
 186 97 l 1,25,-1
 186 64 l 2,26,27
 186 48 186 48 200 48 c 2,28,-1
 245 48 l 2,29,30
 257 48 257 48 257 65 c 2,31,-1
 257 144 l 2,32,33
 257 160 257 160 245 160 c 2,34,-1
 219 160 l 1,35,-1
 219 208 l 1,36,-1
 248 208 l 2,37,38
 270 208 270 208 287.5 192 c 128,-1,39
 305 176 305 176 305 150 c 2,40,-1
 305 60 l 2,41,42
 305 34 305 34 287.5 17 c 128,-1,43
 270 0 270 0 248 0 c 2,44,-1
 201 0 l 2,45,46
 199 -1 199 -1 188 0.5 c 128,-1,47
 177 2 177 2 163 15 c 1,48,49
 156 9 156 9 145.5 4.5 c 128,-1,50
 135 0 135 0 122 0 c 2,51,-1
 74 0 l 2,52,53
 54 0 54 0 36.5 16.5 c 128,-1,54
 19 33 19 33 19 58 c 2,55,-1
 19 160 l 1,56,-1
 0 160 l 1,57,-1
 0 208 l 1,58,-1
 19 208 l 1,59,-1
 19 271 l 2,60,61
 19 297 19 297 36.5 313 c 128,-1,62
 54 329 54 329 74 329 c 2,63,-1
 136 329 l 1,64,-1
 136 390 l 1,65,-1
 184 390 l 1,66,-1
 184 329 l 1,0,-1
EndSplineSet
EndChar

StartChar: uni0C0A
Encoding: 3082 3082 119
Width: 566
GlyphClass: 2
Flags: W
LayerCount: 2
Back
Fore
SplineSet
463 139 m 2,0,1
 463 148 463 148 460 151 c 128,-1,2
 457 154 457 154 450 154 c 2,3,-1
 424 154 l 2,4,5
 418 154 418 154 415 151 c 128,-1,6
 412 148 412 148 412 139 c 2,7,-1
 412 59 l 2,8,9
 412 48 412 48 424 48 c 2,10,-1
 450 48 l 2,11,12
 463 48 463 48 463 59 c 2,13,-1
 463 139 l 2,0,1
419 0 m 2,14,15
 398 0 398 0 380.5 15.5 c 128,-1,16
 363 31 363 31 363 57 c 2,17,-1
 363 134 l 2,18,19
 363 148 363 148 366 157 c 1,20,-1
 324 157 l 1,21,-1
 324 205 l 1,22,-1
 450 205 l 2,23,24
 463 205 463 205 463 216 c 2,25,-1
 463 266 l 2,26,27
 463 276 463 276 460 278.5 c 128,-1,28
 457 281 457 281 450 281 c 2,29,-1
 421 281 l 2,30,31
 415 281 415 281 412 276.5 c 128,-1,32
 409 272 409 272 409 266 c 2,33,-1
 409 231 l 1,34,-1
 360 231 l 1,35,-1
 360 270 l 2,36,37
 360 295 360 295 377.5 312 c 128,-1,38
 395 329 395 329 416 329 c 2,39,-1
 455 329 l 2,40,41
 477 329 477 329 494 312 c 128,-1,42
 511 295 511 295 511 270 c 2,43,-1
 511 217 l 2,44,45
 511 201 511 201 508.5 193 c 128,-1,46
 506 185 506 185 499 179 c 1,47,48
 510 173 510 173 510.5 159 c 128,-1,49
 511 145 511 145 511 139 c 2,50,-1
 511 57 l 2,51,52
 511 31 511 31 494 15.5 c 128,-1,53
 477 0 477 0 455 0 c 2,54,-1
 419 0 l 2,14,15
201 0 m 2,55,56
 199 -1 199 -1 188 0.5 c 128,-1,57
 177 2 177 2 163 15 c 1,58,59
 156 9 156 9 145.5 4.5 c 128,-1,60
 135 0 135 0 122 0 c 2,61,-1
 74 0 l 2,62,63
 54 0 54 0 36.5 16.5 c 128,-1,64
 19 33 19 33 19 58 c 2,65,-1
 19 160 l 1,66,-1
 0 160 l 1,67,-1
 0 208 l 1,68,-1
 19 208 l 1,69,-1
 19 271 l 2,70,71
 19 297 19 297 36.5 313 c 128,-1,72
 54 329 54 329 74 329 c 2,73,-1
 98 329 l 1,74,-1
 98 388 l 1,75,-1
 147 388 l 1,76,-1
 147 329 l 1,77,-1
 179 329 l 1,78,-1
 179 388 l 1,79,-1
 228 388 l 1,80,-1
 228 329 l 1,81,-1
 248 329 l 2,82,83
 270 329 270 329 287.5 313 c 128,-1,84
 305 297 305 297 305 271 c 2,85,-1
 305 242 l 1,86,-1
 257 242 l 1,87,-1
 257 267 l 2,88,89
 257 281 257 281 245 281 c 2,90,-1
 80 281 l 2,91,92
 66 281 66 281 66 267 c 2,93,-1
 66 208 l 1,94,-1
 175 208 l 1,95,-1
 175 160 l 1,96,-1
 66 160 l 1,97,-1
 66 64 l 2,98,99
 66 48 66 48 80 48 c 2,100,-1
 123 48 l 2,101,102
 131 48 131 48 134.5 52.5 c 128,-1,103
 138 57 138 57 138 63 c 2,104,-1
 138 97 l 1,105,-1
 186 97 l 1,106,-1
 186 64 l 2,107,108
 186 48 186 48 200 48 c 2,109,-1
 245 48 l 2,110,111
 257 48 257 48 257 65 c 2,112,-1
 257 144 l 2,113,114
 257 160 257 160 245 160 c 2,115,-1
 219 160 l 1,116,-1
 219 208 l 1,117,-1
 248 208 l 2,118,119
 270 208 270 208 287.5 192 c 128,-1,120
 305 176 305 176 305 150 c 2,121,-1
 305 60 l 2,122,123
 305 34 305 34 287.5 17 c 128,-1,124
 270 0 270 0 248 0 c 2,125,-1
 201 0 l 2,55,56
EndSplineSet
EndChar

StartChar: uni0C0B
Encoding: 3083 3083 120
Width: 608
GlyphClass: 2
Flags: W
LayerCount: 2
Back
Fore
SplineSet
227 0 m 2,0,-1
 179 0 l 2,1,2
 171 0 171 0 160.5 3.5 c 128,-1,3
 150 7 150 7 145 14 c 1,4,5
 140 6 140 6 128 3 c 128,-1,6
 116 0 116 0 105 0 c 2,7,-1
 63 0 l 2,8,9
 39 0 39 0 19.5 18.5 c 128,-1,10
 0 37 0 37 0 66 c 2,11,-1
 0 142 l 2,12,13
 0 171 0 171 19.5 189.5 c 128,-1,14
 39 208 39 208 63 208 c 2,15,-1
 102 208 l 2,16,17
 120 208 120 208 120 225 c 2,18,-1
 120 263 l 2,19,20
 120 280 120 280 102 280 c 2,21,-1
 65 280 l 2,22,23
 48 280 48 280 48 263 c 2,24,-1
 48 240 l 1,25,-1
 0 240 l 1,26,-1
 0 262 l 2,27,28
 0 291 0 291 19.5 309.5 c 128,-1,29
 39 328 39 328 63 328 c 2,30,-1
 104 328 l 2,31,32
 128 328 128 328 147.5 309.5 c 128,-1,33
 167 291 167 291 167 262 c 2,34,-1
 167 226 l 2,35,36
 167 197 167 197 147.5 178.5 c 128,-1,37
 128 160 128 160 104 160 c 2,38,-1
 65 160 l 2,39,40
 58 160 58 160 53 155.5 c 128,-1,41
 48 151 48 151 48 142 c 2,42,-1
 48 66 l 2,43,44
 48 57 48 57 53 52.5 c 128,-1,45
 58 48 58 48 65 48 c 2,46,-1
 102 48 l 2,47,48
 120 48 120 48 120 66 c 2,49,-1
 120 98 l 1,50,-1
 167 98 l 1,51,-1
 167 66 l 2,52,53
 167 48 167 48 185 48 c 2,54,-1
 225 48 l 2,55,56
 232 48 232 48 237 52.5 c 128,-1,57
 242 57 242 57 242 66 c 2,58,-1
 242 263 l 2,59,60
 242 280 242 280 225 280 c 2,61,-1
 201 280 l 1,62,-1
 201 328 l 1,63,-1
 227 328 l 2,64,65
 250 328 250 328 270 309.5 c 128,-1,66
 290 291 290 291 290 262 c 2,67,-1
 290 84 l 2,68,69
 290 65 290 65 298 57 c 128,-1,70
 306 49 306 49 316 49 c 2,71,-1
 362 49 l 2,72,73
 369 49 369 49 374 53.5 c 128,-1,74
 379 58 379 58 379 67 c 2,75,-1
 379 264 l 2,76,77
 379 281 379 281 362 281 c 2,78,-1
 347 281 l 1,79,-1
 347 329 l 1,80,-1
 364 329 l 2,81,82
 387 329 387 329 406.5 310.5 c 128,-1,83
 426 292 426 292 426 263 c 2,84,-1
 426 83 l 2,85,86
 426 65 426 65 434 56.5 c 128,-1,87
 442 48 442 48 452 48 c 2,88,-1
 498 48 l 2,89,90
 505 48 505 48 510 52.5 c 128,-1,91
 515 57 515 57 515 66 c 2,92,-1
 515 263 l 2,93,94
 515 280 515 280 498 280 c 2,95,-1
 483 280 l 1,96,-1
 483 328 l 1,97,-1
 500 328 l 2,98,99
 523 328 523 328 542.5 309.5 c 128,-1,100
 562 291 562 291 562 262 c 2,101,-1
 562 66 l 2,102,103
 562 37 562 37 542.5 18.5 c 128,-1,104
 523 0 523 0 500 0 c 2,105,-1
 450 0 l 2,106,107
 439 0 439 0 427 5 c 128,-1,108
 415 10 415 10 407 19 c 1,109,110
 388 0 388 0 364 0 c 2,111,-1
 314 0 l 2,112,113
 303 0 303 0 291 5 c 128,-1,114
 279 10 279 10 271 19 c 1,115,116
 252 0 252 0 227 0 c 2,0,-1
EndSplineSet
EndChar

StartChar: uni0C0C
Encoding: 3084 3084 121
Width: 362
GlyphClass: 2
Flags: W
LayerCount: 2
Back
Fore
SplineSet
291 -74 m 2,0,1
 291 -103 291 -103 272 -122 c 128,-1,2
 253 -141 253 -141 229 -141 c 2,3,-1
 151 -141 l 2,4,5
 127 -141 127 -141 107.5 -122 c 128,-1,6
 88 -103 88 -103 88 -73 c 2,7,-1
 88 76 l 2,8,9
 88 106 88 106 108 122 c 128,-1,10
 128 138 128 138 148 143 c 2,11,-1
 222 162 l 2,12,13
 245 168 245 168 245 183 c 2,14,-1
 245 260 l 2,15,16
 245 281 245 281 226 281 c 2,17,-1
 189 281 l 2,18,19
 170 281 170 281 170 260 c 2,20,-1
 170 238 l 1,21,-1
 124 238 l 1,22,-1
 124 260 l 2,23,24
 124 271 124 271 118.5 276 c 128,-1,25
 113 281 113 281 106 281 c 2,26,-1
 65 281 l 2,27,28
 46 281 46 281 46 260 c 2,29,-1
 46 204 l 2,30,31
 46 184 46 184 65 184 c 2,32,-1
 77 184 l 1,33,-1
 77 138 l 1,34,-1
 63 138 l 2,35,36
 39 138 39 138 20 157 c 128,-1,37
 1 176 1 176 1 205 c 2,38,-1
 1 260 l 2,39,40
 1 289 1 289 20 308.5 c 128,-1,41
 39 328 39 328 63 328 c 2,42,-1
 110 328 l 2,43,44
 118 328 118 328 128 325 c 128,-1,45
 138 322 138 322 146 315 c 1,46,47
 156 323 156 323 166.5 325.5 c 128,-1,48
 177 328 177 328 185 328 c 2,49,-1
 229 328 l 2,50,51
 253 328 253 328 272 308.5 c 128,-1,52
 291 289 291 289 291 260 c 2,53,-1
 291 183 l 2,54,55
 291 167 291 167 285.5 155.5 c 128,-1,56
 280 144 280 144 271 136 c 128,-1,57
 262 128 262 128 251.5 123 c 128,-1,58
 241 118 241 118 232 116 c 2,59,-1
 157 97 l 2,60,61
 148 95 148 95 141 87 c 128,-1,62
 134 79 134 79 134 68 c 2,63,-1
 134 -74 l 2,64,65
 134 -94 134 -94 153 -94 c 2,66,-1
 226 -94 l 2,67,68
 245 -94 245 -94 245 -74 c 2,69,-1
 245 46 l 1,70,-1
 291 46 l 1,71,-1
 291 -74 l 2,0,1
EndSplineSet
EndChar

StartChar: uni0C0E
Encoding: 3086 3086 122
Width: 348
GlyphClass: 2
Flags: W
LayerCount: 2
Back
Fore
SplineSet
182 0 m 2,0,1
 163 0 163 0 146 14 c 1,2,3
 129 0 129 0 106 0 c 2,4,-1
 63 0 l 2,5,6
 39 0 39 0 19.5 19 c 128,-1,7
 0 38 0 38 0 67 c 2,8,-1
 0 153 l 2,9,10
 0 182 0 182 19.5 201 c 128,-1,11
 39 220 39 220 63 220 c 2,12,-1
 106 220 l 2,13,14
 129 220 129 220 149 201 c 128,-1,15
 169 182 169 182 169 153 c 2,16,-1
 169 67 l 1,17,-1
 169 59 l 1,18,19
 175 48 175 48 187 48 c 2,20,-1
 224 48 l 2,21,22
 230 48 230 48 235 52.5 c 128,-1,23
 240 57 240 57 240 67 c 2,24,-1
 240 284 l 2,25,26
 240 302 240 302 224 302 c 2,27,-1
 141 302 l 1,28,-1
 141 351 l 1,29,-1
 226 351 l 2,30,31
 249 351 249 351 269 332 c 128,-1,32
 289 313 289 313 289 283 c 2,33,-1
 289 67 l 2,34,35
 289 38 289 38 269 19 c 128,-1,36
 249 0 249 0 226 0 c 2,37,-1
 182 0 l 2,0,1
121 154 m 2,38,39
 121 163 121 163 116 167.5 c 128,-1,40
 111 172 111 172 104 172 c 2,41,-1
 65 172 l 2,42,43
 48 172 48 172 48 154 c 2,44,-1
 48 67 l 2,45,46
 48 57 48 57 53 52.5 c 128,-1,47
 58 48 58 48 65 48 c 2,48,-1
 104 48 l 2,49,50
 111 48 111 48 116 52.5 c 128,-1,51
 121 57 121 57 121 67 c 2,52,-1
 121 154 l 2,38,39
EndSplineSet
EndChar

StartChar: uni0C0F
Encoding: 3087 3087 123
Width: 348
GlyphClass: 2
Flags: W
LayerCount: 2
Back
Fore
SplineSet
82 378 m 2,0,1
 64 378 64 378 64 360 c 2,2,-1
 64 298 l 1,3,-1
 17 298 l 1,4,-1
 17 359 l 2,5,6
 17 388 17 388 36 407 c 128,-1,7
 55 426 55 426 80 426 c 2,8,-1
 155 426 l 1,9,-1
 155 378 l 1,10,-1
 82 378 l 2,0,1
182 0 m 2,11,12
 163 0 163 0 146 14 c 1,13,14
 129 0 129 0 106 0 c 2,15,-1
 63 0 l 2,16,17
 39 0 39 0 19.5 19 c 128,-1,18
 0 38 0 38 0 67 c 2,19,-1
 0 153 l 2,20,21
 0 182 0 182 19.5 201 c 128,-1,22
 39 220 39 220 63 220 c 2,23,-1
 106 220 l 2,24,25
 129 220 129 220 149 201 c 128,-1,26
 169 182 169 182 169 153 c 2,27,-1
 169 67 l 1,28,-1
 169 59 l 1,29,30
 175 48 175 48 187 48 c 2,31,-1
 224 48 l 2,32,33
 230 48 230 48 235 52.5 c 128,-1,34
 240 57 240 57 240 67 c 2,35,-1
 240 284 l 2,36,37
 240 302 240 302 224 302 c 2,38,-1
 141 302 l 1,39,-1
 141 351 l 1,40,-1
 226 351 l 2,41,42
 249 351 249 351 269 332 c 128,-1,43
 289 313 289 313 289 283 c 2,44,-1
 289 67 l 2,45,46
 289 38 289 38 269 19 c 128,-1,47
 249 0 249 0 226 0 c 2,48,-1
 182 0 l 2,11,12
121 154 m 2,49,50
 121 163 121 163 116 167.5 c 128,-1,51
 111 172 111 172 104 172 c 2,52,-1
 65 172 l 2,53,54
 48 172 48 172 48 154 c 2,55,-1
 48 67 l 2,56,57
 48 57 48 57 53 52.5 c 128,-1,58
 58 48 58 48 65 48 c 2,59,-1
 104 48 l 2,60,61
 111 48 111 48 116 52.5 c 128,-1,62
 121 57 121 57 121 67 c 2,63,-1
 121 154 l 2,49,50
EndSplineSet
EndChar

StartChar: uni0C10
Encoding: 3088 3088 124
Width: 347
GlyphClass: 2
Flags: W
LayerCount: 2
Back
Fore
SplineSet
177 0 m 2,0,1
 169 0 169 0 160 4 c 128,-1,2
 151 8 151 8 143 14 c 1,3,4
 126 0 126 0 104 0 c 2,5,-1
 62 0 l 2,6,7
 39 0 39 0 19.5 18.5 c 128,-1,8
 0 37 0 37 0 66 c 2,9,-1
 0 141 l 2,10,11
 0 170 0 170 19.5 188 c 128,-1,12
 39 206 39 206 62 206 c 2,13,-1
 104 206 l 2,14,15
 128 206 128 206 147.5 188 c 128,-1,16
 167 170 167 170 167 141 c 2,17,-1
 167 66 l 1,18,-1
 167 60 l 1,19,20
 174 48 174 48 187 48 c 2,21,-1
 223 48 l 2,22,23
 229 48 229 48 234 52.5 c 128,-1,24
 239 57 239 57 239 66 c 2,25,-1
 239 263 l 2,26,27
 239 280 239 280 223 280 c 2,28,-1
 183 280 l 2,29,30
 166 280 166 280 166 263 c 2,31,-1
 166 240 l 1,32,-1
 119 240 l 1,33,-1
 119 263 l 2,34,35
 119 272 119 272 113.5 276 c 128,-1,36
 108 280 108 280 101 280 c 2,37,-1
 65 280 l 2,38,39
 48 280 48 280 48 263 c 2,40,-1
 48 230 l 1,41,-1
 0 230 l 1,42,-1
 0 263 l 2,43,44
 0 291 0 291 19.5 309.5 c 128,-1,45
 39 328 39 328 62 328 c 2,46,-1
 104 328 l 2,47,48
 126 328 126 328 143 313 c 1,49,50
 148 320 148 320 157.5 324 c 128,-1,51
 167 328 167 328 172 328 c 2,52,-1
 225 328 l 2,53,54
 248 328 248 328 267.5 310 c 128,-1,55
 287 292 287 292 287 263 c 2,56,-1
 287 66 l 2,57,58
 287 37 287 37 267.5 18.5 c 128,-1,59
 248 0 248 0 225 0 c 2,60,-1
 177 0 l 2,0,1
120 141 m 2,61,62
 120 158 120 158 102 158 c 2,63,-1
 65 158 l 2,64,65
 48 158 48 158 48 141 c 2,66,-1
 48 66 l 2,67,68
 48 57 48 57 53 52.5 c 128,-1,69
 58 48 58 48 65 48 c 2,70,-1
 102 48 l 2,71,72
 120 48 120 48 120 66 c 2,73,-1
 120 141 l 2,61,62
EndSplineSet
EndChar

StartChar: uni0C12
Encoding: 3090 3090 125
Width: 318
GlyphClass: 2
Flags: W
LayerCount: 2
Back
Fore
SplineSet
170 0 m 2,0,1
 160 0 160 0 150 4.5 c 128,-1,2
 140 9 140 9 135 14 c 1,3,4
 127 9 127 9 116.5 4.5 c 128,-1,5
 106 0 106 0 95 0 c 2,6,-1
 63 0 l 2,7,8
 39 0 39 0 19.5 18.5 c 128,-1,9
 0 37 0 37 0 66 c 2,10,-1
 0 142 l 2,11,12
 0 171 0 171 19.5 189.5 c 128,-1,13
 39 208 39 208 63 208 c 2,14,-1
 102 208 l 2,15,16
 120 208 120 208 120 225 c 2,17,-1
 120 263 l 2,18,19
 120 280 120 280 102 280 c 2,20,-1
 65 280 l 2,21,22
 48 280 48 280 48 263 c 2,23,-1
 48 230 l 1,24,-1
 0 230 l 1,25,-1
 0 262 l 2,26,27
 0 291 0 291 19.5 309.5 c 128,-1,28
 39 328 39 328 63 328 c 2,29,-1
 104 328 l 2,30,31
 128 328 128 328 147.5 309.5 c 128,-1,32
 167 291 167 291 167 262 c 2,33,-1
 167 226 l 2,34,35
 167 197 167 197 147.5 178.5 c 128,-1,36
 128 160 128 160 104 160 c 2,37,-1
 65 160 l 2,38,39
 58 160 58 160 53 155.5 c 128,-1,40
 48 151 48 151 48 142 c 2,41,-1
 48 66 l 2,42,43
 48 57 48 57 53 52.5 c 128,-1,44
 58 48 58 48 65 48 c 2,45,-1
 92 48 l 2,46,47
 110 48 110 48 110 66 c 2,48,-1
 110 98 l 1,49,-1
 157 98 l 1,50,-1
 157 66 l 2,51,52
 157 48 157 48 175 48 c 2,53,-1
 205 48 l 2,54,55
 212 48 212 48 217 52.5 c 128,-1,56
 222 57 222 57 222 66 c 2,57,-1
 222 120 l 1,58,-1
 270 120 l 1,59,-1
 270 66 l 2,60,61
 270 37 270 37 250 18.5 c 128,-1,62
 230 0 230 0 207 0 c 2,63,-1
 170 0 l 2,0,1
EndSplineSet
EndChar

StartChar: uni0C13
Encoding: 3091 3091 126
Width: 318
GlyphClass: 2
Flags: W
LayerCount: 2
Back
Fore
SplineSet
170 0 m 2,0,1
 160 0 160 0 150 4.5 c 128,-1,2
 140 9 140 9 135 14 c 1,3,4
 127 9 127 9 116.5 4.5 c 128,-1,5
 106 0 106 0 95 0 c 2,6,-1
 63 0 l 2,7,8
 39 0 39 0 19.5 18.5 c 128,-1,9
 0 37 0 37 0 66 c 2,10,-1
 0 142 l 2,11,12
 0 171 0 171 19.5 189.5 c 128,-1,13
 39 208 39 208 63 208 c 2,14,-1
 102 208 l 2,15,16
 120 208 120 208 120 225 c 2,17,-1
 120 263 l 2,18,19
 120 280 120 280 102 280 c 2,20,-1
 65 280 l 2,21,22
 48 280 48 280 48 263 c 2,23,-1
 48 230 l 1,24,-1
 0 230 l 1,25,-1
 0 262 l 2,26,27
 0 291 0 291 19.5 309.5 c 128,-1,28
 39 328 39 328 63 328 c 2,29,-1
 104 328 l 2,30,31
 128 328 128 328 147.5 309.5 c 128,-1,32
 167 291 167 291 167 262 c 2,33,-1
 167 226 l 2,34,35
 167 197 167 197 147.5 178.5 c 128,-1,36
 128 160 128 160 104 160 c 2,37,-1
 65 160 l 2,38,39
 58 160 58 160 53 155.5 c 128,-1,40
 48 151 48 151 48 142 c 2,41,-1
 48 66 l 2,42,43
 48 57 48 57 53 52.5 c 128,-1,44
 58 48 58 48 65 48 c 2,45,-1
 92 48 l 2,46,47
 110 48 110 48 110 66 c 2,48,-1
 110 98 l 1,49,-1
 157 98 l 1,50,-1
 157 66 l 2,51,52
 157 48 157 48 175 48 c 2,53,-1
 205 48 l 2,54,55
 212 48 212 48 217 52.5 c 128,-1,56
 222 57 222 57 222 66 c 2,57,-1
 222 120 l 1,58,-1
 270 120 l 1,59,-1
 270 66 l 2,60,61
 270 37 270 37 250 18.5 c 128,-1,62
 230 0 230 0 207 0 c 2,63,-1
 170 0 l 2,0,1
105 290 m 1,64,65
 94 290 94 290 81 289.5 c 128,-1,66
 68 289 68 289 57 289 c 1,67,-1
 57 366 l 2,68,69
 57 426 57 426 112 426 c 2,70,-1
 144 426 l 2,71,72
 172 426 172 426 185 412.5 c 128,-1,73
 198 399 198 399 198 367 c 2,74,-1
 198 342 l 1,75,-1
 150 342 l 1,76,-1
 150 362 l 2,77,78
 150 378 150 378 133 378 c 2,79,-1
 119 378 l 2,80,81
 105 376 105 376 105 362 c 2,82,-1
 105 332 l 1,83,-1
 105 290 l 1,64,65
EndSplineSet
EndChar

StartChar: uni0C14
Encoding: 3092 3092 127
Width: 416
GlyphClass: 2
Flags: W
LayerCount: 2
Back
Fore
SplineSet
316 234 m 2,0,-1
 316 286 l 1,1,-1
 280 286 l 2,2,3
 273 286 273 286 268 281.5 c 128,-1,4
 263 277 263 277 263 267 c 2,5,-1
 263 234 l 2,6,7
 263 224 263 224 268 220 c 128,-1,8
 273 216 273 216 280 216 c 2,9,-1
 298 216 l 2,10,11
 316 216 316 216 316 234 c 2,0,-1
207 0 m 2,12,-1
 170 0 l 2,13,14
 160 0 160 0 150 4.5 c 128,-1,15
 140 9 140 9 135 14 c 1,16,17
 127 9 127 9 116.5 4.5 c 128,-1,18
 106 0 106 0 95 0 c 2,19,-1
 63 0 l 2,20,21
 39 0 39 0 19.5 18.5 c 128,-1,22
 0 37 0 37 0 66 c 2,23,-1
 0 142 l 2,24,25
 0 171 0 171 19.5 189.5 c 128,-1,26
 39 208 39 208 63 208 c 2,27,-1
 102 208 l 2,28,29
 120 208 120 208 120 225 c 2,30,-1
 120 263 l 2,31,32
 120 280 120 280 102 280 c 2,33,-1
 68 280 l 1,34,-1
 65 280 l 2,35,36
 48 280 48 280 48 263 c 2,37,-1
 48 230 l 1,38,-1
 0 230 l 1,39,-1
 0 262 l 2,40,41
 0 291 0 291 19.5 309.5 c 128,-1,42
 39 328 39 328 63 328 c 2,43,-1
 66 328 l 1,44,-1
 104 328 l 1,45,-1
 107 328 l 1,46,-1
 112 328 l 2,47,48
 119 328 119 328 120.5 331 c 128,-1,49
 122 334 122 334 122 340 c 2,50,-1
 122 361 l 2,51,52
 122 373 122 373 112 377 c 1,53,-1
 0 377 l 1,54,-1
 0 426 l 1,55,-1
 302 426 l 2,56,57
 327 426 327 426 345.5 407 c 128,-1,58
 364 388 364 388 364 359 c 2,59,-1
 364 234 l 2,60,61
 364 205 364 205 345.5 186 c 128,-1,62
 327 167 327 167 302 167 c 2,63,-1
 276 167 l 2,64,65
 252 167 252 167 233 186 c 128,-1,66
 214 205 214 205 214 234 c 2,67,-1
 214 269 l 2,68,69
 214 298 214 298 233 316 c 128,-1,70
 252 334 252 334 276 334 c 2,71,-1
 316 334 l 1,72,-1
 316 359 l 2,73,74
 316 377 316 377 298 377 c 2,75,-1
 168 377 l 1,76,77
 171 369 171 369 171 362 c 2,78,-1
 171 333 l 2,79,80
 171 312 171 312 156 299 c 1,81,82
 167 282 167 282 167 262 c 2,83,-1
 167 226 l 2,84,85
 167 197 167 197 147.5 178.5 c 128,-1,86
 128 160 128 160 104 160 c 2,87,-1
 65 160 l 2,88,89
 58 160 58 160 53 155.5 c 128,-1,90
 48 151 48 151 48 142 c 2,91,-1
 48 66 l 2,92,93
 48 57 48 57 53 52.5 c 128,-1,94
 58 48 58 48 65 48 c 2,95,-1
 92 48 l 2,96,97
 110 48 110 48 110 66 c 2,98,-1
 110 98 l 1,99,-1
 157 98 l 1,100,-1
 157 66 l 2,101,102
 157 48 157 48 175 48 c 2,103,-1
 205 48 l 2,104,105
 212 48 212 48 217 52.5 c 128,-1,106
 222 57 222 57 222 66 c 2,107,-1
 222 120 l 1,108,-1
 270 120 l 1,109,-1
 270 66 l 2,110,111
 270 37 270 37 250 18.5 c 128,-1,112
 230 0 230 0 207 0 c 2,12,-1
EndSplineSet
EndChar

StartChar: uni0C15
Encoding: 3093 3093 128
Width: 303
GlyphClass: 2
Flags: W
LayerCount: 2
Back
Fore
SplineSet
181 0 m 2,0,-1
 63 0 l 2,1,2
 39 0 39 0 19.5 18.5 c 128,-1,3
 0 37 0 37 0 66 c 2,4,-1
 0 106 l 1,5,-1
 47 106 l 1,6,-1
 47 66 l 2,7,8
 47 48 47 48 65 48 c 2,9,-1
 179 48 l 2,10,11
 186 48 186 48 191 52.5 c 128,-1,12
 196 57 196 57 196 66 c 2,13,-1
 196 125 l 2,14,15
 196 134 196 134 191 139 c 128,-1,16
 186 144 186 144 179 144 c 2,17,-1
 63 144 l 2,18,19
 39 144 39 144 19.5 162.5 c 128,-1,20
 0 181 0 181 0 209 c 2,21,-1
 0 262 l 2,22,23
 0 284 0 284 13 302 c 1,24,25
 0 318 0 318 0 349 c 2,26,-1
 0 380 l 1,27,-1
 48 380 l 1,28,-1
 48 353 l 2,29,30
 48 337 48 337 53 332 c 128,-1,31
 58 327 58 327 68 327 c 2,32,-1
 81 327 l 1,33,-1
 119 328 l 1,34,-1
 120 396 l 2,35,36
 120 421 120 421 138 436.5 c 128,-1,37
 156 452 156 452 176 452 c 2,38,-1
 245 452 l 1,39,-1
 245 406 l 1,40,-1
 184 406 l 2,41,42
 178 406 178 406 173 402 c 128,-1,43
 168 398 168 398 168 390 c 2,44,-1
 168 328 l 1,45,-1
 181 328 l 2,46,47
 204 328 204 328 223.5 309.5 c 128,-1,48
 243 291 243 291 243 262 c 2,49,-1
 243 220 l 1,50,-1
 196 220 l 1,51,-1
 196 263 l 2,52,53
 196 272 196 272 191 276 c 128,-1,54
 186 280 186 280 179 280 c 2,55,-1
 65 280 l 2,56,57
 47 280 47 280 47 263 c 2,58,-1
 47 208 l 2,59,60
 47 191 47 191 65 191 c 2,61,-1
 181 191 l 2,62,63
 204 191 204 191 223.5 172.5 c 128,-1,64
 243 154 243 154 243 125 c 2,65,-1
 243 66 l 2,66,67
 243 37 243 37 223.5 18.5 c 128,-1,68
 204 0 204 0 181 0 c 2,0,-1
EndSplineSet
Substitution2: "Single Substitution lookup 21 subtable" uni0C15_uni0C4D.abvs
EndChar

StartChar: uni0C16
Encoding: 3094 3094 129
Width: 364
GlyphClass: 2
Flags: W
LayerCount: 2
Back
Fore
SplineSet
179 0 m 2,0,1
 171 0 171 0 160.5 4 c 128,-1,2
 150 8 150 8 145 13 c 1,3,4
 137 8 137 8 126 4 c 128,-1,5
 115 0 115 0 104 0 c 2,6,-1
 63 0 l 2,7,8
 39 0 39 0 19.5 18 c 128,-1,9
 0 36 0 36 0 65 c 2,10,-1
 0 150 l 2,11,12
 0 179 0 179 19.5 197.5 c 128,-1,13
 39 216 39 216 63 216 c 2,14,-1
 104 216 l 2,15,16
 109 216 109 216 119 214 c 1,17,-1
 119 262 l 2,18,19
 119 272 119 272 114 276 c 128,-1,20
 109 280 109 280 102 280 c 2,21,-1
 65 280 l 2,22,23
 48 280 48 280 48 262 c 2,24,-1
 48 238 l 1,25,-1
 0 238 l 1,26,-1
 0 261 l 2,27,28
 0 290 0 290 19.5 309 c 128,-1,29
 39 328 39 328 63 328 c 2,30,-1
 104 328 l 2,31,32
 127 328 127 328 147 309 c 128,-1,33
 167 290 167 290 167 261 c 2,34,-1
 167 65 l 2,35,36
 167 56 167 56 172 51.5 c 128,-1,37
 177 47 177 47 184 47 c 2,38,-1
 234 47 l 2,39,40
 240 47 240 47 245 51.5 c 128,-1,41
 250 56 250 56 250 65 c 2,42,-1
 250 262 l 2,43,44
 250 280 250 280 234 280 c 2,45,-1
 219 280 l 1,46,-1
 219 328 l 1,47,-1
 236 328 l 2,48,49
 259 328 259 328 279 309 c 128,-1,50
 299 290 299 290 299 261 c 2,51,-1
 299 65 l 2,52,53
 299 36 299 36 279 18 c 128,-1,54
 259 0 259 0 236 0 c 2,55,-1
 179 0 l 2,0,1
121 -92 m 1,56,-1
 121 -15 l 2,57,58
 124 -14 124 -14 132 -10 c 128,-1,59
 140 -6 140 -6 144 4 c 1,60,61
 149 -6 149 -6 157.5 -10.5 c 128,-1,62
 166 -15 166 -15 168 -17 c 2,63,-1
 168 -92 l 1,64,-1
 121 -92 l 1,56,-1
119 151 m 2,65,66
 119 160 119 160 114 164 c 128,-1,67
 109 168 109 168 102 168 c 2,68,-1
 65 168 l 2,69,70
 48 168 48 168 48 151 c 2,71,-1
 48 65 l 2,72,73
 48 56 48 56 53 51.5 c 128,-1,74
 58 47 58 47 65 47 c 2,75,-1
 102 47 l 2,76,77
 109 47 109 47 114 51.5 c 128,-1,78
 119 56 119 56 119 65 c 2,79,-1
 119 151 l 2,65,66
EndSplineSet
Substitution2: "Single Substitution lookup 21 subtable" uni0C16_uni0C4D.abvs
EndChar

StartChar: uni0C17
Encoding: 3095 3095 130
Width: 309
GlyphClass: 2
Flags: W
LayerCount: 2
Back
Fore
SplineSet
249 0 m 1,0,-1
 202 0 l 1,1,-1
 202 263 l 2,2,3
 202 280 202 280 185 280 c 1,4,-1
 185 279 l 1,5,-1
 77 280 l 1,6,-1
 65 280 l 2,7,8
 47 280 47 280 47 263 c 2,9,-1
 47 0 l 1,10,-1
 0 0 l 1,11,-1
 0 262 l 2,12,13
 0 280 0 280 8 294 c 128,-1,14
 16 308 16 308 28 317 c 1,15,16
 19 333 19 333 19 359 c 2,17,-1
 19 380 l 1,18,-1
 67 380 l 1,19,-1
 67 363 l 2,20,21
 67 328 67 328 94 328 c 2,22,-1
 138 328 l 1,23,-1
 139 396 l 2,24,25
 139 421 139 421 157 436.5 c 128,-1,26
 175 452 175 452 195 452 c 2,27,-1
 254 452 l 1,28,-1
 254 406 l 1,29,-1
 203 406 l 2,30,31
 197 406 197 406 192 402 c 128,-1,32
 187 398 187 398 187 390 c 2,33,-1
 186 328 l 1,34,-1
 187 328 l 2,35,36
 210 328 210 328 229.5 309.5 c 128,-1,37
 249 291 249 291 249 262 c 2,38,-1
 249 0 l 1,0,-1
EndSplineSet
Substitution2: "Single Substitution lookup 21 subtable" uni0C17_uni0C4D.abvs
EndChar

StartChar: uni0C18
Encoding: 3096 3096 131
Width: 499
GlyphClass: 2
Flags: W
LayerCount: 2
Back
Fore
SplineSet
170 -83 m 1,0,-1
 129 -83 l 1,1,-1
 129 -23 l 2,2,3
 131 -23 131 -23 138 -21 c 128,-1,4
 145 -19 145 -19 152 -7 c 1,5,6
 154 -15 154 -15 160.5 -19 c 128,-1,7
 167 -23 167 -23 170 -24 c 2,8,-1
 170 -83 l 1,0,-1
245 404 m 1,9,-1
 166 404 l 2,10,11
 154 404 154 404 154 390 c 2,12,-1
 154 341 l 2,13,14
 154 312 154 312 138.5 295.5 c 128,-1,15
 123 279 123 279 98 279 c 2,16,-1
 1 279 l 1,17,-1
 1 327 l 1,18,-1
 91 327 l 2,19,20
 106 327 106 327 106 341 c 2,21,-1
 106 388 l 2,22,23
 106 417 106 417 123 434.5 c 128,-1,24
 140 452 140 452 163 452 c 2,25,-1
 245 452 l 1,26,-1
 245 404 l 1,9,-1
128 66 m 2,27,-1
 128 163 l 2,28,29
 128 181 128 181 110 181 c 2,30,-1
 65 181 l 2,31,32
 48 181 48 181 48 163 c 2,33,-1
 48 66 l 2,34,35
 48 57 48 57 53 52.5 c 128,-1,36
 58 48 58 48 65 48 c 2,37,-1
 110 48 l 2,38,39
 128 48 128 48 128 66 c 2,27,-1
377 0 m 2,40,-1
 327 0 l 2,41,42
 316 0 316 0 304 5 c 128,-1,43
 292 10 292 10 284 18 c 1,44,45
 266 0 266 0 242 0 c 2,46,-1
 191 0 l 2,47,48
 183 0 183 0 171.5 4 c 128,-1,49
 160 8 160 8 152 16 c 1,50,51
 146 10 146 10 135 5 c 128,-1,52
 124 0 124 0 116 0 c 2,53,-1
 63 0 l 2,54,55
 39 0 39 0 19.5 18.5 c 128,-1,56
 0 37 0 37 0 66 c 2,57,-1
 0 164 l 2,58,59
 0 193 0 193 19.5 210.5 c 128,-1,60
 39 228 39 228 63 228 c 2,61,-1
 112 228 l 2,62,63
 136 228 136 228 155.5 210.5 c 128,-1,64
 175 193 175 193 175 164 c 2,65,-1
 175 66 l 2,66,67
 175 48 175 48 193 48 c 2,68,-1
 240 48 l 2,69,70
 246 48 246 48 251 52.5 c 128,-1,71
 256 57 256 57 256 66 c 2,72,-1
 256 263 l 2,73,74
 256 280 256 280 240 280 c 2,75,-1
 225 280 l 1,76,-1
 225 328 l 1,77,-1
 242 328 l 2,78,79
 265 328 265 328 284.5 309.5 c 128,-1,80
 304 291 304 291 304 262 c 2,81,-1
 304 83 l 2,82,83
 304 48 304 48 329 48 c 2,84,-1
 375 48 l 2,85,86
 392 48 392 48 392 66 c 2,87,-1
 392 263 l 2,88,89
 392 280 392 280 375 280 c 2,90,-1
 360 280 l 1,91,-1
 360 328 l 1,92,-1
 377 328 l 2,93,94
 401 328 401 328 420 309.5 c 128,-1,95
 439 291 439 291 439 262 c 2,96,-1
 439 66 l 2,97,98
 439 37 439 37 420 18.5 c 128,-1,99
 401 0 401 0 377 0 c 2,40,-1
EndSplineSet
Substitution2: "Single Substitution lookup 21 subtable" uni0C18_uni0C4D.abvs
EndChar

StartChar: uni0C19
Encoding: 3097 3097 132
Width: 348
GlyphClass: 2
Flags: W
LayerCount: 2
Back
Fore
SplineSet
294 219 m 1,0,-1
 167 219 l 1,1,-1
 167 213 l 2,2,3
 167 191 167 191 150 175 c 128,-1,4
 133 159 133 159 112 159 c 2,5,-1
 61 159 l 2,6,7
 48 159 48 159 48 143 c 2,8,-1
 48 63 l 2,9,10
 48 48 48 48 61 48 c 2,11,-1
 103 48 l 2,12,13
 111 48 111 48 115 52.5 c 128,-1,14
 119 57 119 57 119 62 c 2,15,-1
 119 98 l 1,16,-1
 166 98 l 1,17,-1
 166 62 l 2,18,19
 166 48 166 48 181 48 c 2,20,-1
 226 48 l 2,21,22
 239 48 239 48 239 63 c 2,23,-1
 239 128 l 1,24,-1
 287 128 l 1,25,-1
 287 59 l 2,26,27
 287 33 287 33 269.5 16.5 c 128,-1,28
 252 0 252 0 231 0 c 2,29,-1
 181 0 l 2,30,31
 179 0 179 0 168.5 2 c 128,-1,32
 158 4 158 4 143 15 c 1,33,34
 137 9 137 9 126.5 4.5 c 128,-1,35
 116 0 116 0 102 0 c 2,36,-1
 56 0 l 2,37,38
 35 0 35 0 17.5 16.5 c 128,-1,39
 0 33 0 33 0 59 c 2,40,-1
 0 147 l 2,41,42
 0 173 0 173 17.5 189.5 c 128,-1,43
 35 206 35 206 56 206 c 2,44,-1
 105 206 l 2,45,46
 111 206 111 206 115.5 210 c 128,-1,47
 120 214 120 214 120 221 c 2,48,-1
 120 265 l 2,49,50
 120 273 120 273 115.5 276.5 c 128,-1,51
 111 280 111 280 105 280 c 2,52,-1
 61 280 l 2,53,54
 48 280 48 280 48 265 c 2,55,-1
 48 239 l 1,56,-1
 0 239 l 1,57,-1
 0 269 l 2,58,59
 0 295 0 295 17.5 311.5 c 128,-1,60
 35 328 35 328 56 328 c 2,61,-1
 112 328 l 2,62,63
 132 328 132 328 149.5 311.5 c 128,-1,64
 167 295 167 295 167 269 c 2,65,-1
 167 267 l 1,66,-1
 205 267 l 1,67,-1
 205 318 l 1,68,-1
 254 318 l 1,69,-1
 254 267 l 1,70,-1
 294 267 l 1,71,-1
 294 219 l 1,0,-1
EndSplineSet
Substitution2: "Single Substitution lookup 21 subtable" uni0C19_uni0C4D.abvs
EndChar

StartChar: uni0C1A
Encoding: 3098 3098 133
Width: 388
GlyphClass: 2
Flags: W
LayerCount: 2
Back
Fore
SplineSet
328 406 m 1,0,-1
 214 406 l 2,1,2
 208 406 208 406 203 402 c 128,-1,3
 198 398 198 398 198 390 c 2,4,-1
 198 328 l 1,5,-1
 273 328 l 2,6,7
 294 328 294 328 311 312 c 128,-1,8
 328 296 328 296 328 270 c 2,9,-1
 328 58 l 2,10,11
 328 33 328 33 311 16.5 c 128,-1,12
 294 0 294 0 273 0 c 2,13,-1
 223 0 l 2,14,15
 221 0 221 0 209.5 1 c 128,-1,16
 198 2 198 2 184 14 c 1,17,18
 178 8 178 8 167.5 4 c 128,-1,19
 157 0 157 0 144 0 c 2,20,-1
 96 0 l 2,21,22
 75 0 75 0 57.5 16.5 c 128,-1,23
 40 33 40 33 40 58 c 2,24,-1
 40 171 l 2,25,26
 41 172 41 172 41 173 c 0,27,28
 41 176 41 176 42 179 c 2,29,-1
 0 179 l 1,30,-1
 0 226 l 1,31,-1
 119 226 l 1,32,-1
 119 179 l 1,33,-1
 103 179 l 2,34,35
 97 179 97 179 92.5 175 c 128,-1,36
 88 171 88 171 88 164 c 2,37,-1
 88 62 l 2,38,39
 88 48 88 48 103 48 c 2,40,-1
 145 48 l 2,41,42
 153 48 153 48 156.5 52.5 c 128,-1,43
 160 57 160 57 160 62 c 2,44,-1
 160 107 l 1,45,-1
 208 107 l 1,46,-1
 208 61 l 2,47,48
 208 48 208 48 223 48 c 2,49,-1
 266 48 l 2,50,51
 271 48 271 48 275.5 51.5 c 128,-1,52
 280 55 280 55 280 63 c 2,53,-1
 280 266 l 2,54,55
 280 280 280 280 266 280 c 2,56,-1
 198 280 l 1,57,-1
 130 280 l 1,58,-1
 112 280 l 2,59,60
 102 280 102 280 91 284 c 128,-1,61
 80 288 80 288 71 295.5 c 128,-1,62
 62 303 62 303 56 313.5 c 128,-1,63
 50 324 50 324 50 336 c 2,64,-1
 50 370 l 1,65,-1
 100 370 l 1,66,-1
 100 353 l 2,67,68
 100 328 100 328 124 328 c 2,69,-1
 130 328 l 1,70,-1
 149 328 l 1,71,-1
 150 396 l 2,72,73
 150 421 150 421 168 436.5 c 128,-1,74
 186 452 186 452 206 452 c 2,75,-1
 328 452 l 1,76,-1
 328 406 l 1,0,-1
EndSplineSet
Substitution2: "Single Substitution lookup 21 subtable" uni0C1A_uni0C4D.abvs
EndChar

StartChar: uni0C1B
Encoding: 3099 3099 134
Width: 387
GlyphClass: 2
Flags: W
LayerCount: 2
Back
Fore
SplineSet
200 -84 m 1,0,-1
 159 -84 l 1,1,-1
 159 -24 l 2,2,3
 161 -24 161 -24 168 -22 c 128,-1,4
 175 -20 175 -20 182 -8 c 1,5,6
 184 -16 184 -16 190.5 -20 c 128,-1,7
 197 -24 197 -24 200 -25 c 2,8,-1
 200 -84 l 1,0,-1
328 406 m 1,9,-1
 214 406 l 2,10,11
 208 406 208 406 203 402 c 128,-1,12
 198 398 198 398 198 390 c 2,13,-1
 198 328 l 1,14,-1
 273 328 l 2,15,16
 294 328 294 328 311 312 c 128,-1,17
 328 296 328 296 328 270 c 2,18,-1
 328 58 l 2,19,20
 328 33 328 33 311 16.5 c 128,-1,21
 294 0 294 0 273 0 c 2,22,-1
 223 0 l 2,23,24
 221 0 221 0 209.5 1 c 128,-1,25
 198 2 198 2 184 14 c 1,26,27
 178 8 178 8 167.5 4 c 128,-1,28
 157 0 157 0 144 0 c 2,29,-1
 96 0 l 2,30,31
 75 0 75 0 57.5 16.5 c 128,-1,32
 40 33 40 33 40 58 c 2,33,-1
 40 171 l 2,34,35
 41 172 41 172 41 173 c 0,36,37
 41 176 41 176 42 179 c 2,38,-1
 0 179 l 1,39,-1
 0 226 l 1,40,-1
 119 226 l 1,41,-1
 119 179 l 1,42,-1
 103 179 l 2,43,44
 97 179 97 179 92.5 175 c 128,-1,45
 88 171 88 171 88 164 c 2,46,-1
 88 62 l 2,47,48
 88 48 88 48 103 48 c 2,49,-1
 145 48 l 2,50,51
 153 48 153 48 156.5 52.5 c 128,-1,52
 160 57 160 57 160 62 c 2,53,-1
 160 107 l 1,54,-1
 208 107 l 1,55,-1
 208 61 l 2,56,57
 208 48 208 48 223 48 c 2,58,-1
 266 48 l 2,59,60
 271 48 271 48 275.5 51.5 c 128,-1,61
 280 55 280 55 280 63 c 2,62,-1
 280 266 l 2,63,64
 280 280 280 280 266 280 c 2,65,-1
 198 280 l 1,66,-1
 130 280 l 1,67,-1
 112 280 l 2,68,69
 102 280 102 280 91 284 c 128,-1,70
 80 288 80 288 71 295.5 c 128,-1,71
 62 303 62 303 56 313.5 c 128,-1,72
 50 324 50 324 50 336 c 2,73,-1
 50 370 l 1,74,-1
 100 370 l 1,75,-1
 100 353 l 2,76,77
 100 328 100 328 124 328 c 2,78,-1
 130 328 l 1,79,-1
 149 328 l 1,80,-1
 150 396 l 2,81,82
 150 421 150 421 168 436.5 c 128,-1,83
 186 452 186 452 206 452 c 2,84,-1
 328 452 l 1,85,-1
 328 406 l 1,9,-1
EndSplineSet
Substitution2: "Single Substitution lookup 21 subtable" uni0C1B_uni0C4D.abvs
EndChar

StartChar: uni0C1C
Encoding: 3100 3100 135
Width: 347
GlyphClass: 2
Flags: W
LayerCount: 2
Back
Fore
SplineSet
181 0 m 2,0,1
 179 0 179 0 168.5 2 c 128,-1,2
 158 4 158 4 143 15 c 1,3,4
 137 9 137 9 126.5 4.5 c 128,-1,5
 116 0 116 0 102 0 c 2,6,-1
 56 0 l 2,7,8
 35 0 35 0 17.5 16.5 c 128,-1,9
 0 33 0 33 0 59 c 2,10,-1
 0 147 l 2,11,12
 0 173 0 173 17.5 189.5 c 128,-1,13
 35 206 35 206 56 206 c 2,14,-1
 105 206 l 2,15,16
 111 206 111 206 115.5 210 c 128,-1,17
 120 214 120 214 120 221 c 2,18,-1
 120 265 l 2,19,20
 120 273 120 273 115.5 276.5 c 128,-1,21
 111 280 111 280 105 280 c 2,22,-1
 61 280 l 2,23,24
 48 280 48 280 48 265 c 2,25,-1
 48 239 l 1,26,-1
 0 239 l 1,27,-1
 0 269 l 2,28,29
 0 295 0 295 17.5 311.5 c 128,-1,30
 35 328 35 328 56 328 c 2,31,-1
 112 328 l 2,32,33
 132 328 132 328 149.5 311.5 c 128,-1,34
 167 295 167 295 167 269 c 2,35,-1
 167 223 l 2,36,37
 167 215 167 215 171.5 211.5 c 128,-1,38
 176 208 176 208 181 208 c 2,39,-1
 224 208 l 2,40,41
 238 208 238 208 238 223 c 2,42,-1
 238 265 l 2,43,44
 238 273 238 273 233.5 276.5 c 128,-1,45
 229 280 229 280 224 280 c 2,46,-1
 207 280 l 1,47,-1
 207 328 l 1,48,-1
 230 328 l 2,49,50
 251 328 251 328 268.5 311.5 c 128,-1,51
 286 295 286 295 286 269 c 2,52,-1
 286 220 l 2,53,54
 286 194 286 194 268.5 177.5 c 128,-1,55
 251 161 251 161 230 161 c 2,56,-1
 182 161 l 2,57,58
 180 161 180 161 168.5 162 c 128,-1,59
 157 163 157 163 143 175 c 1,60,61
 137 170 137 170 126.5 164.5 c 128,-1,62
 116 159 116 159 102 159 c 2,63,-1
 61 159 l 2,64,65
 48 159 48 159 48 143 c 2,66,-1
 48 63 l 2,67,68
 48 48 48 48 61 48 c 2,69,-1
 103 48 l 2,70,71
 111 48 111 48 115 52.5 c 128,-1,72
 119 57 119 57 119 62 c 2,73,-1
 119 88 l 1,74,-1
 166 88 l 1,75,-1
 166 62 l 2,76,77
 166 48 166 48 181 48 c 2,78,-1
 226 48 l 2,79,80
 239 48 239 48 239 63 c 2,81,-1
 239 128 l 1,82,-1
 287 128 l 1,83,-1
 287 59 l 2,84,85
 287 33 287 33 269.5 16.5 c 128,-1,86
 252 0 252 0 231 0 c 2,87,-1
 181 0 l 2,0,1
EndSplineSet
Substitution2: "Single Substitution lookup 21 subtable" uni0C1C_uni0C4D.abvs
EndChar

StartChar: uni0C1D
Encoding: 3101 3101 136
Width: 571
GlyphClass: 2
Flags: W
LayerCount: 2
Back
Fore
SplineSet
382 -92 m 1,0,-1
 341 -92 l 1,1,-1
 341 -22 l 2,2,3
 343 -22 343 -22 350 -20 c 128,-1,4
 357 -18 357 -18 364 -6 c 1,5,6
 366 -14 366 -14 372.5 -18 c 128,-1,7
 379 -22 379 -22 382 -23 c 2,8,-1
 382 -92 l 1,0,-1
201 66 m 2,9,-1
 201 263 l 2,10,11
 201 272 201 272 196 276 c 128,-1,12
 191 280 191 280 185 280 c 2,13,-1
 65 280 l 2,14,15
 48 280 48 280 48 263 c 2,16,-1
 48 66 l 2,17,18
 48 48 48 48 65 48 c 2,19,-1
 185 48 l 2,20,21
 191 48 191 48 196 52.5 c 128,-1,22
 201 57 201 57 201 66 c 2,9,-1
189 0 m 2,23,-1
 62 0 l 2,24,25
 39 0 39 0 19.5 18.5 c 128,-1,26
 0 37 0 37 0 66 c 2,27,-1
 0 263 l 2,28,29
 0 280 0 280 7.5 293.5 c 128,-1,30
 15 307 15 307 27 316 c 1,31,32
 18 325 18 325 18 342 c 2,33,-1
 18 380 l 1,34,-1
 65 380 l 1,35,-1
 65 346 l 2,36,37
 65 333 65 333 80 330 c 2,38,-1
 90 328 l 1,39,-1
 125 328 l 1,40,-1
 125 394 l 2,41,42
 125 420 125 420 142 436 c 128,-1,43
 159 452 159 452 181 452 c 2,44,-1
 249 452 l 1,45,-1
 249 404 l 1,46,-1
 187 404 l 2,47,48
 181 404 181 404 176.5 400.5 c 128,-1,49
 172 397 172 397 172 389 c 2,50,-1
 172 328 l 1,51,-1
 187 328 l 2,52,53
 210 328 210 328 229.5 309.5 c 128,-1,54
 249 291 249 291 249 263 c 2,55,-1
 249 83 l 1,56,57
 254 65 254 65 259 56.5 c 128,-1,58
 264 48 264 48 274 48 c 2,59,-1
 320 48 l 2,60,61
 337 48 337 48 337 66 c 2,62,-1
 337 263 l 2,63,64
 337 280 337 280 320 280 c 2,65,-1
 305 280 l 1,66,-1
 305 328 l 1,67,-1
 322 328 l 2,68,69
 346 328 346 328 365 309.5 c 128,-1,70
 384 291 384 291 384 262 c 2,71,-1
 384 76 l 1,72,73
 389 62 389 62 394 55 c 128,-1,74
 399 48 399 48 408 48 c 2,75,-1
 454 48 l 2,76,77
 461 48 461 48 466 52.5 c 128,-1,78
 471 57 471 57 471 66 c 2,79,-1
 471 263 l 2,80,81
 471 280 471 280 454 280 c 2,82,-1
 439 280 l 1,83,-1
 439 328 l 1,84,-1
 456 328 l 2,85,86
 479 328 479 328 498.5 309.5 c 128,-1,87
 518 291 518 291 518 262 c 2,88,-1
 518 66 l 2,89,90
 518 37 518 37 498.5 18.5 c 128,-1,91
 479 0 479 0 456 0 c 2,92,-1
 406 0 l 2,93,94
 395 0 395 0 383.5 4.5 c 128,-1,95
 372 9 372 9 364 17 c 1,96,97
 347 0 347 0 322 0 c 2,98,-1
 272 0 l 2,99,100
 261 0 261 0 249.5 5 c 128,-1,101
 238 10 238 10 230 18 c 1,102,103
 219 7 219 7 207 3.5 c 128,-1,104
 195 0 195 0 189 0 c 2,23,-1
EndSplineSet
Substitution2: "Single Substitution lookup 21 subtable" uni0C1D_uni0C4D.abvs
EndChar

StartChar: uni0C1E
Encoding: 3102 3102 137
Width: 463
GlyphClass: 2
Flags: W
LayerCount: 2
Back
Fore
SplineSet
238 141 m 1,0,-1
 65 141 l 2,1,2
 58 141 58 141 53 136.5 c 128,-1,3
 48 132 48 132 48 122 c 2,4,-1
 48 65 l 2,5,6
 48 56 48 56 53 51.5 c 128,-1,7
 58 47 58 47 65 47 c 2,8,-1
 223 47 l 2,9,10
 229 47 229 47 233.5 51.5 c 128,-1,11
 238 56 238 56 238 65 c 2,12,-1
 238 141 l 1,0,-1
418 266 m 1,13,-1
 418 218 l 1,14,-1
 286 218 l 1,15,-1
 286 189 l 1,16,-1
 305 189 l 2,17,18
 328 189 328 189 345.5 172.5 c 128,-1,19
 363 156 363 156 363 126 c 2,20,-1
 363 -1 l 1,21,-1
 316 -1 l 1,22,-1
 316 122 l 2,23,24
 316 132 316 132 311 136.5 c 128,-1,25
 306 141 306 141 299 141 c 2,26,-1
 286 141 l 1,27,-1
 286 65 l 2,28,29
 286 36 286 36 266.5 17.5 c 128,-1,30
 247 -1 247 -1 224 -1 c 2,31,-1
 62 -1 l 2,32,33
 39 -1 39 -1 19.5 17.5 c 128,-1,34
 0 36 0 36 0 65 c 2,35,-1
 0 122 l 2,36,37
 0 151 0 151 19.5 170 c 128,-1,38
 39 189 39 189 62 189 c 2,39,-1
 238 189 l 1,40,-1
 238 262 l 2,41,42
 238 272 238 272 233 276 c 128,-1,43
 228 280 228 280 222 280 c 2,44,-1
 183 280 l 2,45,46
 166 280 166 280 166 262 c 2,47,-1
 166 240 l 1,48,-1
 119 240 l 1,49,-1
 119 262 l 2,50,51
 119 271 119 271 113.5 275.5 c 128,-1,52
 108 280 108 280 101 280 c 2,53,-1
 65 280 l 2,54,55
 48 280 48 280 48 262 c 2,56,-1
 48 220 l 1,57,-1
 0 220 l 1,58,-1
 0 262 l 2,59,60
 0 291 0 291 19.5 309.5 c 128,-1,61
 39 328 39 328 62 328 c 2,62,-1
 103 328 l 2,63,64
 115 328 115 328 125.5 322.5 c 128,-1,65
 136 317 136 317 142 309 c 1,66,67
 149 328 149 328 171 328 c 2,68,-1
 224 328 l 2,69,70
 247 328 247 328 265.5 311 c 128,-1,71
 284 294 284 294 286 266 c 1,72,-1
 330 266 l 1,73,-1
 330 318 l 1,74,-1
 379 318 l 1,75,-1
 379 266 l 1,76,-1
 418 266 l 1,13,-1
EndSplineSet
Substitution2: "Single Substitution lookup 21 subtable" uni0C1E_uni0C4D.abvs
EndChar

StartChar: uni0C1F
Encoding: 3103 3103 138
Width: 364
GlyphClass: 2
Flags: W
LayerCount: 2
Back
Fore
SplineSet
60 391 m 1,0,-1
 108 391 l 1,1,-1
 108 329 l 1,2,3
 131 327 131 327 149 309 c 128,-1,4
 167 291 167 291 167 263 c 2,5,-1
 167 206 l 2,6,7
 167 177 167 177 147.5 158 c 128,-1,8
 128 139 128 139 104 139 c 2,9,-1
 48 139 l 1,10,-1
 48 67 l 2,11,12
 48 57 48 57 53 52.5 c 128,-1,13
 58 48 58 48 65 48 c 2,14,-1
 112 48 l 2,15,16
 130 48 130 48 130 67 c 2,17,-1
 130 107 l 1,18,-1
 177 107 l 1,19,-1
 177 67 l 2,20,21
 177 48 177 48 195 48 c 2,22,-1
 245 48 l 2,23,24
 252 48 252 48 257 52.5 c 128,-1,25
 262 57 262 57 262 67 c 2,26,-1
 262 264 l 2,27,28
 262 281 262 281 245 281 c 2,29,-1
 231 281 l 1,30,-1
 231 329 l 1,31,-1
 247 329 l 2,32,33
 270 329 270 329 290 310.5 c 128,-1,34
 310 292 310 292 310 263 c 2,35,-1
 310 67 l 2,36,37
 310 38 310 38 290 19 c 128,-1,38
 270 0 270 0 247 0 c 2,39,-1
 187 0 l 2,40,41
 166 0 166 0 155 11 c 1,42,43
 150 6 150 6 141.5 3 c 128,-1,44
 133 0 133 0 127 0 c 2,45,-1
 63 0 l 2,46,47
 39 0 39 0 19.5 19 c 128,-1,48
 0 38 0 38 0 67 c 2,49,-1
 0 263 l 2,50,51
 0 291 0 291 18.5 309.5 c 128,-1,52
 37 328 37 328 60 329 c 1,53,-1
 60 391 l 1,0,-1
120 264 m 2,54,55
 120 281 120 281 102 281 c 2,56,-1
 65 281 l 2,57,58
 48 281 48 281 48 264 c 2,59,-1
 48 186 l 1,60,-1
 102 186 l 2,61,62
 120 186 120 186 120 205 c 2,63,-1
 120 264 l 2,54,55
EndSplineSet
Substitution2: "Single Substitution lookup 21 subtable" uni0C1F_uni0C4D.abvs
EndChar

StartChar: uni0C20
Encoding: 3104 3104 139
Width: 312
GlyphClass: 2
Flags: W
LayerCount: 2
Back
Fore
SplineSet
201 66 m 2,0,-1
 201 263 l 2,1,2
 201 272 201 272 196 276 c 128,-1,3
 191 280 191 280 185 280 c 2,4,-1
 65 280 l 2,5,6
 48 280 48 280 48 263 c 2,7,-1
 48 66 l 2,8,9
 48 48 48 48 65 48 c 2,10,-1
 185 48 l 2,11,12
 191 48 191 48 196 52.5 c 128,-1,13
 201 57 201 57 201 66 c 2,0,-1
189 0 m 2,14,-1
 62 0 l 2,15,16
 39 0 39 0 19.5 18.5 c 128,-1,17
 0 37 0 37 0 66 c 2,18,-1
 0 263 l 2,19,20
 0 280 0 280 7.5 293.5 c 128,-1,21
 15 307 15 307 27 316 c 1,22,23
 18 325 18 325 18 342 c 2,24,-1
 18 380 l 1,25,-1
 65 380 l 1,26,-1
 65 346 l 2,27,28
 65 333 65 333 80 330 c 2,29,-1
 90 328 l 1,30,-1
 125 328 l 1,31,-1
 125 394 l 2,32,33
 125 420 125 420 142 436 c 128,-1,34
 159 452 159 452 181 452 c 2,35,-1
 249 452 l 1,36,-1
 249 404 l 1,37,-1
 187 404 l 2,38,39
 181 404 181 404 176.5 400.5 c 128,-1,40
 172 397 172 397 172 389 c 2,41,-1
 172 328 l 1,42,-1
 187 328 l 2,43,44
 210 328 210 328 229.5 309.5 c 128,-1,45
 249 291 249 291 249 263 c 2,46,-1
 249 66 l 2,47,48
 249 46 249 46 241.5 33.5 c 128,-1,49
 234 21 234 21 224.5 13.5 c 128,-1,50
 215 6 215 6 205 3 c 128,-1,51
 195 0 195 0 189 0 c 2,14,-1
146 136 m 1,52,-1
 105 136 l 1,53,-1
 105 184 l 1,54,-1
 146 184 l 1,55,-1
 146 136 l 1,52,-1
EndSplineSet
Substitution2: "Single Substitution lookup 21 subtable" uni0C20_uni0C4D.abvs
EndChar

StartChar: uni0C21
Encoding: 3105 3105 140
Width: 353
GlyphClass: 2
Flags: W
LayerCount: 2
Back
Fore
SplineSet
250 0 m 2,0,-1
 192 0 l 2,1,2
 190 0 190 0 179 1 c 128,-1,3
 168 2 168 2 154 15 c 1,4,5
 148 9 148 9 137 4.5 c 128,-1,6
 126 0 126 0 113 0 c 2,7,-1
 55 0 l 2,8,9
 35 0 35 0 17.5 16.5 c 128,-1,10
 0 33 0 33 0 58 c 2,11,-1
 0 270 l 2,12,13
 0 293 0 293 15 310 c 1,14,15
 0 322 0 322 0 342 c 2,16,-1
 0 400 l 1,17,-1
 47 400 l 1,18,-1
 47 346 l 2,19,20
 47 333 47 333 62 330 c 2,21,-1
 72 328 l 1,22,-1
 127 328 l 1,23,-1
 127 389 l 2,24,25
 127 415 127 415 144.5 431 c 128,-1,26
 162 447 162 447 183 447 c 2,27,-1
 301 447 l 1,28,-1
 301 401 l 1,29,-1
 189 401 l 2,30,31
 183 401 183 401 178.5 397.5 c 128,-1,32
 174 394 174 394 174 386 c 2,33,-1
 174 328 l 1,34,-1
 240 328 l 2,35,36
 261 328 261 328 278.5 312 c 128,-1,37
 296 296 296 296 296 270 c 2,38,-1
 296 241 l 1,39,-1
 248 241 l 1,40,-1
 248 266 l 2,41,42
 248 280 248 280 236 280 c 2,43,-1
 61 280 l 2,44,45
 48 280 48 280 48 266 c 2,46,-1
 48 63 l 2,47,48
 48 48 48 48 61 48 c 2,49,-1
 114 48 l 2,50,51
 122 48 122 48 126 52.5 c 128,-1,52
 130 57 130 57 130 62 c 2,53,-1
 130 107 l 1,54,-1
 177 107 l 1,55,-1
 177 63 l 2,56,57
 177 57 177 57 180.5 52.5 c 128,-1,58
 184 48 184 48 191 48 c 2,59,-1
 246 48 l 2,60,61
 258 48 258 48 258 64 c 2,62,-1
 258 143 l 2,63,64
 258 159 258 159 246 159 c 2,65,-1
 210 159 l 1,66,-1
 210 207 l 1,67,-1
 250 207 l 2,68,69
 271 207 271 207 288.5 191 c 128,-1,70
 306 175 306 175 306 149 c 2,71,-1
 306 60 l 2,72,73
 306 34 306 34 288.5 17 c 128,-1,74
 271 0 271 0 250 0 c 2,0,-1
EndSplineSet
Substitution2: "Single Substitution lookup 21 subtable" uni0C21_uni0C4D.abvs
EndChar

StartChar: uni0C22
Encoding: 3106 3106 141
Width: 353
GlyphClass: 2
Flags: W
LayerCount: 2
Back
Fore
SplineSet
171 -95 m 1,0,-1
 130 -95 l 1,1,-1
 130 -25 l 2,2,3
 132 -25 132 -25 139 -23 c 128,-1,4
 146 -21 146 -21 153 -9 c 1,5,6
 155 -17 155 -17 161.5 -21 c 128,-1,7
 168 -25 168 -25 171 -26 c 2,8,-1
 171 -95 l 1,0,-1
250 0 m 2,9,-1
 192 0 l 2,10,11
 190 0 190 0 179 1 c 128,-1,12
 168 2 168 2 154 15 c 1,13,14
 148 9 148 9 137 4.5 c 128,-1,15
 126 0 126 0 113 0 c 2,16,-1
 55 0 l 2,17,18
 35 0 35 0 17.5 16.5 c 128,-1,19
 0 33 0 33 0 58 c 2,20,-1
 0 270 l 2,21,22
 0 293 0 293 15 310 c 1,23,24
 0 322 0 322 0 342 c 2,25,-1
 0 400 l 1,26,-1
 47 400 l 1,27,-1
 47 346 l 2,28,29
 47 333 47 333 62 330 c 2,30,-1
 72 328 l 1,31,-1
 127 328 l 1,32,-1
 127 389 l 2,33,34
 127 415 127 415 144.5 431 c 128,-1,35
 162 447 162 447 183 447 c 2,36,-1
 301 447 l 1,37,-1
 301 401 l 1,38,-1
 189 401 l 2,39,40
 183 401 183 401 178.5 397.5 c 128,-1,41
 174 394 174 394 174 386 c 2,42,-1
 174 328 l 1,43,-1
 240 328 l 2,44,45
 261 328 261 328 278.5 312 c 128,-1,46
 296 296 296 296 296 270 c 2,47,-1
 296 241 l 1,48,-1
 248 241 l 1,49,-1
 248 266 l 2,50,51
 248 280 248 280 236 280 c 2,52,-1
 61 280 l 2,53,54
 48 280 48 280 48 266 c 2,55,-1
 48 63 l 2,56,57
 48 48 48 48 61 48 c 2,58,-1
 114 48 l 2,59,60
 122 48 122 48 126 52.5 c 128,-1,61
 130 57 130 57 130 62 c 2,62,-1
 130 107 l 1,63,-1
 177 107 l 1,64,-1
 177 63 l 2,65,66
 177 57 177 57 180.5 52.5 c 128,-1,67
 184 48 184 48 191 48 c 2,68,-1
 246 48 l 2,69,70
 258 48 258 48 258 64 c 2,71,-1
 258 143 l 2,72,73
 258 159 258 159 246 159 c 2,74,-1
 210 159 l 1,75,-1
 210 207 l 1,76,-1
 250 207 l 2,77,78
 271 207 271 207 288.5 191 c 128,-1,79
 306 175 306 175 306 149 c 2,80,-1
 306 60 l 2,81,82
 306 34 306 34 288.5 17 c 128,-1,83
 271 0 271 0 250 0 c 2,9,-1
EndSplineSet
Substitution2: "Single Substitution lookup 21 subtable" uni0C22_uni0C4D.abvs
EndChar

StartChar: uni0C23
Encoding: 3107 3107 142
Width: 363
GlyphClass: 2
Flags: W
LayerCount: 2
Back
Fore
SplineSet
191 0 m 2,0,1
 168 0 168 0 148.5 18.5 c 128,-1,2
 129 37 129 37 129 66 c 2,3,-1
 129 121 l 2,4,5
 129 150 129 150 148.5 168.5 c 128,-1,6
 168 187 168 187 191 187 c 2,7,-1
 248 187 l 2,8,9
 249 187 249 187 251.5 186.5 c 128,-1,10
 254 186 254 186 259 185 c 1,11,-1
 259 263 l 2,12,13
 259 280 259 280 242 280 c 2,14,-1
 193 280 l 2,15,16
 186 280 186 280 181 276 c 128,-1,17
 176 272 176 272 176 263 c 2,18,-1
 176 239 l 1,19,-1
 129 239 l 1,20,-1
 129 263 l 2,21,22
 129 272 129 272 123.5 276 c 128,-1,23
 118 280 118 280 111 280 c 2,24,-1
 65 280 l 2,25,26
 48 280 48 280 48 263 c 2,27,-1
 48 204 l 2,28,29
 48 187 48 187 65 187 c 2,30,-1
 88 187 l 1,31,-1
 88 140 l 1,32,-1
 65 140 l 2,33,34
 48 140 48 140 48 122 c 2,35,-1
 48 66 l 2,36,37
 48 57 48 57 53 52.5 c 128,-1,38
 58 48 58 48 65 48 c 2,39,-1
 88 48 l 1,40,-1
 88 0 l 1,41,-1
 63 0 l 2,42,43
 39 0 39 0 19.5 18.5 c 128,-1,44
 0 37 0 37 0 66 c 2,45,-1
 0 122 l 2,46,47
 0 140 0 140 4 148.5 c 128,-1,48
 8 157 8 157 15 164 c 1,49,50
 7 169 7 169 3.5 177 c 128,-1,51
 0 185 0 185 0 200 c 2,52,-1
 0 262 l 2,53,54
 0 291 0 291 19.5 309.5 c 128,-1,55
 39 328 39 328 63 328 c 2,56,-1
 114 328 l 2,57,58
 133 328 133 328 139 324 c 128,-1,59
 145 320 145 320 153 313 c 1,60,61
 158 320 158 320 165 324 c 128,-1,62
 172 328 172 328 183 328 c 2,63,-1
 244 328 l 2,64,65
 268 328 268 328 287.5 309.5 c 128,-1,66
 307 291 307 291 307 262 c 2,67,-1
 307 66 l 2,68,69
 307 37 307 37 287.5 18.5 c 128,-1,70
 268 0 268 0 244 0 c 2,71,-1
 191 0 l 2,0,1
259 126 m 1,72,73
 254 140 254 140 241 140 c 2,74,-1
 193 140 l 2,75,76
 186 140 186 140 181 135.5 c 128,-1,77
 176 131 176 131 176 122 c 2,78,-1
 176 66 l 2,79,80
 176 57 176 57 181 52.5 c 128,-1,81
 186 48 186 48 193 48 c 2,82,-1
 242 48 l 2,83,84
 249 48 249 48 254 52.5 c 128,-1,85
 259 57 259 57 259 66 c 2,86,-1
 259 126 l 1,72,73
EndSplineSet
Substitution2: "Single Substitution lookup 21 subtable" uni0C23_uni0C4D.abvs
EndChar

StartChar: uni0C24
Encoding: 3108 3108 143
Width: 365
GlyphClass: 2
Flags: W
LayerCount: 2
Back
Fore
SplineSet
105 153 m 2,0,-1
 105 170 l 2,1,2
 105 179 105 179 100 183.5 c 128,-1,3
 95 188 95 188 88 188 c 2,4,-1
 56 188 l 2,5,6
 49 188 49 188 48.5 183 c 128,-1,7
 48 178 48 178 48 170 c 2,8,-1
 48 135 l 1,9,-1
 88 135 l 2,10,11
 95 135 95 135 100 139.5 c 128,-1,12
 105 144 105 144 105 153 c 2,0,-1
271 135 m 1,13,-1
 271 170 l 2,14,15
 271 179 271 179 265.5 183.5 c 128,-1,16
 260 188 260 188 254 188 c 2,17,-1
 230 188 l 2,18,19
 224 188 224 188 219 183.5 c 128,-1,20
 214 179 214 179 214 170 c 2,21,-1
 214 153 l 2,22,23
 214 144 214 144 219 139.5 c 128,-1,24
 224 135 224 135 230 135 c 2,25,-1
 271 135 l 1,13,-1
256 0 m 2,26,-1
 63 0 l 2,27,28
 39 0 39 0 19.5 18.5 c 128,-1,29
 0 37 0 37 0 66 c 2,30,-1
 0 171 l 2,31,32
 0 199 0 199 14.5 217.5 c 128,-1,33
 29 236 29 236 54 236 c 2,34,-1
 91 236 l 2,35,36
 114 236 114 236 133.5 218 c 128,-1,37
 153 200 153 200 153 171 c 2,38,-1
 153 153 l 2,39,40
 153 124 153 124 133.5 105.5 c 128,-1,41
 114 87 114 87 91 87 c 2,42,-1
 48 87 l 1,43,-1
 48 66 l 2,44,45
 48 57 48 57 53 52.5 c 128,-1,46
 58 48 58 48 65 48 c 2,47,-1
 254 48 l 2,48,49
 260 48 260 48 265.5 52.5 c 128,-1,50
 271 57 271 57 271 66 c 2,51,-1
 271 87 l 1,52,-1
 228 87 l 2,53,54
 216 87 216 87 205 92 c 128,-1,55
 194 97 194 97 185 106 c 128,-1,56
 176 115 176 115 170.5 127.5 c 128,-1,57
 165 140 165 140 165 154 c 2,58,-1
 165 171 l 2,59,60
 165 200 165 200 185 218 c 128,-1,61
 205 236 205 236 228 236 c 2,62,-1
 251 236 l 1,63,64
 252 241 252 241 252.5 243 c 128,-1,65
 253 245 253 245 253 243 c 2,66,-1
 253 263 l 2,67,68
 253 274 253 274 251.5 277 c 128,-1,69
 250 280 250 280 242 280 c 2,70,-1
 50 280 l 1,71,-1
 50 328 l 1,72,-1
 136 328 l 1,73,-1
 136 393 l 2,74,75
 136 418 136 418 153 433.5 c 128,-1,76
 170 449 170 449 190 449 c 2,77,-1
 317 449 l 1,78,-1
 317 403 l 1,79,-1
 197 403 l 2,80,81
 192 403 192 403 187.5 399.5 c 128,-1,82
 183 396 183 396 183 389 c 2,83,-1
 183 328 l 1,84,-1
 241 328 l 2,85,86
 267 328 267 328 283.5 314 c 128,-1,87
 300 300 300 300 300 268 c 2,88,-1
 300 237 l 2,89,90
 300 227 300 227 297 220 c 1,91,92
 307 211 307 211 313 198 c 128,-1,93
 319 185 319 185 319 170 c 2,94,-1
 319 66 l 2,95,96
 319 37 319 37 299 18.5 c 128,-1,97
 279 0 279 0 256 0 c 2,26,-1
EndSplineSet
Substitution2: "Single Substitution lookup 21 subtable" uni0C24_uni0C4D.abvs
EndChar

StartChar: uni0C25
Encoding: 3109 3109 144
Width: 367
GlyphClass: 2
Flags: W
LayerCount: 2
Back
Fore
SplineSet
171 -96 m 1,0,-1
 130 -96 l 1,1,-1
 130 -26 l 2,2,3
 132 -26 132 -26 139 -24 c 128,-1,4
 146 -22 146 -22 153 -10 c 1,5,6
 155 -18 155 -18 161.5 -22 c 128,-1,7
 168 -26 168 -26 171 -27 c 2,8,-1
 171 -96 l 1,0,-1
260 61 m 2,9,-1
 260 265 l 2,10,11
 260 280 260 280 246 280 c 2,12,-1
 60 280 l 2,13,14
 48 280 48 280 48 264 c 2,15,-1
 48 61 l 2,16,17
 48 48 48 48 60 48 c 2,18,-1
 115 48 l 2,19,20
 130 48 130 48 130 61 c 2,21,-1
 130 107 l 1,22,-1
 177 107 l 1,23,-1
 177 61 l 2,24,25
 177 48 177 48 191 48 c 2,26,-1
 246 48 l 2,27,28
 260 48 260 48 260 61 c 2,9,-1
252 0 m 2,29,-1
 192 0 l 2,30,31
 189 -1 189 -1 178.5 -0.5 c 128,-1,32
 168 0 168 0 154 14 c 1,33,34
 147 8 147 8 136.5 4 c 128,-1,35
 126 0 126 0 114 0 c 2,36,-1
 55 0 l 2,37,38
 34 0 34 0 17 16 c 128,-1,39
 0 32 0 32 0 58 c 2,40,-1
 0 270 l 2,41,42
 0 293 0 293 13 307.5 c 128,-1,43
 26 322 26 322 43 327 c 1,44,45
 41 335 41 335 41 341 c 2,46,-1
 41 399 l 1,47,-1
 88 399 l 1,48,-1
 88 345 l 2,49,50
 88 337 88 337 92 334 c 128,-1,51
 96 331 96 331 103 329 c 2,52,-1
 108 328 l 1,53,-1
 178 328 l 1,54,-1
 179 394 l 2,55,56
 180 420 180 420 196.5 435.5 c 128,-1,57
 213 451 213 451 235 451 c 2,58,-1
 309 451 l 1,59,-1
 309 405 l 1,60,-1
 241 405 l 2,61,62
 235 405 235 405 230.5 401.5 c 128,-1,63
 226 398 226 398 226 390 c 2,64,-1
 225 328 l 1,65,-1
 252 328 l 2,66,67
 273 328 273 328 290.5 312 c 128,-1,68
 308 296 308 296 308 270 c 2,69,-1
 308 58 l 2,70,71
 308 32 308 32 290.5 16 c 128,-1,72
 273 0 273 0 252 0 c 2,29,-1
179 157 m 1,73,-1
 129 156 l 1,74,-1
 129 214 l 1,75,-1
 179 215 l 1,76,-1
 179 157 l 1,73,-1
EndSplineSet
Substitution2: "Single Substitution lookup 21 subtable" uni0C25_uni0C4D.abvs
EndChar

StartChar: uni0C26
Encoding: 3110 3110 145
Width: 367
GlyphClass: 2
Flags: W
LayerCount: 2
Back
Fore
SplineSet
260 61 m 2,0,-1
 260 265 l 2,1,2
 260 280 260 280 246 280 c 2,3,-1
 60 280 l 2,4,5
 48 280 48 280 48 264 c 2,6,-1
 48 61 l 2,7,8
 48 48 48 48 60 48 c 2,9,-1
 115 48 l 2,10,11
 130 48 130 48 130 61 c 2,12,-1
 130 107 l 1,13,-1
 177 107 l 1,14,-1
 177 61 l 2,15,16
 177 48 177 48 191 48 c 2,17,-1
 246 48 l 2,18,19
 260 48 260 48 260 61 c 2,0,-1
252 0 m 2,20,-1
 192 0 l 2,21,22
 189 -1 189 -1 178.5 -0.5 c 128,-1,23
 168 0 168 0 154 14 c 1,24,25
 147 8 147 8 136.5 4 c 128,-1,26
 126 0 126 0 114 0 c 2,27,-1
 55 0 l 2,28,29
 34 0 34 0 17 16 c 128,-1,30
 0 32 0 32 0 58 c 2,31,-1
 0 270 l 2,32,33
 0 293 0 293 13 307.5 c 128,-1,34
 26 322 26 322 43 327 c 1,35,36
 41 335 41 335 41 341 c 2,37,-1
 41 399 l 1,38,-1
 88 399 l 1,39,-1
 88 345 l 2,40,41
 88 337 88 337 92 334 c 128,-1,42
 96 331 96 331 103 329 c 2,43,-1
 108 328 l 1,44,-1
 178 328 l 1,45,-1
 179 394 l 2,46,47
 180 420 180 420 196.5 435.5 c 128,-1,48
 213 451 213 451 235 451 c 2,49,-1
 309 451 l 1,50,-1
 309 405 l 1,51,-1
 241 405 l 2,52,53
 235 405 235 405 230.5 401.5 c 128,-1,54
 226 398 226 398 226 390 c 2,55,-1
 225 328 l 1,56,-1
 252 328 l 2,57,58
 273 328 273 328 290.5 312 c 128,-1,59
 308 296 308 296 308 270 c 2,60,-1
 308 58 l 2,61,62
 308 32 308 32 290.5 16 c 128,-1,63
 273 0 273 0 252 0 c 2,20,-1
EndSplineSet
Substitution2: "Single Substitution lookup 21 subtable" uni0C26_uni0C4D.abvs
EndChar

StartChar: uni0C27
Encoding: 3111 3111 146
Width: 367
GlyphClass: 2
Flags: W
LayerCount: 2
Back
Fore
SplineSet
171 -96 m 1,0,-1
 130 -96 l 1,1,-1
 130 -26 l 2,2,3
 132 -26 132 -26 139 -24 c 128,-1,4
 146 -22 146 -22 153 -10 c 1,5,6
 155 -18 155 -18 161.5 -22 c 128,-1,7
 168 -26 168 -26 171 -27 c 2,8,-1
 171 -96 l 1,0,-1
260 61 m 2,9,-1
 260 265 l 2,10,11
 260 280 260 280 246 280 c 2,12,-1
 60 280 l 2,13,14
 48 280 48 280 48 264 c 2,15,-1
 48 61 l 2,16,17
 48 48 48 48 60 48 c 2,18,-1
 115 48 l 2,19,20
 130 48 130 48 130 61 c 2,21,-1
 130 107 l 1,22,-1
 177 107 l 1,23,-1
 177 61 l 2,24,25
 177 48 177 48 191 48 c 2,26,-1
 246 48 l 2,27,28
 260 48 260 48 260 61 c 2,9,-1
252 0 m 2,29,-1
 192 0 l 2,30,31
 189 -1 189 -1 178.5 -0.5 c 128,-1,32
 168 0 168 0 154 14 c 1,33,34
 147 8 147 8 136.5 4 c 128,-1,35
 126 0 126 0 114 0 c 2,36,-1
 55 0 l 2,37,38
 34 0 34 0 17 16 c 128,-1,39
 0 32 0 32 0 58 c 2,40,-1
 0 270 l 2,41,42
 0 293 0 293 13 307.5 c 128,-1,43
 26 322 26 322 43 327 c 1,44,45
 41 335 41 335 41 341 c 2,46,-1
 41 399 l 1,47,-1
 88 399 l 1,48,-1
 88 345 l 2,49,50
 88 337 88 337 92 334 c 128,-1,51
 96 331 96 331 103 329 c 2,52,-1
 108 328 l 1,53,-1
 178 328 l 1,54,-1
 179 394 l 2,55,56
 180 420 180 420 196.5 435.5 c 128,-1,57
 213 451 213 451 235 451 c 2,58,-1
 309 451 l 1,59,-1
 309 405 l 1,60,-1
 241 405 l 2,61,62
 235 405 235 405 230.5 401.5 c 128,-1,63
 226 398 226 398 226 390 c 2,64,-1
 225 328 l 1,65,-1
 252 328 l 2,66,67
 273 328 273 328 290.5 312 c 128,-1,68
 308 296 308 296 308 270 c 2,69,-1
 308 58 l 2,70,71
 308 32 308 32 290.5 16 c 128,-1,72
 273 0 273 0 252 0 c 2,29,-1
EndSplineSet
Substitution2: "Single Substitution lookup 21 subtable" uni0C27_uni0C4D.abvs
EndChar

StartChar: uni0C28
Encoding: 3112 3112 147
Width: 364
GlyphClass: 2
Flags: W
LayerCount: 2
Back
Fore
SplineSet
244 0 m 2,0,-1
 192 0 l 2,1,2
 169 0 169 0 149 18.5 c 128,-1,3
 129 37 129 37 129 66 c 2,4,-1
 129 153 l 2,5,6
 129 162 129 162 124 166 c 128,-1,7
 119 170 119 170 112 171 c 2,8,-1
 65 171 l 2,9,10
 48 171 48 171 48 153 c 2,11,-1
 48 0 l 1,12,-1
 0 0 l 1,13,-1
 0 154 l 2,14,15
 0 183 0 183 19.5 200.5 c 128,-1,16
 39 218 39 218 63 218 c 2,17,-1
 114 218 l 2,18,19
 137 218 137 218 157 200.5 c 128,-1,20
 177 183 177 183 177 154 c 2,21,-1
 177 66 l 2,22,23
 177 57 177 57 182 52.5 c 128,-1,24
 187 48 187 48 194 48 c 2,25,-1
 242 48 l 2,26,27
 248 48 248 48 253 52.5 c 128,-1,28
 258 57 258 57 258 66 c 2,29,-1
 258 263 l 2,30,31
 258 272 258 272 253 276 c 128,-1,32
 248 280 248 280 242 280 c 2,33,-1
 34 280 l 1,34,-1
 34 328 l 1,35,-1
 116 328 l 1,36,-1
 116 399 l 2,37,38
 116 424 116 424 133 439.5 c 128,-1,39
 150 455 150 455 170 455 c 2,40,-1
 306 455 l 1,41,-1
 306 409 l 1,42,-1
 177 409 l 2,43,44
 172 409 172 409 167.5 405.5 c 128,-1,45
 163 402 163 402 163 395 c 2,46,-1
 163 328 l 1,47,-1
 244 328 l 2,48,49
 267 328 267 328 286.5 309.5 c 128,-1,50
 306 291 306 291 306 263 c 2,51,-1
 306 66 l 2,52,53
 306 36 306 36 286.5 18 c 128,-1,54
 267 0 267 0 244 0 c 2,0,-1
EndSplineSet
Substitution2: "Single Substitution lookup 21 subtable" uni0C28_uni0C4D.abvs
EndChar

StartChar: uni0C2A
Encoding: 3114 3114 148
Width: 360
GlyphClass: 2
Flags: W
LayerCount: 2
Back
Fore
SplineSet
191 0 m 2,0,1
 183 0 183 0 171.5 4 c 128,-1,2
 160 8 160 8 152 16 c 1,3,4
 146 10 146 10 135 5 c 128,-1,5
 124 0 124 0 116 0 c 2,6,-1
 63 0 l 2,7,8
 39 0 39 0 19.5 18.5 c 128,-1,9
 0 37 0 37 0 66 c 2,10,-1
 0 164 l 2,11,12
 0 193 0 193 19.5 210.5 c 128,-1,13
 39 228 39 228 63 228 c 2,14,-1
 112 228 l 2,15,16
 136 228 136 228 155.5 210.5 c 128,-1,17
 175 193 175 193 175 164 c 2,18,-1
 175 66 l 2,19,20
 175 48 175 48 193 48 c 2,21,-1
 240 48 l 2,22,23
 246 48 246 48 251 52.5 c 128,-1,24
 256 57 256 57 256 66 c 2,25,-1
 256 263 l 2,26,27
 256 280 256 280 240 280 c 2,28,-1
 225 280 l 1,29,-1
 225 328 l 1,30,-1
 242 328 l 2,31,32
 265 328 265 328 284.5 309.5 c 128,-1,33
 304 291 304 291 304 262 c 2,34,-1
 304 66 l 2,35,36
 304 37 304 37 284.5 18.5 c 128,-1,37
 265 0 265 0 242 0 c 2,38,-1
 191 0 l 2,0,1
128 163 m 2,39,40
 128 181 128 181 110 181 c 2,41,-1
 65 181 l 2,42,43
 48 181 48 181 48 163 c 2,44,-1
 48 66 l 2,45,46
 48 57 48 57 53 52.5 c 128,-1,47
 58 48 58 48 65 48 c 2,48,-1
 110 48 l 2,49,50
 128 48 128 48 128 66 c 2,51,-1
 128 163 l 2,39,40
166 404 m 2,52,53
 154 404 154 404 154 390 c 2,54,-1
 154 341 l 2,55,56
 154 312 154 312 138.5 295.5 c 128,-1,57
 123 279 123 279 98 279 c 2,58,-1
 1 279 l 1,59,-1
 1 327 l 1,60,-1
 91 327 l 2,61,62
 106 327 106 327 106 341 c 2,63,-1
 106 388 l 2,64,65
 106 417 106 417 123 434.5 c 128,-1,66
 140 452 140 452 163 452 c 2,67,-1
 245 452 l 1,68,-1
 245 404 l 1,69,-1
 166 404 l 2,52,53
EndSplineSet
Substitution2: "Single Substitution lookup 21 subtable" uni0C2A_uni0C4D.abvs
EndChar

StartChar: uni0C2B
Encoding: 3115 3115 149
Width: 360
GlyphClass: 2
Flags: W
LayerCount: 2
Back
Fore
SplineSet
191 0 m 2,0,1
 183 0 183 0 171.5 4 c 128,-1,2
 160 8 160 8 152 16 c 1,3,4
 146 10 146 10 135 5 c 128,-1,5
 124 0 124 0 116 0 c 2,6,-1
 63 0 l 2,7,8
 39 0 39 0 19.5 18.5 c 128,-1,9
 0 37 0 37 0 66 c 2,10,-1
 0 164 l 2,11,12
 0 193 0 193 19.5 210.5 c 128,-1,13
 39 228 39 228 63 228 c 2,14,-1
 112 228 l 2,15,16
 136 228 136 228 155.5 210.5 c 128,-1,17
 175 193 175 193 175 164 c 2,18,-1
 175 66 l 2,19,20
 175 48 175 48 193 48 c 2,21,-1
 240 48 l 2,22,23
 246 48 246 48 251 52.5 c 128,-1,24
 256 57 256 57 256 66 c 2,25,-1
 256 263 l 2,26,27
 256 280 256 280 240 280 c 2,28,-1
 225 280 l 1,29,-1
 225 328 l 1,30,-1
 242 328 l 2,31,32
 265 328 265 328 284.5 309.5 c 128,-1,33
 304 291 304 291 304 262 c 2,34,-1
 304 66 l 2,35,36
 304 37 304 37 284.5 18.5 c 128,-1,37
 265 0 265 0 242 0 c 2,38,-1
 191 0 l 2,0,1
128 163 m 2,39,40
 128 181 128 181 110 181 c 2,41,-1
 65 181 l 2,42,43
 48 181 48 181 48 163 c 2,44,-1
 48 66 l 2,45,46
 48 57 48 57 53 52.5 c 128,-1,47
 58 48 58 48 65 48 c 2,48,-1
 110 48 l 2,49,50
 128 48 128 48 128 66 c 2,51,-1
 128 163 l 2,39,40
166 404 m 2,52,53
 154 404 154 404 154 390 c 2,54,-1
 154 341 l 2,55,56
 154 312 154 312 138.5 295.5 c 128,-1,57
 123 279 123 279 98 279 c 2,58,-1
 1 279 l 1,59,-1
 1 327 l 1,60,-1
 91 327 l 2,61,62
 106 327 106 327 106 341 c 2,63,-1
 106 388 l 2,64,65
 106 417 106 417 123 434.5 c 128,-1,66
 140 452 140 452 163 452 c 2,67,-1
 245 452 l 1,68,-1
 245 404 l 1,69,-1
 166 404 l 2,52,53
129 -83 m 1,70,-1
 129 -23 l 2,71,72
 131 -23 131 -23 138 -21 c 128,-1,73
 145 -19 145 -19 152 -7 c 1,74,75
 154 -15 154 -15 160.5 -19 c 128,-1,76
 167 -23 167 -23 170 -24 c 2,77,-1
 170 -83 l 1,78,-1
 129 -83 l 1,70,-1
EndSplineSet
Substitution2: "Single Substitution lookup 21 subtable" uni0C2B_uni0C4D.abvs
EndChar

StartChar: uni0C2C
Encoding: 3116 3116 150
Width: 350
GlyphClass: 2
Flags: W
LayerCount: 2
Back
Fore
SplineSet
179 0 m 2,0,1
 171 0 171 0 161 4.5 c 128,-1,2
 151 9 151 9 145 14 c 1,3,4
 137 9 137 9 126.5 4.5 c 128,-1,5
 116 0 116 0 105 0 c 2,6,-1
 63 0 l 2,7,8
 39 0 39 0 19.5 18.5 c 128,-1,9
 0 37 0 37 0 66 c 2,10,-1
 0 142 l 2,11,12
 0 171 0 171 19.5 189.5 c 128,-1,13
 39 208 39 208 63 208 c 2,14,-1
 102 208 l 2,15,16
 120 208 120 208 120 225 c 2,17,-1
 120 263 l 2,18,19
 120 280 120 280 102 280 c 2,20,-1
 65 280 l 2,21,22
 48 280 48 280 48 263 c 2,23,-1
 48 230 l 1,24,-1
 0 230 l 1,25,-1
 0 262 l 2,26,27
 0 291 0 291 19.5 309.5 c 128,-1,28
 39 328 39 328 63 328 c 2,29,-1
 104 328 l 2,30,31
 128 328 128 328 147.5 309.5 c 128,-1,32
 167 291 167 291 167 262 c 2,33,-1
 167 226 l 2,34,35
 167 197 167 197 147.5 178.5 c 128,-1,36
 128 160 128 160 104 160 c 2,37,-1
 65 160 l 2,38,39
 58 160 58 160 53 155.5 c 128,-1,40
 48 151 48 151 48 142 c 2,41,-1
 48 66 l 2,42,43
 48 57 48 57 53 52.5 c 128,-1,44
 58 48 58 48 65 48 c 2,45,-1
 102 48 l 2,46,47
 120 48 120 48 120 66 c 2,48,-1
 120 108 l 1,49,-1
 167 108 l 1,50,-1
 167 66 l 2,51,52
 167 48 167 48 185 48 c 2,53,-1
 225 48 l 2,54,55
 232 48 232 48 237 52.5 c 128,-1,56
 242 57 242 57 242 66 c 2,57,-1
 242 263 l 2,58,59
 242 280 242 280 225 280 c 2,60,-1
 211 280 l 1,61,-1
 211 328 l 1,62,-1
 227 328 l 2,63,64
 250 328 250 328 270 309.5 c 128,-1,65
 290 291 290 291 290 262 c 2,66,-1
 290 66 l 2,67,68
 290 37 290 37 270 18.5 c 128,-1,69
 250 0 250 0 227 0 c 2,70,-1
 179 0 l 2,0,1
EndSplineSet
Substitution2: "Single Substitution lookup 21 subtable" uni0C2C_uni0C4D.abvs
EndChar

StartChar: uni0C2D
Encoding: 3117 3117 151
Width: 350
GlyphClass: 2
Flags: W
LayerCount: 2
Back
Fore
SplineSet
162 -27 m 2,0,-1
 162 -86 l 1,1,-1
 121 -86 l 1,2,-1
 121 -26 l 2,3,4
 123 -26 123 -26 130 -24 c 128,-1,5
 137 -22 137 -22 144 -10 c 1,6,7
 146 -18 146 -18 152.5 -22 c 128,-1,8
 159 -26 159 -26 162 -27 c 2,0,-1
303 452 m 1,9,-1
 303 406 l 1,10,-1
 264 406 l 2,11,12
 250 406 250 406 250 391 c 2,13,-1
 251 323 l 1,14,15
 267 315 267 315 278.5 299.5 c 128,-1,16
 290 284 290 284 290 262 c 2,17,-1
 290 66 l 2,18,19
 290 37 290 37 270 18.5 c 128,-1,20
 250 0 250 0 227 0 c 2,21,-1
 179 0 l 2,22,23
 171 0 171 0 161 4.5 c 128,-1,24
 151 9 151 9 145 14 c 1,25,26
 137 9 137 9 126.5 4.5 c 128,-1,27
 116 0 116 0 105 0 c 2,28,-1
 63 0 l 2,29,30
 39 0 39 0 19.5 18.5 c 128,-1,31
 0 37 0 37 0 66 c 2,32,-1
 0 122 l 2,33,34
 0 151 0 151 19.5 169.5 c 128,-1,35
 39 188 39 188 63 188 c 2,36,-1
 102 188 l 2,37,38
 120 188 120 188 120 205 c 2,39,-1
 120 233 l 2,40,41
 120 250 120 250 102 250 c 2,42,-1
 65 250 l 2,43,44
 48 250 48 250 48 233 c 2,45,-1
 48 207 l 1,46,-1
 0 207 l 1,47,-1
 0 232 l 2,48,49
 0 261 0 261 19.5 279.5 c 128,-1,50
 39 298 39 298 63 298 c 2,51,-1
 104 298 l 2,52,53
 128 298 128 298 147.5 279.5 c 128,-1,54
 167 261 167 261 167 232 c 2,55,-1
 167 206 l 2,56,57
 167 177 167 177 147.5 158.5 c 128,-1,58
 128 140 128 140 104 140 c 2,59,-1
 65 140 l 2,60,61
 58 140 58 140 53 135.5 c 128,-1,62
 48 131 48 131 48 122 c 2,63,-1
 48 66 l 2,64,65
 48 57 48 57 53 52.5 c 128,-1,66
 58 48 58 48 65 48 c 2,67,-1
 102 48 l 2,68,69
 120 48 120 48 120 66 c 2,70,-1
 120 108 l 1,71,-1
 167 108 l 1,72,-1
 167 66 l 2,73,74
 167 48 167 48 185 48 c 2,75,-1
 225 48 l 2,76,77
 232 48 232 48 237 52.5 c 128,-1,78
 242 57 242 57 242 66 c 2,79,-1
 242 263 l 2,80,81
 242 280 242 280 225 280 c 2,82,-1
 211 280 l 1,83,-1
 196 280 l 2,84,85
 194 280 194 280 183 281 c 128,-1,86
 172 282 172 282 159 287.5 c 128,-1,87
 146 293 146 293 135.5 303.5 c 128,-1,88
 125 314 125 314 125 332 c 2,89,-1
 125 360 l 1,90,-1
 172 360 l 1,91,-1
 172 346 l 2,92,93
 172 335 172 335 175 332.5 c 128,-1,94
 178 330 178 330 187 328 c 2,95,-1
 202 328 l 1,96,-1
 202 395 l 2,97,98
 202 421 202 421 219.5 436.5 c 128,-1,99
 237 452 237 452 258 452 c 2,100,-1
 303 452 l 1,9,-1
EndSplineSet
Substitution2: "Single Substitution lookup 21 subtable" uni0C2D_uni0C4D.abvs
EndChar

StartChar: uni0C2E
Encoding: 3118 3118 152
Width: 484
GlyphClass: 2
Flags: W
LayerCount: 2
Back
Fore
SplineSet
117 67 m 2,0,-1
 117 165 l 2,1,2
 117 173 117 173 112 177.5 c 128,-1,3
 107 182 107 182 100 182 c 2,4,-1
 63 182 l 2,5,6
 47 182 47 182 47 165 c 2,7,-1
 47 67 l 2,8,9
 47 57 47 57 52 52.5 c 128,-1,10
 57 48 57 48 63 48 c 2,11,-1
 100 48 l 2,12,13
 107 48 107 48 112 52.5 c 128,-1,14
 117 57 117 57 117 67 c 2,0,-1
224 0 m 2,15,-1
 182 0 l 2,16,17
 157 0 157 0 141 16 c 1,18,19
 135 10 135 10 124.5 5 c 128,-1,20
 114 0 114 0 106 0 c 2,21,-1
 61 0 l 2,22,23
 38 0 38 0 18.5 19 c 128,-1,24
 -1 38 -1 38 -1 67 c 2,25,-1
 -1 164 l 2,26,27
 -1 192 -1 192 18.5 211 c 128,-1,28
 38 230 38 230 61 230 c 2,29,-1
 102 230 l 2,30,31
 125 230 125 230 144.5 211 c 128,-1,32
 164 192 164 192 164 164 c 2,33,-1
 164 67 l 2,34,35
 164 48 164 48 184 48 c 2,36,-1
 222 48 l 2,37,38
 228 48 228 48 233 52.5 c 128,-1,39
 238 57 238 57 238 67 c 2,40,-1
 238 264 l 2,41,42
 238 282 238 282 222 282 c 2,43,-1
 0 282 l 1,44,-1
 0 330 l 1,45,-1
 77 330 l 1,46,-1
 77 385 l 2,47,48
 77 414 77 414 96.5 433 c 128,-1,49
 116 452 116 452 140 452 c 2,50,-1
 256 452 l 1,51,-1
 256 404 l 1,52,-1
 142 404 l 2,53,54
 125 404 125 404 125 385 c 2,55,-1
 125 330 l 1,56,-1
 224 330 l 2,57,58
 247 330 247 330 266.5 311 c 128,-1,59
 286 292 286 292 286 263 c 2,60,-1
 286 83 l 2,61,62
 286 62 286 62 293.5 55 c 128,-1,63
 301 48 301 48 311 48 c 2,64,-1
 367 48 l 2,65,66
 384 48 384 48 384 66 c 2,67,-1
 384 263 l 2,68,69
 384 280 384 280 367 280 c 2,70,-1
 352 280 l 1,71,-1
 352 328 l 1,72,-1
 369 328 l 2,73,74
 393 328 393 328 412 309.5 c 128,-1,75
 431 291 431 291 431 262 c 2,76,-1
 431 66 l 2,77,78
 431 37 431 37 412 18.5 c 128,-1,79
 393 0 393 0 369 0 c 2,80,-1
 309 0 l 2,81,82
 298 0 298 0 286 5 c 128,-1,83
 274 10 274 10 266 18 c 1,84,85
 248 0 248 0 224 0 c 2,15,-1
EndSplineSet
Substitution2: "Single Substitution lookup 21 subtable" uni0C2E_uni0C4D.abvs
EndChar

StartChar: uni0C2F
Encoding: 3119 3119 153
Width: 623
GlyphClass: 2
Flags: W
LayerCount: 2
Back
Fore
SplineSet
188 66 m 2,0,-1
 188 263 l 2,1,2
 188 280 188 280 172 280 c 2,3,-1
 66 280 l 2,4,5
 48 280 48 280 48 263 c 2,6,-1
 48 66 l 2,7,8
 48 48 48 48 66 48 c 2,9,-1
 172 48 l 2,10,11
 178 48 178 48 183 52.5 c 128,-1,12
 188 57 188 57 188 66 c 2,0,-1
359 0 m 2,13,-1
 254 0 l 2,14,15
 239 0 239 0 227.5 8 c 128,-1,16
 216 16 216 16 212 25 c 1,17,18
 207 16 207 16 197.5 8 c 128,-1,19
 188 0 188 0 173 0 c 2,20,-1
 63 0 l 2,21,22
 39 0 39 0 19.5 18.5 c 128,-1,23
 0 37 0 37 0 66 c 2,24,-1
 0 263 l 2,25,26
 0 291 0 291 19.5 309.5 c 128,-1,27
 39 328 39 328 63 328 c 2,28,-1
 174 328 l 2,29,30
 197 328 197 328 217 309.5 c 128,-1,31
 237 291 237 291 237 263 c 2,32,-1
 237 66 l 2,33,34
 237 57 237 57 242 52.5 c 128,-1,35
 247 48 247 48 253 48 c 2,36,-1
 355 48 l 2,37,38
 372 48 372 48 372 66 c 2,39,-1
 372 263 l 2,40,41
 372 280 372 280 355 280 c 2,42,-1
 271 280 l 1,43,-1
 271 328 l 1,44,-1
 288 328 l 1,45,-1
 288 396 l 2,46,47
 288 421 288 421 305 436.5 c 128,-1,48
 322 452 322 452 342 452 c 2,49,-1
 419 452 l 1,50,-1
 419 405 l 1,51,-1
 349 405 l 2,52,53
 344 405 344 405 339.5 401.5 c 128,-1,54
 335 398 335 398 335 391 c 2,55,-1
 335 328 l 1,56,-1
 357 328 l 2,57,58
 381 328 381 328 400.5 309.5 c 128,-1,59
 420 291 420 291 420 263 c 2,60,-1
 420 75 l 2,61,62
 420 58 420 58 428 53 c 128,-1,63
 436 48 436 48 446 48 c 2,64,-1
 502 48 l 2,65,66
 509 48 509 48 514 52.5 c 128,-1,67
 519 57 519 57 519 66 c 2,68,-1
 519 263 l 2,69,70
 519 280 519 280 502 280 c 2,71,-1
 487 280 l 1,72,-1
 487 328 l 1,73,-1
 504 328 l 2,74,75
 527 328 527 328 546.5 309.5 c 128,-1,76
 566 291 566 291 566 262 c 2,77,-1
 566 66 l 2,78,79
 566 37 566 37 546.5 18.5 c 128,-1,80
 527 0 527 0 504 0 c 2,81,-1
 444 0 l 2,82,83
 433 0 433 0 420.5 5 c 128,-1,84
 408 10 408 10 400 19 c 1,85,86
 389 9 389 9 377.5 4.5 c 128,-1,87
 366 0 366 0 359 0 c 2,13,-1
EndSplineSet
Substitution2: "Single Substitution lookup 21 subtable" uni0C2F_uni0C4D.abvs
EndChar

StartChar: uni0C30
Encoding: 3120 3120 154
Width: 312
GlyphClass: 2
Flags: W
LayerCount: 2
Back
Fore
SplineSet
201 66 m 2,0,-1
 201 263 l 2,1,2
 201 272 201 272 196 276 c 128,-1,3
 191 280 191 280 185 280 c 2,4,-1
 65 280 l 2,5,6
 48 280 48 280 48 263 c 2,7,-1
 48 66 l 2,8,9
 48 48 48 48 65 48 c 2,10,-1
 185 48 l 2,11,12
 191 48 191 48 196 52.5 c 128,-1,13
 201 57 201 57 201 66 c 2,0,-1
189 0 m 2,14,-1
 62 0 l 2,15,16
 39 0 39 0 19.5 18.5 c 128,-1,17
 0 37 0 37 0 66 c 2,18,-1
 0 263 l 2,19,20
 0 280 0 280 7.5 293.5 c 128,-1,21
 15 307 15 307 27 316 c 1,22,23
 18 325 18 325 18 342 c 2,24,-1
 18 380 l 1,25,-1
 65 380 l 1,26,-1
 65 346 l 2,27,28
 65 333 65 333 80 330 c 2,29,-1
 90 328 l 1,30,-1
 125 328 l 1,31,-1
 125 394 l 2,32,33
 125 420 125 420 142 436 c 128,-1,34
 159 452 159 452 181 452 c 2,35,-1
 249 452 l 1,36,-1
 249 404 l 1,37,-1
 187 404 l 2,38,39
 181 404 181 404 176.5 400.5 c 128,-1,40
 172 397 172 397 172 389 c 2,41,-1
 172 328 l 1,42,-1
 187 328 l 2,43,44
 210 328 210 328 229.5 309.5 c 128,-1,45
 249 291 249 291 249 263 c 2,46,-1
 249 66 l 2,47,48
 249 46 249 46 241.5 33.5 c 128,-1,49
 234 21 234 21 224.5 13.5 c 128,-1,50
 215 6 215 6 205 3 c 128,-1,51
 195 0 195 0 189 0 c 2,14,-1
EndSplineSet
Substitution2: "Single Substitution lookup 21 subtable" uni0C30_uni0C4D.abvs
EndChar

StartChar: uni0C31
Encoding: 3121 3121 155
Width: 370
GlyphClass: 2
Flags: W
LayerCount: 2
Back
Fore
SplineSet
187 0 m 2,0,1
 166 0 166 0 155 11 c 1,2,3
 150 6 150 6 141.5 3 c 128,-1,4
 133 0 133 0 127 0 c 2,5,-1
 63 0 l 2,6,7
 39 0 39 0 19.5 18.5 c 128,-1,8
 0 37 0 37 0 66 c 2,9,-1
 0 262 l 2,10,11
 0 291 0 291 19.5 309.5 c 128,-1,12
 39 328 39 328 63 328 c 2,13,-1
 89 328 l 2,14,15
 113 328 113 328 132.5 309.5 c 128,-1,16
 152 291 152 291 152 262 c 2,17,-1
 152 226 l 2,18,19
 152 197 152 197 132.5 178.5 c 128,-1,20
 113 160 113 160 89 160 c 2,21,-1
 48 160 l 1,22,-1
 48 66 l 2,23,24
 48 57 48 57 53 52.5 c 128,-1,25
 58 48 58 48 65 48 c 2,26,-1
 112 48 l 2,27,28
 130 48 130 48 130 66 c 2,29,-1
 130 84 l 1,30,-1
 178 84 l 1,31,-1
 178 66 l 2,32,33
 178 57 178 57 183 52.5 c 128,-1,34
 188 48 188 48 195 48 c 2,35,-1
 255 48 l 2,36,37
 262 48 262 48 267 52.5 c 128,-1,38
 272 57 272 57 272 66 c 2,39,-1
 272 263 l 2,40,41
 272 280 272 280 255 280 c 2,42,-1
 234 280 l 2,43,44
 218 280 218 280 218 263 c 2,45,-1
 218 155 l 1,46,-1
 234 155 l 1,47,-1
 234 106 l 1,48,-1
 64 106 l 1,49,-1
 64 154 l 1,50,-1
 170 154 l 1,51,-1
 170 262 l 2,52,53
 170 291 170 291 189.5 309.5 c 128,-1,54
 209 328 209 328 232 328 c 2,55,-1
 257 328 l 2,56,57
 281 328 281 328 300.5 309.5 c 128,-1,58
 320 291 320 291 320 262 c 2,59,-1
 320 66 l 2,60,61
 320 37 320 37 300.5 18.5 c 128,-1,62
 281 0 281 0 257 0 c 2,63,-1
 187 0 l 2,0,1
104 263 m 2,64,65
 104 280 104 280 87 280 c 2,66,-1
 65 280 l 2,67,68
 48 280 48 280 48 263 c 2,69,-1
 48 208 l 1,70,-1
 87 208 l 2,71,72
 104 208 104 208 104 226 c 2,73,-1
 104 263 l 2,64,65
EndSplineSet
Substitution2: "Single Substitution lookup 21 subtable" uni0C31_uni0C4D.abvs
EndChar

StartChar: uni0C32
Encoding: 3122 3122 156
Width: 349
GlyphClass: 2
Flags: W
LayerCount: 2
Back
Fore
SplineSet
63 0 m 2,0,1
 39 0 39 0 19.5 18.5 c 128,-1,2
 0 37 0 37 0 66 c 2,3,-1
 0 262 l 2,4,5
 0 291 0 291 19.5 309.5 c 128,-1,6
 39 328 39 328 63 328 c 2,7,-1
 106 328 l 2,8,9
 129 328 129 328 149 309.5 c 128,-1,10
 169 291 169 291 169 262 c 2,11,-1
 169 204 l 2,12,13
 169 175 169 175 149 156.5 c 128,-1,14
 129 138 129 138 106 138 c 2,15,-1
 48 138 l 1,16,-1
 48 66 l 2,17,18
 48 57 48 57 53 52.5 c 128,-1,19
 58 48 58 48 65 48 c 2,20,-1
 226 48 l 2,21,22
 232 48 232 48 237 52.5 c 128,-1,23
 242 57 242 57 242 66 c 2,24,-1
 242 263 l 2,25,26
 242 280 242 280 226 280 c 2,27,-1
 216 280 l 1,28,-1
 216 328 l 1,29,-1
 228 328 l 2,30,31
 251 328 251 328 270.5 309.5 c 128,-1,32
 290 291 290 291 290 262 c 2,33,-1
 290 66 l 2,34,35
 290 37 290 37 270.5 18.5 c 128,-1,36
 251 0 251 0 228 0 c 2,37,-1
 63 0 l 2,0,1
121 263 m 2,38,39
 121 272 121 272 116 276 c 128,-1,40
 111 280 111 280 104 280 c 2,41,-1
 65 280 l 2,42,43
 48 280 48 280 48 263 c 2,44,-1
 48 185 l 1,45,-1
 104 185 l 2,46,47
 111 185 111 185 116 190 c 128,-1,48
 121 195 121 195 121 204 c 2,49,-1
 121 263 l 2,38,39
EndSplineSet
Substitution2: "Single Substitution lookup 21 subtable" uni0C32_uni0C4D.abvs
EndChar

StartChar: uni0C33
Encoding: 3123 3123 157
Width: 358
GlyphClass: 2
Flags: W
LayerCount: 2
Back
Fore
SplineSet
210 69 m 2,0,-1
 210 99 l 2,1,2
 210 112 210 112 204.5 116.5 c 128,-1,3
 199 121 199 121 191 121 c 2,4,-1
 116 121 l 2,5,6
 107 121 107 121 102 118 c 128,-1,7
 97 115 97 115 97 102 c 2,8,-1
 97 66 l 2,9,10
 97 55 97 55 102 51.5 c 128,-1,11
 107 48 107 48 115 48 c 2,12,-1
 192 48 l 2,13,14
 210 48 210 48 210 69 c 2,0,-1
102 250 m 2,15,-1
 102 272 l 2,16,17
 102 280 102 280 91 280 c 2,18,-1
 60 280 l 2,19,20
 52 280 52 280 50 277.5 c 128,-1,21
 48 275 48 275 48 269 c 2,22,-1
 48 252 l 2,23,24
 48 248 48 248 50.5 244.5 c 128,-1,25
 53 241 53 241 61 241 c 2,26,-1
 89 241 l 2,27,28
 102 241 102 241 102 250 c 2,15,-1
255 125 m 1,29,30
 258 119 258 119 258 111 c 2,31,-1
 258 65 l 2,32,33
 258 36 258 36 239 18 c 128,-1,34
 220 0 220 0 185 0 c 2,35,-1
 111 0 l 2,36,37
 85 0 85 0 67.5 18 c 128,-1,38
 50 36 50 36 50 65 c 2,39,-1
 50 102 l 2,40,41
 50 110 50 110 52 120 c 1,42,43
 46 121 46 121 37 126.5 c 128,-1,44
 28 132 28 132 20 142 c 128,-1,45
 12 152 12 152 6 166.5 c 128,-1,46
 0 181 0 181 0 200 c 2,47,-1
 0 262 l 2,48,49
 0 291 0 291 19 309.5 c 128,-1,50
 38 328 38 328 61 328 c 2,51,-1
 88 328 l 2,52,53
 104 328 104 328 116 322 c 128,-1,54
 128 316 128 316 135 307.5 c 128,-1,55
 142 299 142 299 145.5 289 c 128,-1,56
 149 279 149 279 149 271 c 2,57,-1
 149 244 l 2,58,59
 149 229 149 229 142.5 219 c 128,-1,60
 136 209 136 209 127 202.5 c 128,-1,61
 118 196 118 196 108 193 c 128,-1,62
 98 190 98 190 91 190 c 2,63,-1
 50 190 l 1,64,65
 50 175 50 175 55 171.5 c 128,-1,66
 60 168 60 168 67 168 c 2,67,-1
 230 168 l 2,68,69
 237 168 237 168 243.5 172 c 128,-1,70
 250 176 250 176 250 190 c 2,71,-1
 250 263 l 2,72,73
 250 280 250 280 233 280 c 2,74,-1
 167 280 l 1,75,-1
 167 328 l 1,76,-1
 182 328 l 1,77,-1
 182 384 l 2,78,79
 182 409 182 409 199 424.5 c 128,-1,80
 216 440 216 440 236 440 c 2,81,-1
 299 440 l 1,82,-1
 299 394 l 1,83,-1
 243 394 l 2,84,85
 238 394 238 394 233.5 390.5 c 128,-1,86
 229 387 229 387 229 380 c 2,87,-1
 229 328 l 1,88,-1
 235 328 l 2,89,90
 260 328 260 328 279 310 c 128,-1,91
 298 292 298 292 298 263 c 2,92,-1
 298 185 l 2,93,94
 298 173 298 173 293.5 162.5 c 128,-1,95
 289 152 289 152 282 144.5 c 128,-1,96
 275 137 275 137 268 132 c 128,-1,97
 261 127 261 127 255 125 c 1,29,30
EndSplineSet
Substitution2: "Single Substitution lookup 21 subtable" uni0C33_uni0C4D.abvs
EndChar

StartChar: uni0C34
Encoding: 3124 3124 158
Width: 382
GlyphClass: 2
Flags: W
LayerCount: 2
Back
Fore
SplineSet
330 67 m 2,0,1
 330 41 330 41 313 20.5 c 128,-1,2
 296 0 296 0 267 0 c 2,3,-1
 197 0 l 2,4,5
 176 0 176 0 165 11 c 1,6,7
 160 6 160 6 151.5 3 c 128,-1,8
 143 0 143 0 137 0 c 2,9,-1
 63 0 l 2,10,11
 39 0 39 0 19.5 18.5 c 128,-1,12
 0 37 0 37 0 66 c 2,13,-1
 0 262 l 2,14,15
 0 291 0 291 19.5 309.5 c 128,-1,16
 39 328 39 328 63 328 c 2,17,-1
 89 328 l 2,18,19
 113 328 113 328 132.5 309.5 c 128,-1,20
 152 291 152 291 152 262 c 2,21,-1
 152 226 l 2,22,23
 152 197 152 197 132.5 178.5 c 128,-1,24
 113 160 113 160 89 160 c 2,25,-1
 48 160 l 1,26,-1
 48 66 l 2,27,28
 48 57 48 57 53 52.5 c 128,-1,29
 58 48 58 48 65 48 c 2,30,-1
 122 48 l 2,31,32
 140 48 140 48 140 66 c 2,33,-1
 140 104 l 1,34,-1
 188 104 l 1,35,-1
 188 66 l 2,36,37
 188 57 188 57 193 52.5 c 128,-1,38
 198 48 198 48 205 48 c 2,39,-1
 265 48 l 2,40,41
 272 48 272 48 277 54.5 c 128,-1,42
 282 61 282 61 282 66 c 2,43,-1
 282 161 l 1,44,-1
 241 161 l 2,45,46
 217 161 217 161 197.5 179.5 c 128,-1,47
 178 198 178 198 178 227 c 2,48,-1
 178 262 l 2,49,50
 178 291 178 291 197.5 310 c 128,-1,51
 217 329 217 329 241 329 c 2,52,-1
 266 329 l 2,53,54
 291 329 291 329 310.5 310 c 128,-1,55
 330 291 330 291 330 262 c 2,56,-1
 330 67 l 2,0,1
282 209 m 1,57,-1
 282 263 l 2,58,59
 282 281 282 281 264 281 c 2,60,-1
 243 281 l 2,61,62
 225 281 225 281 225 263 c 2,63,-1
 225 226 l 2,64,65
 225 209 225 209 243 209 c 2,66,-1
 282 209 l 1,57,-1
104 263 m 2,67,68
 104 280 104 280 87 280 c 2,69,-1
 65 280 l 2,70,71
 48 280 48 280 48 263 c 2,72,-1
 48 208 l 1,73,-1
 87 208 l 2,74,75
 104 208 104 208 104 226 c 2,76,-1
 104 263 l 2,67,68
EndSplineSet
EndChar

StartChar: uni0C35
Encoding: 3125 3125 159
Width: 346
GlyphClass: 2
Flags: W
LayerCount: 2
Back
Fore
SplineSet
182 0 m 2,0,1
 157 0 157 0 141 16 c 1,2,3
 135 10 135 10 124.5 5 c 128,-1,4
 114 0 114 0 106 0 c 2,5,-1
 61 0 l 2,6,7
 38 0 38 0 18.5 19 c 128,-1,8
 -1 38 -1 38 -1 67 c 2,9,-1
 -1 164 l 2,10,11
 -1 192 -1 192 18.5 211 c 128,-1,12
 38 230 38 230 61 230 c 2,13,-1
 102 230 l 2,14,15
 125 230 125 230 144.5 211 c 128,-1,16
 164 192 164 192 164 164 c 2,17,-1
 164 67 l 2,18,19
 164 48 164 48 184 48 c 2,20,-1
 222 48 l 2,21,22
 228 48 228 48 233 52.5 c 128,-1,23
 238 57 238 57 238 67 c 2,24,-1
 238 264 l 2,25,26
 238 282 238 282 222 282 c 2,27,-1
 0 282 l 1,28,-1
 0 330 l 1,29,-1
 77 330 l 1,30,-1
 77 385 l 2,31,32
 77 414 77 414 96.5 433 c 128,-1,33
 116 452 116 452 140 452 c 2,34,-1
 256 452 l 1,35,-1
 256 404 l 1,36,-1
 142 404 l 2,37,38
 125 404 125 404 125 385 c 2,39,-1
 125 330 l 1,40,-1
 224 330 l 2,41,42
 247 330 247 330 266.5 311 c 128,-1,43
 286 292 286 292 286 263 c 2,44,-1
 286 67 l 2,45,46
 286 38 286 38 266.5 19 c 128,-1,47
 247 0 247 0 224 0 c 2,48,-1
 182 0 l 2,0,1
117 165 m 2,49,50
 117 173 117 173 112 177.5 c 128,-1,51
 107 182 107 182 100 182 c 2,52,-1
 63 182 l 2,53,54
 47 182 47 182 47 165 c 2,55,-1
 47 67 l 2,56,57
 47 57 47 57 52 52.5 c 128,-1,58
 57 48 57 48 63 48 c 2,59,-1
 100 48 l 2,60,61
 107 48 107 48 112 52.5 c 128,-1,62
 117 57 117 57 117 67 c 2,63,-1
 117 165 l 2,49,50
EndSplineSet
Substitution2: "Single Substitution lookup 21 subtable" uni0C35_uni0C4D.abvs
EndChar

StartChar: uni0C36
Encoding: 3126 3126 160
Width: 348
GlyphClass: 2
Flags: W
LayerCount: 2
Back
Fore
SplineSet
241 62 m 2,0,-1
 241 164 l 2,1,2
 241 179 241 179 228 179 c 2,3,-1
 163 179 l 2,4,5
 147 179 147 179 147 164 c 2,6,-1
 147 62 l 2,7,8
 147 48 147 48 163 48 c 2,9,-1
 228 48 l 2,10,11
 241 48 241 48 241 62 c 2,0,-1
233 0 m 2,12,-1
 156 0 l 2,13,14
 135 0 135 0 117.5 17 c 128,-1,15
 100 34 100 34 100 60 c 2,16,-1
 100 161 l 2,17,18
 100 173 100 173 103 179 c 1,19,-1
 61 179 l 2,20,21
 48 179 48 179 48 164 c 2,22,-1
 48 38 l 1,23,-1
 0 38 l 1,24,-1
 0 169 l 2,25,26
 0 194 0 194 17.5 210 c 128,-1,27
 35 226 35 226 55 226 c 2,28,-1
 227 226 l 2,29,30
 235 226 235 226 238 231.5 c 128,-1,31
 241 237 241 237 241 243 c 2,32,-1
 241 266 l 2,33,34
 241 280 241 280 228 280 c 2,35,-1
 80 280 l 1,36,-1
 80 328 l 1,37,-1
 117 328 l 1,38,-1
 117 383 l 2,39,40
 117 408 117 408 134 423.5 c 128,-1,41
 151 439 151 439 171 439 c 2,42,-1
 292 439 l 1,43,-1
 292 393 l 1,44,-1
 178 393 l 2,45,46
 173 393 173 393 168.5 389.5 c 128,-1,47
 164 386 164 386 164 379 c 2,48,-1
 164 328 l 1,49,-1
 233 328 l 2,50,51
 254 328 254 328 271.5 311.5 c 128,-1,52
 289 295 289 295 289 269 c 2,53,-1
 289 236 l 2,54,55
 289 227 289 227 285 219.5 c 128,-1,56
 281 212 281 212 276 205 c 1,57,58
 289 192 289 192 289 169 c 2,59,-1
 289 60 l 2,60,61
 289 34 289 34 271.5 17 c 128,-1,62
 254 0 254 0 233 0 c 2,12,-1
EndSplineSet
Substitution2: "Single Substitution lookup 21 subtable" uni0C36_uni0C4D.abvs
EndChar

StartChar: uni0C37
Encoding: 3127 3127 161
Width: 353
GlyphClass: 2
Flags: W
LayerCount: 2
Back
Fore
SplineSet
166 404 m 2,0,1
 154 404 154 404 154 390 c 2,2,-1
 154 341 l 2,3,4
 154 312 154 312 138.5 295.5 c 128,-1,5
 123 279 123 279 98 279 c 2,6,-1
 1 279 l 1,7,-1
 1 327 l 1,8,-1
 91 327 l 2,9,10
 106 327 106 327 106 341 c 2,11,-1
 106 388 l 2,12,13
 106 417 106 417 123 434.5 c 128,-1,14
 140 452 140 452 163 452 c 2,15,-1
 245 452 l 1,16,-1
 245 404 l 1,17,-1
 166 404 l 2,0,1
256 -3 m 1,18,-1
 181 -3 l 2,19,20
 172 -3 172 -3 161 1 c 128,-1,21
 150 5 150 5 142 13 c 1,22,23
 136 7 136 7 125 2 c 128,-1,24
 114 -3 114 -3 106 -3 c 2,25,-1
 62 -3 l 2,26,27
 39 -3 39 -3 19.5 16 c 128,-1,28
 0 35 0 35 0 64 c 2,29,-1
 0 162 l 2,30,31
 0 191 0 191 19.5 208.5 c 128,-1,32
 39 226 39 226 62 226 c 2,33,-1
 102 226 l 2,34,35
 126 226 126 226 145.5 208.5 c 128,-1,36
 165 191 165 191 165 162 c 2,37,-1
 165 64 l 2,38,39
 165 54 165 54 170 49.5 c 128,-1,40
 175 45 175 45 182 45 c 2,41,-1
 239 45 l 2,42,43
 256 45 256 45 256 64 c 2,44,-1
 256 262 l 2,45,46
 256 279 256 279 239 279 c 2,47,-1
 217 279 l 1,48,-1
 217 327 l 1,49,-1
 241 327 l 2,50,51
 265 327 265 327 284.5 308.5 c 128,-1,52
 304 290 304 290 304 262 c 0,53,54
 304 232 304 232 304 190 c 128,-1,55
 304 148 304 148 303.5 109.5 c 128,-1,56
 303 71 303 71 303 42.5 c 128,-1,57
 303 14 303 14 303 10 c 0,58,59
 303 -1 303 -1 306.5 -7.5 c 128,-1,60
 310 -14 310 -14 322 -14 c 1,61,-1
 322 -55 l 1,62,-1
 298 -55 l 2,63,64
 281 -55 281 -55 268.5 -44.5 c 128,-1,65
 256 -34 256 -34 256 -20 c 2,66,-1
 256 -3 l 1,18,-1
117 162 m 2,67,68
 117 179 117 179 101 179 c 2,69,-1
 66 179 l 2,70,71
 48 179 48 179 48 162 c 2,72,-1
 48 64 l 2,73,74
 48 45 48 45 66 45 c 2,75,-1
 101 45 l 2,76,77
 107 45 107 45 112 49.5 c 128,-1,78
 117 54 117 54 117 64 c 2,79,-1
 117 162 l 2,67,68
EndSplineSet
Substitution2: "Single Substitution lookup 21 subtable" uni0C37_uni0C4D.abvs
EndChar

StartChar: uni0C38
Encoding: 3128 3128 162
Width: 359
GlyphClass: 2
Flags: W
LayerCount: 2
Back
Fore
SplineSet
166 404 m 2,0,1
 154 404 154 404 154 390 c 2,2,-1
 154 341 l 2,3,4
 154 312 154 312 138.5 295.5 c 128,-1,5
 123 279 123 279 98 279 c 2,6,-1
 1 279 l 1,7,-1
 1 327 l 1,8,-1
 91 327 l 2,9,10
 106 327 106 327 106 341 c 2,11,-1
 106 388 l 2,12,13
 106 417 106 417 123 434.5 c 128,-1,14
 140 452 140 452 163 452 c 2,15,-1
 245 452 l 1,16,-1
 245 404 l 1,17,-1
 166 404 l 2,0,1
179 -3 m 2,18,19
 155 -3 155 -3 135.5 16 c 128,-1,20
 116 35 116 35 116 64 c 2,21,-1
 116 151 l 2,22,23
 116 159 116 159 111 163 c 128,-1,24
 106 167 106 167 101 167 c 2,25,-1
 66 167 l 2,26,27
 48 167 48 167 48 151 c 2,28,-1
 48 -3 l 1,29,-1
 0 -3 l 1,30,-1
 0 152 l 2,31,32
 0 181 0 181 19 198.5 c 128,-1,33
 38 216 38 216 62 216 c 2,34,-1
 101 216 l 2,35,36
 124 216 124 216 144 198.5 c 128,-1,37
 164 181 164 181 164 152 c 2,38,-1
 164 64 l 2,39,40
 164 54 164 54 169 49.5 c 128,-1,41
 174 45 174 45 181 45 c 2,42,-1
 239 45 l 2,43,44
 245 45 245 45 250.5 50 c 128,-1,45
 256 55 256 55 256 64 c 2,46,-1
 256 262 l 2,47,48
 256 270 256 270 250.5 274.5 c 128,-1,49
 245 279 245 279 239 279 c 2,50,-1
 227 279 l 1,51,-1
 227 327 l 1,52,-1
 241 327 l 2,53,54
 267 327 267 327 285 308.5 c 128,-1,55
 303 290 303 290 303 262 c 2,56,-1
 303 64 l 2,57,58
 303 35 303 35 283.5 16 c 128,-1,59
 264 -3 264 -3 241 -3 c 2,60,-1
 179 -3 l 2,18,19
EndSplineSet
Substitution2: "Single Substitution lookup 21 subtable" uni0C38_uni0C4D.abvs
EndChar

StartChar: uni0C39
Encoding: 3129 3129 163
Width: 549
GlyphClass: 2
Flags: W
LayerCount: 2
Back
Fore
SplineSet
120 67 m 2,0,-1
 120 164 l 2,1,2
 120 182 120 182 102 182 c 2,3,-1
 66 182 l 2,4,5
 48 182 48 182 48 164 c 2,6,-1
 48 67 l 2,7,8
 48 48 48 48 66 48 c 2,9,-1
 102 48 l 2,10,11
 120 48 120 48 120 67 c 2,0,-1
448 67 m 2,12,-1
 448 180 l 1,13,-1
 409 180 l 2,14,15
 402 180 402 180 397 176 c 128,-1,16
 392 172 392 172 392 162 c 2,17,-1
 392 67 l 2,18,19
 392 58 392 58 397 53 c 128,-1,20
 402 48 402 48 409 48 c 2,21,-1
 430 48 l 2,22,23
 437 48 437 48 442.5 53 c 128,-1,24
 448 58 448 58 448 67 c 2,12,-1
432 -1 m 2,25,-1
 407 -1 l 2,26,27
 384 -1 384 -1 363.5 18 c 128,-1,28
 343 37 343 37 343 66 c 2,29,-1
 343 162 l 2,30,31
 343 190 343 190 363 209 c 128,-1,32
 383 228 383 228 407 228 c 2,33,-1
 448 228 l 1,34,-1
 448 265 l 2,35,36
 448 274 448 274 442.5 278.5 c 128,-1,37
 437 283 437 283 430 283 c 2,38,-1
 306 283 l 1,39,40
 309 274 309 274 309 264 c 2,41,-1
 309 67 l 2,42,43
 309 38 309 38 289 19 c 128,-1,44
 269 0 269 0 245 0 c 2,45,-1
 184 0 l 2,46,47
 175 0 175 0 164 4 c 128,-1,48
 153 8 153 8 145 16 c 1,49,50
 139 10 139 10 127.5 5 c 128,-1,51
 116 0 116 0 108 0 c 2,52,-1
 64 0 l 2,53,54
 39 0 39 0 19.5 19 c 128,-1,55
 0 38 0 38 0 67 c 2,56,-1
 0 165 l 2,57,58
 0 194 0 194 20 212 c 128,-1,59
 40 230 40 230 64 230 c 2,60,-1
 104 230 l 2,61,62
 128 230 128 230 148 212 c 128,-1,63
 168 194 168 194 168 165 c 2,64,-1
 168 67 l 2,65,66
 168 48 168 48 186 48 c 2,67,-1
 243 48 l 2,68,69
 250 48 250 48 255 52.5 c 128,-1,70
 260 57 260 57 260 67 c 2,71,-1
 260 265 l 2,72,73
 260 274 260 274 255 278.5 c 128,-1,74
 250 283 250 283 243 283 c 2,75,-1
 229 283 l 1,76,-1
 227 283 l 1,77,-1
 227 331 l 1,78,-1
 229 331 l 1,79,-1
 245 331 l 1,80,-1
 432 331 l 2,81,82
 456 331 456 331 476 312 c 128,-1,83
 496 293 496 293 496 264 c 2,84,-1
 496 66 l 2,85,86
 496 37 496 37 476 18 c 128,-1,87
 456 -1 456 -1 432 -1 c 2,25,-1
245 404 m 1,88,-1
 166 404 l 2,89,90
 154 404 154 404 154 390 c 2,91,-1
 154 341 l 2,92,93
 154 312 154 312 138.5 295.5 c 128,-1,94
 123 279 123 279 98 279 c 2,95,-1
 1 279 l 1,96,-1
 1 327 l 1,97,-1
 91 327 l 2,98,99
 106 327 106 327 106 341 c 2,100,-1
 106 388 l 2,101,102
 106 417 106 417 123 434.5 c 128,-1,103
 140 452 140 452 163 452 c 2,104,-1
 245 452 l 1,105,-1
 245 404 l 1,88,-1
EndSplineSet
Substitution2: "Single Substitution lookup 21 subtable" uni0C39_uni0C4D.abvs
EndChar

StartChar: uni0C3D
Encoding: 3133 3133 164
Width: 514
GlyphClass: 2
Flags: W
LayerCount: 2
Back
Fore
SplineSet
67 0 m 2,0,1
 42 0 42 0 22 18 c 128,-1,2
 2 36 2 36 2 65 c 2,3,-1
 2 98 l 1,4,-1
 2 107 l 2,5,6
 3 115 3 115 8 126 c 0,7,8
 14 137 14 137 26.5 146.5 c 128,-1,9
 39 156 39 156 61 159 c 2,10,-1
 197 177 l 2,11,12
 208 179 208 179 213 184 c 128,-1,13
 218 189 218 189 218 203 c 2,14,-1
 218 277 l 2,15,16
 218 295 218 295 198 295 c 2,17,-1
 183 295 l 1,18,-1
 183 260 l 2,19,20
 183 231 183 231 163.5 213 c 128,-1,21
 144 195 144 195 118 195 c 2,22,-1
 93 195 l 2,23,24
 68 195 68 195 48 213 c 128,-1,25
 28 231 28 231 28 260 c 2,26,-1
 28 277 l 2,27,28
 28 306 28 306 48 323.5 c 128,-1,29
 68 341 68 341 93 341 c 2,30,-1
 201 341 l 2,31,32
 226 341 226 341 246 323 c 128,-1,33
 266 305 266 305 266 276 c 2,34,-1
 266 198 l 2,35,36
 266 169 266 169 246.5 152.5 c 128,-1,37
 227 136 227 136 201 132 c 2,38,-1
 71 114 l 2,39,40
 58 112 58 112 53.5 108.5 c 128,-1,41
 49 105 49 105 49 98 c 2,42,-1
 49 65 l 2,43,44
 49 46 49 46 69 46 c 2,45,-1
 478 47 l 1,46,-1
 478 0 l 1,47,-1
 67 0 l 2,0,1
95 295 m 2,48,49
 75 295 75 295 75 277 c 2,50,-1
 75 260 l 2,51,52
 75 242 75 242 95 242 c 2,53,-1
 117 242 l 2,54,55
 125 242 125 242 131 246.5 c 128,-1,56
 137 251 137 251 137 260 c 2,57,-1
 137 295 l 1,58,-1
 95 295 l 2,48,49
EndSplineSet
EndChar

StartChar: uni0C3E
Encoding: 3134 3134 165
Width: 207
GlyphClass: 2
Flags: W
LayerCount: 2
Back
Fore
SplineSet
58 -1 m 2,0,1
 35 -1 35 -1 15.5 17.5 c 128,-1,2
 -4 36 -4 36 -4 65 c 2,3,-1
 -4 160 l 2,4,5
 -4 189 -4 189 15.5 207.5 c 128,-1,6
 35 226 35 226 58 226 c 2,7,-1
 99 226 l 1,8,-1
 99 269 l 2,9,10
 99 286 99 286 81 286 c 2,11,-1
 -334 286 l 1,12,-1
 -334 334 l 1,13,-1
 83 334 l 2,14,15
 108 334 108 334 127.5 315.5 c 128,-1,16
 147 297 147 297 147 268 c 2,17,-1
 147 65 l 2,18,19
 147 36 147 36 127.5 17.5 c 128,-1,20
 108 -1 108 -1 83 -1 c 2,21,-1
 58 -1 l 2,0,1
99 179 m 1,22,-1
 61 179 l 2,23,24
 44 179 44 179 44 161 c 2,25,-1
 44 66 l 2,26,27
 44 57 44 57 49 52.5 c 128,-1,28
 54 48 54 48 61 48 c 2,29,-1
 81 48 l 2,30,31
 99 48 99 48 99 66 c 2,32,-1
 99 179 l 1,22,-1
EndSplineSet
EndChar

StartChar: uni0C3F
Encoding: 3135 3135 166
Width: 12
GlyphClass: 2
Flags: W
LayerCount: 2
Back
Fore
SplineSet
-197 283 m 1,0,-1
 -197 329 l 1,1,-1
 -120 329 l 2,2,3
 -109 329 -109 329 -106.5 332 c 128,-1,4
 -104 335 -104 335 -104 341 c 2,5,-1
 -104 408 l 2,6,7
 -104 421 -104 421 -110 427 c 128,-1,8
 -116 433 -116 433 -135 431 c 1,9,-1
 -133 396 l 2,10,11
 -132 376 -132 376 -146 362 c 0,12,13
 -160 347 -160 347 -195 347 c 0,14,15
 -221 347 -221 347 -239.5 362.5 c 128,-1,16
 -258 378 -258 378 -258 410 c 0,17,18
 -258 439 -258 439 -241 456 c 128,-1,19
 -224 473 -224 473 -193 473 c 2,20,-1
 -115 473 l 2,21,22
 -88 473 -88 473 -73.5 455.5 c 128,-1,23
 -59 438 -59 438 -59 418 c 2,24,-1
 -59 342 l 2,25,26
 -59 317 -59 317 -75 300 c 128,-1,27
 -91 283 -91 283 -122 283 c 2,28,-1
 -197 283 l 1,0,-1
-197 429 m 2,29,30
 -205 429 -205 429 -209 425.5 c 128,-1,31
 -213 422 -213 422 -213 410 c 0,32,33
 -213 399 -213 399 -210 395.5 c 128,-1,34
 -207 392 -207 392 -197 392 c 0,35,36
 -183 392 -183 392 -180 393.5 c 128,-1,37
 -177 395 -177 395 -177 400 c 2,38,-1
 -177 429 l 1,39,-1
 -197 429 l 2,29,30
EndSplineSet
EndChar

StartChar: uni0C40
Encoding: 3136 3136 167
Width: 12
GlyphClass: 2
Flags: W
LayerCount: 2
Back
Fore
SplineSet
-88 484 m 1,0,1
 -89 504 -89 504 -94.5 509.5 c 128,-1,2
 -100 515 -100 515 -110 515 c 0,3,4
 -124 515 -124 515 -128.5 509.5 c 128,-1,5
 -133 504 -133 504 -133 493 c 2,6,-1
 -133 473 l 1,7,-1
 -115 473 l 2,8,9
 -88 473 -88 473 -73.5 455.5 c 128,-1,10
 -59 438 -59 438 -59 418 c 2,11,-1
 -59 342 l 2,12,13
 -59 316 -59 316 -75.5 299 c 128,-1,14
 -92 282 -92 282 -122 282 c 2,15,-1
 -197 282 l 1,16,-1
 -197 329 l 1,17,-1
 -121 329 l 2,18,19
 -109 329 -109 329 -106.5 331 c 128,-1,20
 -104 333 -104 333 -104 341 c 2,21,-1
 -104 408 l 2,22,23
 -104 420 -104 420 -109.5 426 c 128,-1,24
 -115 432 -115 432 -135 431 c 1,25,-1
 -132 396 l 2,26,27
 -130 375 -130 375 -145 360 c 128,-1,28
 -160 345 -160 345 -195 345 c 0,29,30
 -221 345 -221 345 -239.5 361 c 128,-1,31
 -258 377 -258 377 -258 410 c 0,32,33
 -258 439 -258 439 -241.5 456 c 128,-1,34
 -225 473 -225 473 -193 473 c 2,35,-1
 -179 473 l 1,36,-1
 -179 506 l 2,37,38
 -179 529 -179 529 -163.5 544 c 128,-1,39
 -148 559 -148 559 -114 559 c 2,40,-1
 -89 559 l 2,41,42
 -63 559 -63 559 -53.5 545.5 c 128,-1,43
 -44 532 -44 532 -44 509 c 2,44,-1
 -44 484 l 1,45,-1
 -88 484 l 1,0,1
-197 428 m 2,46,47
 -205 428 -205 428 -208.5 424.5 c 128,-1,48
 -212 421 -212 421 -212 410 c 256,49,50
 -212 399 -212 399 -209.5 395.5 c 128,-1,51
 -207 392 -207 392 -197 392 c 0,52,53
 -183 392 -183 392 -180 393.5 c 128,-1,54
 -177 395 -177 395 -177 400 c 2,55,-1
 -177 428 l 1,56,-1
 -197 428 l 2,46,47
EndSplineSet
EndChar

StartChar: uni0C41
Encoding: 3137 3137 168
Width: 132
GlyphClass: 2
Flags: W
LayerCount: 2
Back
Fore
SplineSet
-29 0 m 2,0,1
 -57 0 -57 0 -79 27 c 1,2,-1
 -57 72 l 1,3,4
 -43 53 -43 53 -37.5 49.5 c 128,-1,5
 -32 46 -32 46 -27 46 c 2,6,-1
 9 46 l 2,7,8
 29 46 29 46 29 66 c 2,9,-1
 29 263 l 2,10,11
 29 282 29 282 9 282 c 2,12,-1
 -14 282 l 1,13,-1
 -14 328 l 1,14,-1
 12 328 l 2,15,16
 35 328 35 328 54 309.5 c 128,-1,17
 73 291 73 291 73 262 c 2,18,-1
 73 66 l 2,19,20
 73 37 73 37 54 18.5 c 128,-1,21
 35 0 35 0 12 0 c 2,22,-1
 -29 0 l 2,0,1
EndSplineSet
EndChar

